<?xml version="1.0" standalone="no"?>
<!DOCTYPE svg PUBLIC "-//W3C//DTD SVG 1.1//EN" "http://www.w3.org/Graphics/SVG/1.1/DTD/svg11.dtd" >
<svg>
<metadata>
Created by FontForge 20090622 at Fri Nov 11 16:50:45 2016
 By ffonts
Copyright (c) 2013 by Misti's Fonts (Misti Hammers). All rights reserved.
</metadata>
<defs>
<font id="MfHugMeTight" horiz-adv-x="593" >
  <font-face 
    font-family="Mf Hug Me Tight"
    font-weight="400"
    font-stretch="normal"
    units-per-em="1000"
    panose-1="0 0 0 0 0 0 0 0 0 0"
    ascent="750"
    descent="-250"
    x-height="694"
    cap-height="697"
    bbox="-54.4878 -302 1121.8 994.903"
    underline-thickness="50"
    underline-position="-50"
    unicode-range="U+0020-U+20AC"
  />
<missing-glyph horiz-adv-x="216" 
 />
    <glyph glyph-name=".notdef" horiz-adv-x="216" 
 />
    <glyph glyph-name=".null" horiz-adv-x="0" 
 />
    <glyph glyph-name="nonmarkingreturn" horiz-adv-x="216" 
 />
    <glyph glyph-name="space" unicode=" " horiz-adv-x="216" 
 />
    <glyph glyph-name="space" unicode="&#xa0;" horiz-adv-x="216" 
 />
    <glyph glyph-name="D" unicode="D" horiz-adv-x="612" 
d="M155 -1h-39q-27 2 -46 22q-18 21 -16 47q7 130 6 289q0 61 -1.5 127.5t-4.5 146.5q-2 29 18 47q18 20 46 20h3q95 0 179 -29q81 -29 141 -79q58 -48 95 -114q35 -66 41 -134q5 -62 -13.5 -118.5t-60.5 -101.5q-20 -21 -49.5 -43t-71.5 -39.5t-98.5 -29t-128.5 -11.5z
M186 564q2 -57 3 -107.5t1 -98.5q1 -123 -3 -229q75 4 131 24.5t89 56.5q29 32 36 64.5t5 56.5q-4 44 -27.5 85.5t-62.5 73.5q-26 22 -68 43.5t-104 30.5z" />
    <glyph glyph-name="E" unicode="E" horiz-adv-x="604" 
d="M343 568q-70 3 -104 -1t-46 -8q-3 -28 -6.5 -75.5t-5.5 -102.5q69 -2 137 0t134 10q26 3 47 -14t24 -44t-14 -48t-43 -23q-107 -12 -218 -12h-34t-34 1q2 -51 5.5 -78.5t5.5 -38.5q14 -2 48.5 -4t101.5 1q27 1 51 2.5t43 3t30.5 2.5l11.5 1q26 3 47 -14t24 -44
q3 -26 -14 -47t-44 -24q-1 0 -14 -1l-34 -2.5l-48 -3.5t-56 -3q-18 -1 -34.5 -1.5t-32.5 -0.5q-14 0 -27 0.5t-25 0.5q-74 4 -105 24q-30 19 -45 64q-4 13 -7 29t-6 36q-3 32 -5 72t-1 90q0 43 2 86.5t4.5 81t5 67t5.5 45.5q3 22 16 40t33 31q13 8 28 13.5t35 9.5q26 5 60 8
t76 2q34 0 66 -2t57.5 -4.5t41 -4.5t17.5 -2q27 -4 43.5 -25t12.5 -48q-3 -26 -24.5 -42.5t-48.5 -13.5l-11.5 1.5t-30.5 3.5t-43.5 3.5t-51.5 2.5z" />
    <glyph glyph-name="F" unicode="F" horiz-adv-x="569" 
d="M498 686q27 -3 43.5 -24t13.5 -48q-2 -26 -23 -43t-48 -14l-12.5 1t-32.5 3t-46.5 3.5t-55.5 3.5q-65 3 -100.5 1t-52.5 -4q-1 -29 0 -76l2 -96q54 -3 102 -2.5t103 2.5q17 1 34 1.5t36 1.5q27 0 46 -18.5t20 -45.5t-17.5 -46t-45.5 -20q-18 -1 -35 -1.5t-34 -0.5
q-66 -3 -127 -3h-38.5t-40.5 1q1 -32 1.5 -61t1.5 -54v-60q-1 -18 -3.5 -35.5t-16.5 -32.5q-21 -19 -47 -19q-27 0 -46 19t-19 45q0 5 0.5 8.5t1.5 8.5v37t-1 59.5t-1.5 71t-1.5 70.5q-3 121 -4 194t2 96q2 14 12.5 35t43.5 35q24 10 60 15q26 4 60.5 5t77.5 0q35 -1 68 -3
t59.5 -4.5l42.5 -4t18 -1.5z" />
    <glyph glyph-name="G" unicode="G" horiz-adv-x="650" 
d="M630 290q3 -27 -14 -48t-44 -24q-14 -2 -27.5 -3t-26.5 -1q-5 -41 -26.5 -78.5t-56.5 -68.5q-37 -33 -80.5 -50.5t-87.5 -17.5h-5q-50 1 -91.5 24.5t-70.5 67.5q-58 89 -55 249q1 90 20 161q20 70 53 113q17 22 37.5 38.5t44.5 27.5q20 9 43 14t46 4q31 0 62 -8t58 -24
q25 -13 43 -32q18 -18 23.5 -35t5.5 -29q0 -27 -19 -46t-45 -19q-21 0 -37 12t-24 30q-6 4 -16.5 9t-23.5 8.5t-28 4t-30 -4.5q-31 -12 -50 -52q-31 -60 -33 -174q-2 -75 9.5 -116t24.5 -60q22 -33 56 -34q43 0 84 36q28 25 37 52q-10 1 -20 1t-20 1q-27 0 -46 19.5
t-18 46.5q1 26 20 44.5t45 18.5h1q16 0 30.5 -0.5t28.5 -1.5q35 -2 69.5 -2.5t81.5 4.5q27 3 48 -14t24 -43z" />
    <glyph glyph-name="H" unicode="H" horiz-adv-x="596" 
d="M486 693q27 -4 43.5 -25t12.5 -48q-16 -114 -14.5 -219t6.5 -213q2 -30 3 -61l2 -62q1 -27 -17.5 -46.5t-45.5 -20.5h-2q-26 0 -45 18.5t-20 44.5l-2 61t-3 60q-1 14 -1 28t-1 28q-44 -6 -88 -6h-7.5t-8.5 1q-24 0 -49 2t-54 6q-1 -46 -3 -91t-5 -90q-2 -26 -20.5 -43.5
t-44.5 -17.5h-4q-27 2 -45 22.5t-16 46.5q10 139 9 278.5t-12 281.5q-2 27 15.5 47t44.5 22t47.5 -15.5t22.5 -43.5q5 -67 7.5 -133t3.5 -133q54 -8 103 -9.5t100 6.5q-1 65 2 131.5t13 137.5q4 26 25.5 42.5t47.5 12.5z" />
    <glyph glyph-name="I" unicode="I" horiz-adv-x="577" 
d="M459 136q26 0 45 -19t19 -45q1 -27 -18 -46.5t-45 -19.5q-26 -1 -50 -1.5t-48 -2.5q-29 -2 -56.5 -3t-55.5 -1q-37 0 -74.5 3t-75.5 12q-26 5 -40.5 28t-9.5 49q6 26 29 40.5t49 9.5q20 -5 39 -7l39 -4q3 87 2.5 166.5t-2.5 162.5q0 25 -0.5 50t-0.5 51q-4 0 -7.5 0.5
t-7.5 0.5q-19 1 -37 1.5t-36 1.5q-27 0 -45.5 19.5t-17.5 46.5q0 27 19.5 45.5t46.5 18.5q19 -1 37.5 -1.5t38.5 -1.5q60 -3 122.5 -3.5t131.5 10.5q27 5 48.5 -11t26.5 -43q4 -26 -11.5 -48t-42.5 -26q-36 -6 -70 -8.5t-66 -3.5q0 -25 0.5 -49t0.5 -48q2 -79 2.5 -160
t-2.5 -169h10t10 1l49.5 2l51.5 2h2v0z" />
    <glyph glyph-name="J" unicode="J" horiz-adv-x="572" 
d="M544 645q4 -26 -12 -47.5t-43 -26.5l-48.5 -6t-46.5 -5l11.5 -34l10.5 -34q20 -79 23 -152q3 -76 -11.5 -140t-44.5 -109q-37 -56 -90 -77q-29 -13 -62 -13q-29 0 -55 10q-38 16 -66 50t-42 84q-28 95 -4 238q5 27 27 42.5t48 10.5q27 -5 42.5 -26.5t10.5 -48.5
q-12 -70 -9 -113.5t10 -66.5t15.5 -34.5t16.5 -14.5q10 -5 24 4.5t27 27.5q15 23 24.5 64t9 93.5t-13.5 112.5t-41 122q-37 1 -74 2.5t-77 5.5q-27 2 -44 22.5t-15 47.5q2 26 22.5 43.5t46.5 15.5q46 -4 89.5 -6t86.5 -1.5t87.5 4t92.5 10.5q27 4 48.5 -12t25.5 -43z" />
    <glyph glyph-name="K" unicode="K" horiz-adv-x="576" 
d="M505 120q21 -17 24.5 -43t-12.5 -48q-10 -12 -24 -18.5t-28 -6.5q-23 0 -40 13l-117.5 95.5l-115.5 101.5l-2 -77t-4 -76q-2 -26 -20.5 -43.5t-44.5 -17.5q-1 0 -2 0.5t-2 0.5q-27 2 -44.5 22t-15.5 47q8 120 5.5 246t-6.5 251l-3 66q-1 27 17.5 46.5t45.5 20.5
t46.5 -17.5t20.5 -44.5q1 -17 1.5 -33t0.5 -33l3 -87q53 39 103.5 82.5t100.5 97.5q19 20 45.5 21t46.5 -17q20 -19 21 -45.5t-18 -46.5q-63 -69 -126.5 -121.5t-129.5 -100.5q64 -61 133.5 -121t140.5 -114z" />
    <glyph glyph-name="L" unicode="L" horiz-adv-x="537" 
d="M287 -1q-40 0 -67 1.5t-44 3.5t-26.5 4t-13.5 3q-10 2 -23.5 10t-25.5 25q-11 15 -18 37q-5 16 -8.5 35.5t-5.5 44.5q-4 38 -4 88t2 112q1 52 4.5 101l6.5 87.5t5.5 63t2.5 26.5q2 26 23 43t48 15q27 -3 44 -24t14 -47q0 -1 -2 -20.5t-4.5 -52l-5.5 -75t-5 -87.5
q-2 -54 -3 -98t1 -79q2 -33 4 -53t4 -30q22 -3 55.5 -3.5t70.5 0t74 2t68 3.5q27 2 47 -16t22 -45t-16 -47t-44 -22q-1 0 -12 -0.5t-29 -1.5t-41 -2t-49 -1q-14 -1 -26 -1h-23z" />
    <glyph glyph-name="M" unicode="M" horiz-adv-x="703" 
d="M119 -4q-26 0 -45 18.5t-19 45.5l-0.5 22.5t-1 59.5t-0.5 84.5t1 98.5q2 60 4.5 109t6.5 87q4 36 8.5 60.5t10 41.5t12 27.5t14.5 18.5q22 23 54 25q11 0 26.5 -4.5t31.5 -20.5q7 -6 12.5 -13.5t11.5 -17.5q16 -26 34 -74q28 -74 63 -201q4 -12 7 -24.5l6 -24.5
q4 12 7.5 24.5t8.5 24.5l35 112.5t30 86.5l16 40.5t14 30.5q7 15 15 28q20 28 49 34q34 6 60 -15q10 -8 17.5 -20t13 -29.5t9.5 -41.5t7 -57q4 -38 6 -87t4 -110q1 -51 1.5 -99.5t0.5 -86.5t-0.5 -61.5l-0.5 -23.5q0 -27 -19 -45.5t-46 -18.5h-1q-27 0 -45.5 19.5
t-18.5 46.5l0.5 20.5t0.5 54.5v77.5t-1 90.5q-1 44 -3 82l-13.5 -43.5l-15.5 -49.5l-28 -93.5l-23.5 -80.5l-16.5 -56.5t-6 -22.5q-6 -21 -23 -34t-40 -13h-1q-23 1 -40 15t-22 36l-4.5 21t-13 55.5l-19.5 78.5l-23 92q-11 42 -21 75l-18 60q-2 -26 -2.5 -57.5t-1.5 -69.5
q-1 -47 -1 -90v-76.5t0.5 -54l0.5 -20.5q1 -27 -17.5 -46.5t-45.5 -20.5h-2z" />
    <glyph glyph-name="N" unicode="N" horiz-adv-x="571" 
d="M127 -2q-26 0 -44.5 17.5t-20.5 43.5q0 1 -1.5 25.5t-3 64.5t-3 90.5t-1.5 103.5q-1 63 0.5 113t4.5 87q5 50 13 77q6 21 15 36q14 22 31 28.5t28 7.5q18 1 32.5 -5t25.5 -15t18 -18.5t10 -14.5l18 -32t21 -42q19 -43 40 -96l42 -107l18 -45.5l17 -43.5q1 24 1 53.5
t1 64.5q0 46 -1 89t-1.5 76.5t-1.5 53.5t-1 21q-1 26 17.5 46t45.5 21t46.5 -17.5t20.5 -45.5l1 -23t1.5 -60.5t1 -85t0.5 -98.5q0 -120 -6 -195q-5 -64 -14.5 -97t-28.5 -50q-25 -22 -58 -19q-27 3 -43.5 20.5t-27.5 34.5q-15 24 -34 68q-17 38 -36 85.5l-39 99.5l-24 62
l-24 60q-1 -52 0 -130l2 -90t2.5 -76t3 -53.5l1.5 -20.5q2 -27 -16.5 -47t-45.5 -22h-3z" />
    <glyph glyph-name="O" unicode="O" horiz-adv-x="700" 
d="M362 0q-61 0 -115 22q-58 24 -102 67q-45 44 -73 107q-29 66 -32 142q-3 81 21 150q23 64 71 115q45 46 103 71.5t121 25.5q60 0 112.5 -22.5t93.5 -64.5q44 -46 68 -110.5t27 -142.5q2 -54 -6 -97.5t-21.5 -77t-30.5 -58.5t-33 -42q-40 -42 -92.5 -63.5t-111.5 -21.5z
M356 570q-36 0 -70 -15t-60 -42q-30 -31 -44 -74t-12 -95q2 -53 19.5 -93t44.5 -67t60.5 -40.5t67.5 -13.5q66 0 111 45q59 62 54 180q-2 59 -18 100t-40 66.5t-53.5 37t-59.5 11.5z" />
    <glyph glyph-name="P" unicode="P" horiz-adv-x="576" 
d="M124 -2h-3q-27 2 -45.5 21.5t-16.5 46.5q5 136 3.5 282t-9.5 280q-2 26 16 46t44 22q88 7 164 -4.5t137 -40.5q60 -29 98 -71q21 -23 33 -49.5t16 -54.5q1 -15 -0.5 -37t-12 -47.5t-32.5 -53.5t-60 -55q-96 -68 -264 -100q-1 -31 -1.5 -61.5t-2.5 -60.5
q-1 -26 -19.5 -44.5t-44.5 -18.5zM186 568q6 -123 6 -252q75 16 120.5 36t68.5 37q26 18 39.5 37t11.5 35q-2 19 -21.5 38t-51.5 34q-70 33 -173 35z" />
    <glyph glyph-name="Q" unicode="Q" horiz-adv-x="683" 
d="M570 119q4 -4 7 -7.5t7 -7.5q19 -19 18.5 -46t-19.5 -46q-20 -18 -46 -18q-28 0 -46 20q-12 10 -20 21q-5 -3 -11 -5.5l-11 -4.5q-51 -22 -111 -22q-29 0 -57 5.5t-54 16.5q-56 22 -98 65q-43 45 -68 108q-24 67 -23 143q1 40 8 76.5t20 70.5q24 63 69 111q42 45 99 71
q55 24 114 24q57 0 108.5 -22.5t90.5 -65.5q84 -92 90 -247q3 -86 -18 -144.5t-49 -95.5zM338 133q11 0 21 1t19 4l-39 46.5l-41 50.5q-17 21 -14.5 47.5t23.5 43.5t48 14.5t44 -23.5l41.5 -51l39.5 -47q14 27 21.5 61t5.5 74q-2 58 -17.5 98t-38 65t-50 36t-53.5 11
q-33 0 -64.5 -14.5t-57 -42.5t-41.5 -70.5t-17 -97.5q-2 -101 54 -158q48 -48 116 -48z" />
    <glyph glyph-name="R" unicode="R" horiz-adv-x="579" 
d="M471 -2q-19 0 -35 10q-53 34 -90.5 61.5t-66 51t-50 44t-41.5 41.5q-2 -35 -2.5 -71.5t-2.5 -74.5q-1 -26 -20.5 -44.5t-46.5 -17.5t-45.5 21t-17.5 46q3 81 4.5 155t1.5 143t-1.5 134.5t-4.5 130.5q-1 27 17 46.5t44 21.5q81 5 150.5 -4.5t123.5 -33.5q55 -24 90 -60
q38 -41 44 -93q1 -14 -0.5 -33t-10.5 -41t-27.5 -45.5t-51.5 -46.5q-53 -37 -132 -61q16 -17 34.5 -34t42.5 -36.5t55.5 -41.5l73.5 -49q23 -14 28.5 -40t-9.5 -49q-9 -15 -23.5 -22.5t-30.5 -7.5zM186 567q3 -90 3 -183q69 14 108.5 30.5t59.5 30.5q17 12 27 24.5t9 21.5
t-14.5 22.5t-41.5 25.5q-62 26 -151 28z" />
    <glyph glyph-name="S" unicode="S" horiz-adv-x="522" 
d="M249 -1q-26 0 -50.5 4t-47.5 12q-38 12 -64 35q-34 30 -42 72q-5 26 10 48.5t42 27.5q26 5 47.5 -9.5t27.5 -39.5q3 -3 14.5 -9t34.5 -9t47 -1t43 10q27 11 32.5 25.5t3.5 28.5q-2 15 -8.5 26t-19.5 20t-33 17.5t-48 18.5q-31 11 -61.5 23.5t-57.5 33.5q-70 52 -76 145
q-4 57 22 107q25 44 68 72q54 36 128 42q35 2 68 -4.5t61 -20.5q42 -22 65.5 -58t25.5 -81q2 -27 -16.5 -46.5t-45.5 -21.5q-27 -1 -46.5 17.5t-20.5 45.5q-1 5 -3.5 12.5t-17.5 15.5q-13 7 -29.5 9.5t-34 1t-34 -6.5t-29.5 -14q-23 -15 -28 -32t-4 -29q1 -17 6.5 -28.5
t18 -21.5t33 -19t51.5 -20q29 -10 59 -22t56 -31q69 -50 80 -135q6 -44 -8 -84q-14 -38 -43 -65q-47 -46 -127 -58q-12 -2 -24.5 -3t-24.5 -1z" />
    <glyph glyph-name="T" unicode="T" horiz-adv-x="548" 
d="M524 644q4 -26 -13 -47.5t-43 -24.5q-38 -5 -73 -7t-70 -3q7 -114 5 -218.5t-6 -210.5l-3 -69q-1 -26 -20 -44.5t-45 -18.5h-2q-27 2 -45.5 21.5t-17.5 46.5l3 69q4 106 6 209.5t-5 214.5q-39 1 -75 3h-16.5t-16.5 1q-27 1 -45.5 20.5t-17.5 46.5q2 27 21.5 45.5
t46.5 17.5q8 -1 16.5 -1t16.5 -1q81 -3 160.5 -3.5t166.5 10.5q26 3 47.5 -13.5t24.5 -43.5z" />
    <glyph glyph-name="U" unicode="U" horiz-adv-x="602" 
d="M297 -1h-3q-94 2 -157 72q-33 38 -55 98q-10 27 -17 58.5t-11 66.5q-17 139 7 337q3 26 24 43t48 14q26 -4 43 -25t14 -47q-11 -93 -13 -169.5t6 -136.5q8 -68 23 -103t29 -50q22 -27 61 -28q35 0 61 29q14 17 31.5 52.5t28.5 104.5q10 64 9.5 141.5t-11.5 170.5
q-3 26 13.5 47.5t43.5 24.5t48 -13.5t24 -43.5q12 -101 12 -188t-11 -159q-23 -149 -92 -224q-64 -72 -156 -72z" />
    <glyph glyph-name="V" unicode="V" horiz-adv-x="557" 
d="M271 0q-12 0 -26.5 4.5t-31.5 16.5q-10 8 -18.5 17.5t-17.5 22.5q-14 22 -27.5 51.5t-26.5 67.5q-27 81 -49 192t-36 245q-3 27 14 48t43 24q27 3 48 -14t24 -44q12 -110 29 -204t38 -166q11 -36 20 -60.5t17 -40.5q7 16 16.5 40t20.5 60q23 72 44 168.5t41 217.5
q2 13 9 24t17.5 18t23 10t25.5 1q27 -5 42.5 -26.5t11.5 -47.5q-24 -143 -50 -254t-53 -189q-25 -75 -52 -116q-16 -24 -33 -40q-27 -24 -56 -25q-2 -1 -7 -1z" />
    <glyph glyph-name="W" unicode="W" horiz-adv-x="774" 
d="M546 -1q-16 0 -37.5 9t-40.5 39q-9 16 -18 38.5t-19 56.5q-9 31 -19.5 73.5l-24.5 100.5q-10 -41 -19.5 -75.5t-19.5 -64.5q-11 -34 -21.5 -60t-20.5 -46q-10 -19 -26 -38.5t-42 -26.5q-33 -8 -61 11q-29 20 -46 73q-7 20 -13 46t-13 61q-14 71 -28.5 175.5t-30.5 244.5
q-3 26 14 47t44 24t48 -13.5t24 -43.5q14 -124 26.5 -219t24.5 -163l3 -15q2 5 2.5 8.5t2.5 8.5q22 72 44 170t45 220q4 23 22 38t41 15t41 -14.5t23 -37.5q29 -144 50.5 -241t37.5 -160q2 -8 3 -11l2 10.5l2 11.5q13 69 26 166t27 224q3 27 24 44t48 14t43.5 -24t14.5 -48
q-17 -152 -32.5 -261.5t-31.5 -183.5q-15 -72 -31 -110l-8 -16.5t-14 -22t-22 -21t-31 -12.5q-2 0 -5.5 -0.5t-7.5 -0.5z" />
    <glyph glyph-name="X" unicode="X" horiz-adv-x="587" 
d="M494 695q25 -10 35.5 -34.5t-0.5 -49.5q-36 -89 -77 -162t-85 -139l69.5 -98.5l73.5 -99.5l6 -8q16 -22 12 -48t-25 -43q-20 -13 -39 -13q-15 0 -29 6.5t-23 19.5l-6 9l-60 80l-59 82l-12.5 -18l-12.5 -17l-48 -65.5l-47 -67.5q-20 -29 -54 -29q-20 0 -36 12
q-23 15 -28 41t10 49l49.5 69.5l48.5 67.5q14 18 27 36.5l26 36.5q-42 69 -78.5 141t-63.5 150q-9 26 2.5 50t37.5 33q26 8 50 -3.5t33 -37.5q20 -57 45 -110t55 -104q32 51 62 107t56 122q11 25 35 35.5t50 -0.5z" />
    <glyph glyph-name="Y" unicode="Y" horiz-adv-x="532" 
d="M463 694q25 -11 35.5 -35.5t0.5 -49.5l-31 -78.5t-25 -69.5l-20.5 -63l-18.5 -59l-21.5 -68t-23.5 -70.5t-29 -77t-37 -86.5q-8 -18 -24 -28.5t-35 -10.5q-14 0 -26 6q-25 11 -34.5 36t1.5 50l31 73t25 65l-49 78t-54.5 93.5t-52 101.5t-41.5 100q-9 26 2.5 50t37.5 33
q26 8 50 -3.5t33 -37.5q21 -61 56 -128t71 -126l39 121.5t55 147.5q11 25 35.5 35.5t49.5 0.5z" />
    <glyph glyph-name="Z" unicode="Z" horiz-adv-x="538" 
d="M236 -4q-23 0 -42.5 1.5t-36.5 5.5q-28 5 -47.5 14t-32 20.5t-19 24t-9.5 24.5q-10 37 15 92q8 17 19.5 38t27.5 46q29 45 64 93l70 96l41.5 56.5l36.5 50.5q2 2 2.5 4t2.5 4q-31 1 -89 -3q-24 -2 -45 -4t-38 -4q-19 -2 -35 -4q-27 -4 -48 12.5t-25 42.5q-4 27 12 48
t43 25q1 0 13 2t31.5 4l44.5 4.5t52 4.5q52 3 88.5 2.5t61 -4.5t39.5 -11.5t26 -16.5q28 -23 28 -60q0 -15 -6 -32t-21.5 -42.5t-42.5 -63l-68 -92.5l-61.5 -85.5l-56.5 -80.5q-19 -29 -30 -48t-16 -30q14 -2 41.5 -3.5t72.5 2.5q46 4 80 9.5t35 5.5q26 4 48 -11t27 -41
t-10 -48.5t-42 -27.5q-1 0 -14.5 -2.5t-35.5 -5.5t-50 -6t-58 -4q-11 -1 -21.5 -1.5t-21.5 -0.5z" />
    <glyph glyph-name="C" unicode="C" horiz-adv-x="597" 
d="M312 -2q-19 0 -38 3q-51 7 -93.5 31t-73.5 65q-69 89 -67 243q2 173 73 265q34 44 82 69q43 21 93 24q40 2 79.5 -7.5t74.5 -29.5q39 -23 62.5 -53.5t27.5 -63.5q3 -27 -13.5 -48t-43.5 -24q-26 -4 -46.5 12t-25.5 42q-2 4 -12 13t-28 17q-21 9 -42.5 11.5t-41.5 -1.5
q-35 -7 -56.5 -33t-33 -59.5t-15.5 -70t-4 -65.5q-2 -107 40 -162q31 -40 81 -46q24 -3 49 1t48 15q20 10 30 20.5t12 17.5q7 26 30 40t49 7t40 -30t7 -49q-10 -40 -43 -74q-14 -14 -30.5 -26t-36.5 -22q-64 -32 -134 -32z" />
    <glyph glyph-name="d" unicode="d" horiz-adv-x="600" 
d="M562 71q2 -27 -15.5 -47.5t-44.5 -22.5h-5q-25 0 -43.5 17t-20.5 43q-1 5 -1.5 11t-0.5 11l-6 -6q-34 -34 -75.5 -52t-86.5 -18q-46 0 -87.5 18t-73.5 51q-42 44 -63 106q-11 32 -16 67.5t-4 74.5q5 140 73 225q34 40 78 63q47 22 94 22q49 0 95 -23q31 -16 53 -37
q1 30 1 58.5t1 55.5q1 26 20.5 45t45.5 18q27 -1 46 -20.5t18 -46.5q-2 -65 -1.5 -138.5t2.5 -152t6.5 -160t10.5 -162.5zM333 168q48 50 48 150q-1 59 -15 94t-29 53q-31 39 -73 39q-20 0 -38.5 -9.5t-32.5 -27.5q-14 -17 -28 -51.5t-16 -94.5q-2 -51 10 -90.5t36 -63.5
q30 -30 68 -30q39 0 70 31z" />
    <glyph glyph-name="b" unicode="b" horiz-adv-x="600" 
d="M38 71q6 81 10.5 162.5t6.5 160t2.5 152t-1.5 138.5q-1 27 18 46.5t46 20.5q26 1 45.5 -18t20.5 -45q1 -27 1 -55.5t1 -58.5q22 21 53 37q46 23 95 23q47 0 94 -22q43 -23 78 -63q68 -85 73 -225q1 -39 -4 -74.5t-16 -67.5q-21 -62 -63 -106q-32 -33 -73.5 -51t-87.5 -18
q-45 0 -86.5 18t-75.5 52l-6 6q0 -5 -0.5 -11t-1.5 -11q-2 -26 -20.5 -43t-43.5 -17h-5q-27 2 -44.5 22.5t-15.5 47.5zM267 168q31 -31 70 -31q38 0 68 30q24 24 36 63.5t10 90.5q-2 60 -16 94.5t-28 51.5q-14 18 -32.5 27.5t-38.5 9.5q-42 0 -73 -39q-15 -18 -29 -53
t-15 -94q0 -100 48 -150z" />
    <glyph glyph-name="c" unicode="c" horiz-adv-x="577" 
d="M282 -2q-39 0 -75 12q-42 13 -76 41t-57 69q-47 86 -43 215q5 152 69 248q30 45 71.5 73.5t89.5 37.5q37 8 74.5 1.5t70.5 -24.5q69 -38 101 -113q11 -25 0.5 -49.5t-35.5 -35.5t-49.5 -1t-35.5 35q-14 33 -42 49.5t-60 10.5q-45 -9 -77 -56q-22 -32 -34 -77.5
t-14 -102.5q-1 -24 1.5 -54t11.5 -59t26 -52.5t47 -32.5q22 -7 48 -4.5t51 13t47 27.5t37 39q14 23 40.5 28t49.5 -9q22 -15 27.5 -41.5t-9.5 -48.5q-26 -38 -63 -68.5t-82 -48.5q-27 -11 -55 -16.5t-55 -5.5z" />
    <glyph glyph-name="e" unicode="e" horiz-adv-x="575" 
d="M303 -1q-48 0 -91 15q-90 32 -137 120q-51 92 -42 232q5 74 25.5 135.5t56.5 106.5q34 43 81 68q49 24 99 23q51 -2 96 -27q46 -28 77 -73q33 -46 50 -109t19 -138q0 -28 -21 -49q-22 -19 -50 -17q-54 5 -107.5 2.5t-110.5 -6.5q-20 -2 -41 -3l-42 -2q6 -48 24 -81
q22 -43 66 -59q46 -15 98 0q23 6 41 17.5t28 25.5q15 22 41.5 26.5t48.5 -11.5q22 -15 26.5 -41.5t-10.5 -48.5q-23 -32 -58.5 -55.5t-79.5 -37.5q-22 -6 -43.5 -9.5t-43.5 -3.5zM290 569q-40 0 -73 -42q-14 -17 -27.5 -45.5t-21.5 -74.5l35 2t36 3q40 2 80 4.5t82 2.5
q-6 39 -17 64.5t-22 41.5q-31 44 -71 44h-1z" />
    <glyph glyph-name="f" unicode="f" horiz-adv-x="573" 
d="M488 381q-26 2 -44.5 22t-16.5 47q4 71 -23.5 115.5t-80.5 52.5q-21 3 -43 -1t-42 -15.5t-35.5 -31t-22.5 -47.5q-10 -39 -11.5 -89.5t0.5 -107.5q90 -2 166.5 1t147.5 11q27 3 48 -13.5t24 -43.5q4 -27 -13 -48t-43 -24q-59 -7 -120.5 -10.5t-130.5 -3.5h-36.5t-37.5 1
q1 -33 1.5 -66.5t-1.5 -67.5q-2 -26 -20.5 -44t-44.5 -18h-3q-27 1 -45 20.5t-17 46.5q2 48 0.5 96.5t-3.5 96.5q-3 81 -3 156.5t17 139.5q14 53 43 92q15 19 32.5 35t37.5 28q40 24 85 33.5t90 1.5q48 -8 88 -31.5t69 -61.5q32 -41 46 -94t11 -116q-2 -26 -20.5 -44
t-44.5 -18h-4v0z" />
    <glyph glyph-name="g" unicode="g" horiz-adv-x="629" 
d="M583 532q1 -48 3 -109.5t2.5 -129t-1 -137t-6.5 -133.5q-9 -110 -78 -185q-32 -33 -71.5 -55t-85.5 -30q-14 -2 -26.5 -3t-26.5 -1q-31 0 -61 6t-58 19q-88 41 -131 130q-11 25 -2.5 50.5t33.5 36.5q24 12 49.5 3t36.5 -34q13 -28 33 -45t42 -26t44.5 -10.5t42.5 2.5
q10 2 30.5 9t41.5 23.5t37.5 45.5t20.5 75q2 23 3 48l2 51q0 -2 -2 -2q-38 -40 -85.5 -61.5t-96.5 -21.5q-40 0 -77 14q-39 17 -68 46q-42 43 -63 110q-21 68 -20 154q3 152 64 237q30 44 72.5 66.5t92.5 22.5q48 0 93 -21.5t83 -60.5v3q0 4 0.5 6.5t0.5 5.5q2 18 12.5 32
t27.5 21q25 11 49.5 1t35.5 -35q7 -18 4 -38q0 -9 0.5 -32t2.5 -48zM361 221q28 29 42 68t12 84q-2 44 -15.5 81.5t-38.5 65.5q-20 23 -42.5 35.5t-44.5 12.5q-35 0 -59 -34q-14 -18 -26 -56.5t-14 -107.5q-1 -60 10.5 -103.5t34.5 -66.5t53 -23q22 0 45 12t43 32z" />
    <glyph glyph-name="h" unicode="h" horiz-adv-x="600" 
d="M517 1q-26 0 -44.5 17.5t-20.5 43.5l-1.5 19t-5 50t-9 71t-14.5 82q-21 96 -46 151q-15 33 -25 43t-12 11q-2 -1 -14 -11t-32 -45q-31 -55 -60 -152q-13 -42 -23 -82.5t-17 -72.5t-10.5 -51.5l-3.5 -19.5q-5 -25 -24 -40.5t-45 -13.5q-25 2 -42 20t-18 44l-11 620
q-1 27 18 46t46 20t46 -18t20 -46l4 -204l8 15.5t9 15.5q14 23 28.5 40.5t30.5 30.5q28 22 52.5 28.5t41.5 5.5q51 -3 91 -40q29 -28 53 -74q35 -70 59 -183q10 -47 17 -91.5t11 -79.5t6 -57t2 -24q2 -26 -16 -46.5t-44 -22.5h-5z" />
    <glyph glyph-name="i" unicode="i" horiz-adv-x="253" 
d="M191 439q10 -60 8.5 -120t-4.5 -115q-2 -38 -3 -73t3 -58q4 -27 -12 -48.5t-43 -25.5q-3 -1 -10 -1q-23 0 -41.5 15.5t-22.5 39.5q-5 34 -4 74t4 84q2 50 3 103.5t-7 103.5q-4 26 12 48t42 27q26 4 48 -12t27 -42zM207 669q21 -24 21 -52q0 -29 -21 -53q-13 -13 -29 -20
q-23 -10 -53 -10q-14 0 -28 2.5t-25 7.5q-9 4 -16 9t-13 11q-21 22 -21 53q0 29 21 52q6 6 13 11t16 9q11 5 25 7.5t28 2.5q30 0 53 -10q16 -8 29 -20z" />
    <glyph glyph-name="j" unicode="j" horiz-adv-x="278" 
d="M213 434q2 -14 3 -29.5t3 -32.5q6 -72 10 -152t-8 -161q-15 -91 -52 -163q-43 -82 -120 -137q-18 -12 -38 -12q-15 0 -29 6.5t-24 20.5q-16 22 -11.5 48.5t26.5 42.5q57 40 84.5 98t36.5 125t5 137.5t-10 135.5q-2 17 -3 32.5l-2 31.5q-2 26 15.5 46.5t44.5 22.5
t47 -15.5t22 -44.5zM231 673q26 -23 26 -57t-26 -58q-6 -5 -14 -9.5t-16 -8.5q-24 -9 -55 -9q-30 0 -54 9q-18 7 -30 18q-26 24 -26 58t26 57q12 10 30 18q24 9 54 9q31 0 55 -9q8 -4 16 -8.5t14 -9.5z" />
    <glyph glyph-name="k" unicode="k" horiz-adv-x="576" 
d="M532 128q23 -16 27.5 -42t-11.5 -49q-10 -14 -24 -20.5t-29 -6.5q-20 0 -38 12q-84 59 -152 116l-132 115q-2 -47 -2.5 -93.5t0.5 -93.5q0 -27 -18.5 -46.5t-45.5 -19.5h-1q-27 0 -46 18.5t-19 44.5q-2 62 -0.5 123.5t3.5 121.5q3 92 4 185t-7 186q-2 27 15 47.5t44 22.5
t47.5 -15t22.5 -44q6 -63 7.5 -124.5t0.5 -123.5l135 40.5t133 48.5q25 11 49.5 1t35.5 -35t0.5 -49.5t-35.5 -35.5q-56 -24 -111 -42l-109 -35l120 -103t136 -104z" />
    <glyph glyph-name="l" unicode="l" horiz-adv-x="209" 
d="M108 -1q-25 0 -43.5 16.5t-20.5 42.5q-9 87 -8.5 167t2.5 165q2 69 3.5 140.5t-3.5 149.5q-2 27 16 47t45 22t47 -16.5t22 -44.5q5 -82 3.5 -156t-3.5 -146q-2 -81 -2.5 -158t7.5 -158q2 -26 -15 -47t-43 -24h-7z" />
    <glyph glyph-name="m" unicode="m" horiz-adv-x="837" 
d="M732 -1h-4q-27 2 -45 22t-16 47l1 20.5t1.5 53.5t0 76t-3.5 88q-6 106 -24 170q-9 36 -17.5 51t-12.5 20q-5 -4 -16 -18.5t-25 -50.5q-14 -33 -25 -76t-22 -97q-9 -47 -14.5 -90.5t-9.5 -78t-5.5 -55.5l-1.5 -21q-2 -26 -20.5 -43.5t-44.5 -17.5h-1q-26 1 -44.5 19.5
t-19.5 44.5l-0.5 20.5t-2.5 54.5t-5.5 77t-8.5 90q-11 103 -23.5 158.5t-22.5 81.5q-6 -12 -13 -31.5t-15 -48.5t-17 -69t-18 -92q-8 -47 -14 -91t-10 -78t-6 -55l-2 -21q-2 -26 -20.5 -43t-44.5 -17q-26 1 -44 18t-20 43l-38 570q-2 27 16 47t45 22t47 -16t22 -45l4 -62
q19 44 37 69q36 50 85 54q14 2 34.5 -2.5t42.5 -23.5q23 -21 40.5 -58t31.5 -96q1 -2 1 -3.5t1 -3.5l9.5 24t9.5 21q23 51 55 81q27 26 53 33.5t45 6.5q52 -2 92 -45q45 -49 67 -157q15 -76 21 -185q2 -45 2.5 -86.5t-0.5 -73t-2 -50.5t-1 -21q-2 -26 -20 -43.5t-44 -17.5z
" />
    <glyph glyph-name="n" unicode="n" 
d="M138 0h-1q-26 1 -44 18t-20 43l-37 559q-2 27 16 47t45 22t47 -16t22 -45l6 -89q9 22 19 41q27 53 59 82q29 26 55.5 32.5t46.5 5.5q19 -2 44 -11.5t51 -37.5q30 -33 50 -85q32 -79 47 -210q7 -53 10 -104t4 -90.5t1 -65v-27.5q-1 -26 -19.5 -45t-45.5 -19q-1 0 -1 1
q-27 0 -45.5 19.5t-18.5 46.5v23.5t-1 61.5t-4 86.5t-9 98.5q-14 115 -39 177q-12 29 -21 39.5t-12 11.5q-2 -1 -11 -9t-23 -34.5t-31 -75t-35 -130.5q-11 -49 -18.5 -96t-12.5 -84t-7.5 -59.5l-2.5 -22.5q-2 -25 -20.5 -42t-43.5 -17z" />
    <glyph glyph-name="o" unicode="o" horiz-adv-x="689" 
d="M362 -1q-61 0 -118 22q-29 12 -55 28.5t-49 38.5q-48 45 -77 107q-30 64 -33 142q-2 39 3.5 75.5t17.5 71.5q25 65 71 113q46 49 106.5 75t126.5 26q60 0 112.5 -22t93.5 -64q44 -47 67 -108q12 -32 19 -68.5t8 -77.5q2 -54 -5.5 -97.5t-21 -77.5t-30.5 -58.5t-33 -41.5
q-39 -41 -91 -62.5t-112 -21.5zM355 569q-38 0 -74.5 -16t-64.5 -45q-21 -23 -40 -62.5t-17 -102.5q3 -52 22 -92t47.5 -67.5t63.5 -41.5t70 -14q67 0 110 45q29 29 42.5 75t11.5 106q-2 59 -18 100t-40 66.5t-53.5 37t-59.5 11.5z" />
    <glyph glyph-name="p" unicode="p" horiz-adv-x="612" 
d="M502 616q48 -50 73.5 -118t23.5 -148q-2 -74 -26 -140q-23 -62 -63 -110q-42 -48 -94 -74t-107 -26q-40 0 -80 16q-28 12 -50 30q-2 -70 -3.5 -131.5t-5.5 -107.5q-2 -26 -20.5 -43t-44.5 -17h-5q-27 2 -44.5 22.5t-15.5 47.5q3 44 5.5 105.5t3.5 132.5t0.5 148.5l-1 153
t-2 145.5t-2.5 128q-1 27 17.5 46.5t45.5 20.5q26 1 45 -16t21 -42q65 57 147 57q50 0 98 -21q46 -21 84 -59zM469 352q1 54 -14.5 98t-45.5 75q-41 41 -89 41q-46 0 -76 -42q-16 -20 -30.5 -62.5t-15.5 -116.5q-1 -66 12.5 -114.5t39.5 -74.5t59 -26q26 0 53 14.5t49 40.5
q27 32 42 74.5t16 92.5z" />
    <glyph glyph-name="q" unicode="q" horiz-adv-x="612" 
d="M110 616q38 38 84 59q48 21 98 21q82 0 147 -57q2 25 21 42t45 16q27 -1 45.5 -20.5t17.5 -46.5q-2 -58 -3 -128t-1.5 -145.5l-1 -153t0.5 -148.5t3 -132.5t6 -105.5q2 -27 -15.5 -47.5t-44.5 -22.5h-5q-26 0 -44.5 17t-20.5 43q-4 46 -5.5 107.5t-3.5 131.5
q-22 -18 -50 -30q-40 -16 -80 -16q-55 0 -107 26t-94 74q-40 48 -63 110q-24 66 -26 140q-2 80 23.5 148t73.5 118zM143 352q1 -50 16 -92.5t42 -74.5q22 -26 49 -40.5t53 -14.5q33 0 59 26t39.5 74.5t12.5 114.5q-1 74 -15.5 116.5t-30.5 62.5q-30 42 -76 42q-48 0 -89 -41
q-30 -31 -45.5 -75t-14.5 -98z" />
    <glyph glyph-name="r" unicode="r" horiz-adv-x="597" 
d="M119 -3h-3q-27 2 -45 21t-17 46q2 125 -2.5 250.5t-10.5 250.5q-1 16 -1.5 32t-1.5 32q-2 27 16.5 46.5t45.5 21.5t46.5 -16.5t21.5 -45.5q1 -11 1 -23t1 -23q23 40 56 67q73 59 169 33q69 -20 121 -82q26 -30 41.5 -60.5t24.5 -53.5q9 -26 -2 -50t-36 -34q-26 -10 -50 1
t-34 37q-7 18 -17 36.5t-22.5 34.5t-28 28.5t-32.5 17.5q-21 5 -32.5 1.5t-19.5 -9.5q-24 -21 -45 -72q-20 -50 -34 -103.5t-23 -108.5t-14.5 -109t-8.5 -105q-2 -26 -20 -43.5t-44 -17.5z" />
    <glyph glyph-name="s" unicode="s" horiz-adv-x="587" 
d="M291 0q-52 0 -102 14q-55 15 -93.5 44t-56.5 69q-11 25 -1.5 50t34.5 36t50 1.5t36 -34.5q6 -13 24.5 -24t45 -18t57.5 -8t62 6q6 1 17.5 4.5t23 9.5t19.5 14.5t8 20.5q0 3 -2.5 10t-19.5 18q-18 12 -44 23t-55 22l-79 33t-73 43q-89 67 -86 173q5 89 67 141
q53 43 131 51q44 5 89.5 -2.5t87.5 -24.5q50 -21 81 -52t40 -69q7 -26 -7.5 -49t-40.5 -30q-26 -6 -48.5 8t-29.5 40q-2 5 -14.5 15t-38.5 20q-28 11 -58.5 14.5t-56.5 -1.5q-26 -4 -40.5 -12.5t-21.5 -18t-8.5 -19.5t-1.5 -16q-1 -20 7 -35t27 -29q23 -17 55.5 -31
l65.5 -28l65.5 -26.5t59.5 -32.5q77 -52 79 -132q2 -74 -55 -124q-45 -39 -114 -54q-20 -5 -41.5 -7.5t-43.5 -2.5z" />
    <glyph glyph-name="u" unicode="u" 
d="M455 701h1q26 -1 44 -18t20 -43l37 -559q2 -27 -16 -47t-45 -22t-47 16t-22 45l-6 89q-9 -22 -19 -41q-27 -53 -59 -82q-29 -26 -55.5 -32.5t-46.5 -5.5q-19 2 -44 11.5t-51 37.5q-30 33 -50 85q-32 79 -47 210q-7 53 -10 104t-4 90.5t-1 65v27.5q1 26 19.5 45t45.5 19
q1 0 1 -1q27 0 45.5 -19.5t18.5 -46.5v-23.5t1 -61.5t4 -86.5t9 -98.5q14 -115 39 -177q12 -29 21 -39.5t12 -11.5q1 1 10.5 9t23.5 34.5t31 75t35 130.5q11 49 18.5 96t12.5 83.5t7.5 59.5l2.5 23q2 25 20.5 42t43.5 17z" />
    <glyph glyph-name="t" unicode="t" horiz-adv-x="585" 
d="M508 303q27 -1 46 -20.5t18 -46.5q-1 -44 -15.5 -83.5t-40.5 -71.5q-51 -60 -125 -77q-24 -6 -48 -6q-38 0 -68 13q-62 24 -93 84q-18 35 -28.5 90.5t-12.5 133.5l-59 -2q0 -1 -2 -1q-26 0 -45 18.5t-20 44.5q-1 27 17.5 46.5t44.5 20.5l65 3q2 58 6 104.5l6 69.5
q0 3 0.5 6t0.5 5q0 22 13.5 39.5t35.5 22.5q15 4 30.5 0.5t27.5 -14.5q5 -5 14.5 -18t7.5 -36v-5q0 -2 -0.5 -5t-0.5 -7q-2 -20 -5.5 -62t-5.5 -95l113 4q27 2 46.5 -16.5t20.5 -45.5q2 -27 -16.5 -46.5t-45.5 -20.5l-119 -5q1 -42 4.5 -71.5t7 -49.5t7.5 -31.5t7 -16.5
q12 -23 31.5 -25.5t32.5 0.5q30 7 55 34t26 75q1 26 20 45t45 19h1zM157 617q0 1 -0.5 1t-0.5 1q2 -8 3.5 -12t-2.5 10zM155 627v-3v3z" />
    <glyph glyph-name="dotlessi" unicode="&#x131;" horiz-adv-x="206" 
d="M164 439q10 -60 8.5 -120t-4.5 -115q-2 -38 -3 -73t3 -58q4 -27 -12 -48.5t-43 -25.5q-3 -1 -10 -1q-23 0 -41.5 15.5t-22.5 39.5q-5 34 -4 74t4 84q2 50 3 103.5t-7 103.5q-4 26 12 48t42 27q26 4 48 -12t27 -42z" />
    <glyph glyph-name="dieresis" unicode="&#xa8;" horiz-adv-x="268" 
d="M107 604q9 -9 9 -21q0 -13 -9 -20q-5 -5 -11 -8q-8 -4 -21 -4t-20 4q-7 3 -12 8q-8 7 -8 20t8 21q5 5 12 8q4 2 9.5 2.5t10.5 0.5q6 0 11 -0.5t10 -2.5q6 -3 11 -8zM224 606q9 -9 9 -21q0 -13 -9 -20q-5 -5 -11 -8q-8 -4 -21 -4t-20 4q-7 3 -12 8q-8 7 -8 20t8 21
q5 5 12 8q4 2 9.5 2.5t10.5 0.5q6 0 11 -0.5t10 -2.5q6 -3 11 -8z" />
    <glyph glyph-name="dotaccent" unicode="&#x2d9;" horiz-adv-x="140" 
d="M102 604q9 -9 9 -21q0 -13 -9 -20q-5 -5 -11 -8q-8 -4 -21 -4t-20 4q-7 3 -12 8q-8 7 -8 20t8 21q5 5 12 8q4 2 9.5 2.5t10.5 0.5q6 0 11 -0.5t10 -2.5q6 -3 11 -8z" />
    <glyph glyph-name="Adieresis" unicode="&#xc4;" horiz-adv-x="650" 
d="M596 286q4 -44 6 -84t2 -70.5t-0.5 -49t-0.5 -19.5q-2 -26 -20.5 -44t-44.5 -18h-3q-27 2 -45 21.5t-17 46.5l0.5 13t0.5 34.5t-1 51t-3 62.5q-33 -2 -65 -3.5t-64 -1.5q-41 0 -80.5 1.5t-78.5 3.5q-5 -35 -7.5 -65.5t-3.5 -53t-1.5 -36l-0.5 -13.5q-1 -26 -20 -45
t-45 -19h-1q-27 1 -46 20.5t-18 45.5q0 2 1 28.5t4 68t10 94t19 107.5q29 137 78 216q22 37 47 60.5t49.5 36.5t47.5 18t43 5q81 0 140 -61q54 -57 85 -165q22 -80 33 -186zM205 359q63 -3 125 -4t126 4q-24 137 -72 188q-20 21 -46 21q-27 0 -48.5 -22t-38 -54t-28 -68
t-18.5 -65zM303 804q9 -9 9 -21q0 -13 -9 -20q-5 -5 -11 -8q-8 -4 -21 -4t-20 4q-7 3 -12 8q-8 7 -8 20t8 21q5 5 12 8q4 2 9.5 2.5t10.5 0.5q6 0 11 -0.5t10 -2.5q6 -3 11 -8zM420 806q9 -9 9 -21q0 -13 -9 -20q-5 -5 -11 -8q-8 -4 -21 -4t-20 4q-7 3 -12 8q-8 7 -8 20
t8 21q5 5 12 8q4 2 9.5 2.5t10.5 0.5q6 0 11 -0.5t10 -2.5q6 -3 11 -8z" />
    <glyph glyph-name="Edieresis" unicode="&#xcb;" horiz-adv-x="604" 
d="M343 568q-70 3 -104 -1t-46 -8q-3 -28 -6.5 -75.5t-5.5 -102.5q69 -2 137 0t134 10q26 3 47 -14t24 -44t-14 -48t-43 -23q-107 -12 -218 -12h-34t-34 1q2 -51 5.5 -78.5t5.5 -38.5q14 -2 48.5 -4t101.5 1q27 1 51 2.5t43 3t30.5 2.5l11.5 1q26 3 47 -14t24 -44
q3 -26 -14 -47t-44 -24q-1 0 -14 -1l-34 -2.5l-48 -3.5t-56 -3q-18 -1 -34.5 -1.5t-32.5 -0.5q-14 0 -27 0.5t-25 0.5q-74 4 -105 24q-30 19 -45 64q-4 13 -7 29t-6 36q-3 32 -5 72t-1 90q0 43 2 86.5t4.5 81t5 67t5.5 45.5q3 22 16 40t33 31q13 8 28 13.5t35 9.5q26 5 60 8
t76 2q34 0 66 -2t57.5 -4.5t41 -4.5t17.5 -2q27 -4 43.5 -25t12.5 -48q-3 -26 -24.5 -42.5t-48.5 -13.5l-11.5 1.5t-30.5 3.5t-43.5 3.5t-51.5 2.5zM276 804q9 -9 9 -21q0 -13 -9 -20q-5 -5 -11 -8q-8 -4 -21 -4t-20 4q-7 3 -12 8q-8 7 -8 20t8 21q5 5 12 8q4 2 9.5 2.5
t10.5 0.5q6 0 11 -0.5t10 -2.5q6 -3 11 -8zM393 806q9 -9 9 -21q0 -13 -9 -20q-5 -5 -11 -8q-8 -4 -21 -4t-20 4q-7 3 -12 8q-8 7 -8 20t8 21q5 5 12 8q4 2 9.5 2.5t10.5 0.5q6 0 11 -0.5t10 -2.5q6 -3 11 -8z" />
    <glyph glyph-name="Idieresis" unicode="&#xcf;" horiz-adv-x="577" 
d="M459 136q26 0 45 -19t19 -45q1 -27 -18 -46.5t-45 -19.5q-26 -1 -50 -1.5t-48 -2.5q-29 -2 -56.5 -3t-55.5 -1q-37 0 -74.5 3t-75.5 12q-26 5 -40.5 28t-9.5 49q6 26 29 40.5t49 9.5q20 -5 39 -7l39 -4q3 87 2.5 166.5t-2.5 162.5q0 25 -0.5 50t-0.5 51q-4 0 -7.5 0.5
t-7.5 0.5q-19 1 -37 1.5t-36 1.5q-27 0 -45.5 19.5t-17.5 46.5q0 27 19.5 45.5t46.5 18.5q19 -1 37.5 -1.5t38.5 -1.5q60 -3 122.5 -3.5t131.5 10.5q27 5 48.5 -11t26.5 -43q4 -26 -11.5 -48t-42.5 -26q-36 -6 -70 -8.5t-66 -3.5q0 -25 0.5 -49t0.5 -48q2 -79 2.5 -160
t-2.5 -169h10t10 1l49.5 2l51.5 2h2zM364 806q9 -9 9 -21q0 -13 -9 -20q-5 -5 -11 -8q-8 -4 -21 -4t-20 4q-7 3 -12 8q-8 7 -8 20t8 21q5 5 12 8q4 2 9.5 2.5t10.5 0.5q6 0 11 -0.5t10 -2.5q6 -3 11 -8zM247 804q9 -9 9 -21q0 -13 -9 -20q-5 -5 -11 -8q-8 -4 -21 -4t-20 4
q-7 3 -12 8q-8 7 -8 20t8 21q5 5 12 8q4 2 9.5 2.5t10.5 0.5q6 0 11 -0.5t10 -2.5q6 -3 11 -8z" />
    <glyph glyph-name="Odieresis" unicode="&#xd6;" horiz-adv-x="700" 
d="M362 0q-61 0 -115 22q-58 24 -102 67q-45 44 -73 107q-29 66 -32 142q-3 81 21 150q23 64 71 115q45 46 103 71.5t121 25.5q60 0 112.5 -22.5t93.5 -64.5q44 -46 68 -110.5t27 -142.5q2 -54 -6 -97.5t-21.5 -77t-30.5 -58.5t-33 -42q-40 -42 -92.5 -63.5t-111.5 -21.5z
M356 570q-36 0 -70 -15t-60 -42q-30 -31 -44 -74t-12 -95q2 -53 19.5 -93t44.5 -67t60.5 -40.5t67.5 -13.5q66 0 111 45q59 62 54 180q-2 59 -18 100t-40 66.5t-53.5 37t-59.5 11.5zM320 804q9 -9 9 -21q0 -13 -9 -20q-5 -5 -11 -8q-8 -4 -21 -4t-20 4q-7 3 -12 8
q-8 7 -8 20t8 21q5 5 12 8q4 2 9.5 2.5t10.5 0.5q6 0 11 -0.5t10 -2.5q6 -3 11 -8zM437 806q9 -9 9 -21q0 -13 -9 -20q-5 -5 -11 -8q-8 -4 -21 -4t-20 4q-7 3 -12 8q-8 7 -8 20t8 21q5 5 12 8q4 2 9.5 2.5t10.5 0.5q6 0 11 -0.5t10 -2.5q6 -3 11 -8z" />
    <glyph glyph-name="Udieresis" unicode="&#xdc;" horiz-adv-x="602" 
d="M297 -1h-3q-94 2 -157 72q-33 38 -55 98q-10 27 -17 58.5t-11 66.5q-17 139 7 337q3 26 24 43t48 14q26 -4 43 -25t14 -47q-11 -93 -13 -169.5t6 -136.5q8 -68 23 -103t29 -50q22 -27 61 -28q35 0 61 29q14 17 31.5 52.5t28.5 104.5q10 64 9.5 141.5t-11.5 170.5
q-3 26 13.5 47.5t43.5 24.5t48 -13.5t24 -43.5q12 -101 12 -188t-11 -159q-23 -149 -92 -224q-64 -72 -156 -72zM390 806q9 -9 9 -21q0 -13 -9 -20q-5 -5 -11 -8q-8 -4 -21 -4t-20 4q-7 3 -12 8q-8 7 -8 20t8 21q5 5 12 8q4 2 9.5 2.5t10.5 0.5q6 0 11 -0.5t10 -2.5
q6 -3 11 -8zM273 804q9 -9 9 -21q0 -13 -9 -20q-5 -5 -11 -8q-8 -4 -21 -4t-20 4q-7 3 -12 8q-8 7 -8 20t8 21q5 5 12 8q4 2 9.5 2.5t10.5 0.5q6 0 11 -0.5t10 -2.5q6 -3 11 -8z" />
    <glyph glyph-name="Ydieresis" unicode="&#x178;" horiz-adv-x="532" 
d="M463 694q25 -11 35.5 -35.5t0.5 -49.5l-31 -78.5t-25 -69.5l-20.5 -63l-18.5 -59l-21.5 -68t-23.5 -70.5t-29 -77t-37 -86.5q-8 -18 -24 -28.5t-35 -10.5q-14 0 -26 6q-25 11 -34.5 36t1.5 50l31 73t25 65l-49 78t-54.5 93.5t-52 101.5t-41.5 100q-9 26 2.5 50t37.5 33
q26 8 50 -3.5t33 -37.5q21 -61 56 -128t71 -126l39 121.5t55 147.5q11 25 35.5 35.5t49.5 0.5zM243 804q9 -9 9 -21q0 -13 -9 -20q-5 -5 -11 -8q-8 -4 -21 -4t-20 4q-7 3 -12 8q-8 7 -8 20t8 21q5 5 12 8q4 2 9.5 2.5t10.5 0.5q6 0 11 -0.5t10 -2.5q6 -3 11 -8zM360 806
q9 -9 9 -21q0 -13 -9 -20q-5 -5 -11 -8q-8 -4 -21 -4t-20 4q-7 3 -12 8q-8 7 -8 20t8 21q5 5 12 8q4 2 9.5 2.5t10.5 0.5q6 0 11 -0.5t10 -2.5q6 -3 11 -8z" />
    <glyph glyph-name="adieresis" unicode="&#xe4;" horiz-adv-x="644" 
d="M605 69q2 -27 -15.5 -47.5t-44.5 -22.5h-5q-26 0 -44.5 17t-20.5 43q0 7 -1 11q-1 -2 -4 -5q-16 -17 -34.5 -29t-38.5 -21q-43 -16 -84 -16q-26 0 -50.5 5.5t-49.5 16.5q-24 11 -45.5 26.5t-40.5 35.5q-50 51 -74.5 120.5t-22.5 150.5q2 37 8 72t18 67q23 62 62 108
q39 47 90 72.5t105 25.5q82 0 144 -56q4 24 22.5 40t43.5 15q26 -1 45 -20.5t18 -46.5q-5 -158 2 -299.5t17 -262.5zM378 157q26 27 40 75.5t14 113.5q0 51 -9 92t-24.5 70.5t-37 45t-48.5 15.5q-26 0 -53 -15t-48.5 -43.5t-36 -69t-15.5 -91.5q-2 -54 13.5 -99.5
t46.5 -77.5q20 -21 44.5 -32.5t48.5 -11.5q38 0 65 28zM290 804q9 -9 9 -21q0 -13 -9 -20q-5 -5 -11 -8q-8 -4 -21 -4t-20 4q-7 3 -12 8q-8 7 -8 20t8 21q5 5 12 8q4 2 9.5 2.5t10.5 0.5q6 0 11 -0.5t10 -2.5q6 -3 11 -8zM407 806q9 -9 9 -21q0 -13 -9 -20q-5 -5 -11 -8
q-8 -4 -21 -4t-20 4q-7 3 -12 8q-8 7 -8 20t8 21q5 5 12 8q4 2 9.5 2.5t10.5 0.5q6 0 11 -0.5t10 -2.5q6 -3 11 -8z" />
    <glyph glyph-name="edieresis" unicode="&#xeb;" horiz-adv-x="575" 
d="M303 -1q-48 0 -91 15q-90 32 -137 120q-51 92 -42 232q5 74 25.5 135.5t56.5 106.5q34 43 81 68q49 24 99 23q51 -2 96 -27q46 -28 77 -73q33 -46 50 -109t19 -138q0 -28 -21 -49q-22 -19 -50 -17q-54 5 -107.5 2.5t-110.5 -6.5q-20 -2 -41 -3l-42 -2q6 -48 24 -81
q22 -43 66 -59q46 -15 98 0q23 6 41 17.5t28 25.5q15 22 41.5 26.5t48.5 -11.5q22 -15 26.5 -41.5t-10.5 -48.5q-23 -32 -58.5 -55.5t-79.5 -37.5q-22 -6 -43.5 -9.5t-43.5 -3.5zM290 569q-40 0 -73 -42q-14 -17 -27.5 -45.5t-21.5 -74.5l35 2t36 3q40 2 80 4.5t82 2.5
q-6 39 -17 64.5t-22 41.5q-31 44 -71 44h-1zM256 804q9 -9 9 -21q0 -13 -9 -20q-5 -5 -11 -8q-8 -4 -21 -4t-20 4q-7 3 -12 8q-8 7 -8 20t8 21q5 5 12 8q4 2 9.5 2.5t10.5 0.5q6 0 11 -0.5t10 -2.5q6 -3 11 -8zM373 806q9 -9 9 -21q0 -13 -9 -20q-5 -5 -11 -8q-8 -4 -21 -4
t-20 4q-7 3 -12 8q-8 7 -8 20t8 21q5 5 12 8q4 2 9.5 2.5t10.5 0.5q6 0 11 -0.5t10 -2.5q6 -3 11 -8z" />
    <glyph glyph-name="idieresis" unicode="&#xef;" horiz-adv-x="234" 
d="M180 439q10 -60 8.5 -120t-4.5 -115q-2 -38 -3 -73t3 -58q4 -27 -12 -48.5t-43 -25.5q-3 -1 -10 -1q-23 0 -41.5 15.5t-22.5 39.5q-5 34 -4 74t4 84q2 50 3 103.5t-7 103.5q-4 26 12 48t42 27q26 4 48 -12t27 -42zM89 604q9 -9 9 -21q0 -13 -9 -20q-5 -5 -11 -8
q-8 -4 -21 -4t-20 4q-7 3 -12 8q-8 7 -8 20t8 21q5 5 12 8q4 2 9.5 2.5t10.5 0.5q6 0 11 -0.5t10 -2.5q6 -3 11 -8zM206 606q9 -9 9 -21q0 -13 -9 -20q-5 -5 -11 -8q-8 -4 -21 -4t-20 4q-7 3 -12 8q-8 7 -8 20t8 21q5 5 12 8q4 2 9.5 2.5t10.5 0.5q6 0 11 -0.5t10 -2.5
q6 -3 11 -8z" />
    <glyph glyph-name="odieresis" unicode="&#xf6;" horiz-adv-x="689" 
d="M362 -1q-61 0 -118 22q-29 12 -55 28.5t-49 38.5q-48 45 -77 107q-30 64 -33 142q-2 39 3.5 75.5t17.5 71.5q25 65 71 113q46 49 106.5 75t126.5 26q60 0 112.5 -22t93.5 -64q44 -47 67 -108q12 -32 19 -68.5t8 -77.5q2 -54 -5.5 -97.5t-21 -77.5t-30.5 -58.5t-33 -41.5
q-39 -41 -91 -62.5t-112 -21.5zM355 569q-38 0 -74.5 -16t-64.5 -45q-21 -23 -40 -62.5t-17 -102.5q3 -52 22 -92t47.5 -67.5t63.5 -41.5t70 -14q67 0 110 45q29 29 42.5 75t11.5 106q-2 59 -18 100t-40 66.5t-53.5 37t-59.5 11.5zM312 804q9 -9 9 -21q0 -13 -9 -20
q-5 -5 -11 -8q-8 -4 -21 -4t-20 4q-7 3 -12 8q-8 7 -8 20t8 21q5 5 12 8q4 2 9.5 2.5t10.5 0.5q6 0 11 -0.5t10 -2.5q6 -3 11 -8zM429 806q9 -9 9 -21q0 -13 -9 -20q-5 -5 -11 -8q-8 -4 -21 -4t-20 4q-7 3 -12 8q-8 7 -8 20t8 21q5 5 12 8q4 2 9.5 2.5t10.5 0.5q6 0 11 -0.5
t10 -2.5q6 -3 11 -8z" />
    <glyph glyph-name="udieresis" unicode="&#xfc;" 
d="M455 701h1q26 -1 44 -18t20 -43l37 -559q2 -27 -16 -47t-45 -22t-47 16t-22 45l-6 89q-9 -22 -19 -41q-27 -53 -59 -82q-29 -26 -55.5 -32.5t-46.5 -5.5q-19 2 -44 11.5t-51 37.5q-30 33 -50 85q-32 79 -47 210q-7 53 -10 104t-4 90.5t-1 65v27.5q1 26 19.5 45t45.5 19
q1 0 1 -1q27 0 45.5 -19.5t18.5 -46.5v-23.5t1 -61.5t4 -86.5t9 -98.5q14 -115 39 -177q12 -29 21 -39.5t12 -11.5q1 1 10.5 9t23.5 34.5t31 75t35 130.5q11 49 18.5 96t12.5 83.5t7.5 59.5l2.5 23q2 25 20.5 42t43.5 17zM367 806q9 -9 9 -21q0 -13 -9 -20q-5 -5 -11 -8
q-8 -4 -21 -4t-20 4q-7 3 -12 8q-8 7 -8 20t8 21q5 5 12 8q4 2 9.5 2.5t10.5 0.5q6 0 11 -0.5t10 -2.5q6 -3 11 -8zM250 804q9 -9 9 -21q0 -13 -9 -20q-5 -5 -11 -8q-8 -4 -21 -4t-20 4q-7 3 -12 8q-8 7 -8 20t8 21q5 5 12 8q4 2 9.5 2.5t10.5 0.5q6 0 11 -0.5t10 -2.5
q6 -3 11 -8z" />
    <glyph glyph-name="OE" unicode="&#x152;" horiz-adv-x="1084" 
d="M356 0q-61 0 -115 22q-58 24 -102 67q-45 44 -73 107q-29 66 -32 142q-3 81 21 150q23 64 71 115q45 46 103 71.5t121 25.5q60 0 112.5 -22.5t93.5 -64.5q1 -3 4 -4q11 36 46 57q13 8 28 13.5t35 9.5q26 5 60 8t76 2q34 0 66 -2t57.5 -4.5t41 -4.5t17.5 -2
q27 -4 43.5 -25t12.5 -48q-3 -26 -24.5 -42.5t-48.5 -13.5l-11.5 1.5t-30.5 3.5t-43.5 3.5t-51.5 2.5q-70 3 -104 -1t-46 -8q-3 -28 -6.5 -75.5t-5.5 -102.5q69 -2 137 0t134 10q26 3 47 -14t24 -44t-14 -48t-43 -23q-107 -12 -218 -12h-34t-34 1q2 -51 5.5 -78.5t5.5 -38.5
q14 -2 48.5 -4t101.5 1q27 1 51 2.5t43 3t30.5 2.5l11.5 1q26 3 47 -14t24 -44q3 -26 -14 -47t-44 -24q-1 0 -14 -1l-34 -2.5l-48 -3.5t-56 -3q-18 -1 -34.5 -1.5t-32.5 -0.5q-14 0 -27 0.5t-25 0.5q-74 4 -105 24q-29 17 -44 61q-40 -42 -92.5 -63.5t-111.5 -21.5zM350 570
q-36 0 -70 -15t-60 -42q-30 -31 -44 -74t-12 -95q2 -53 19.5 -93t44.5 -67t60.5 -40.5t67.5 -13.5q66 0 111 45q59 62 54 180q-2 59 -18 100t-40 66.5t-53.5 37t-59.5 11.5z" />
    <glyph glyph-name="oe" unicode="&#x153;" horiz-adv-x="1085" 
d="M366 -1q-61 0 -118 22q-29 12 -55 28.5t-49 38.5q-48 45 -77 107q-30 64 -33 142q-2 39 3.5 75.5t17.5 71.5q25 65 71 113q46 49 106.5 75t126.5 26q60 0 112.5 -22t93.5 -64l15.5 -18t14.5 -20q9 16 24 34q34 43 81 68q49 24 99 23q51 -2 96 -27q46 -28 77 -73
q33 -46 50 -109t19 -138q0 -28 -21 -49q-22 -19 -50 -17q-54 5 -107.5 2.5t-110.5 -6.5q-20 -2 -41 -3l-42 -2q6 -48 24 -81q22 -43 66 -59q46 -15 98 0q23 6 41 17.5t28 25.5q15 22 41.5 26.5t48.5 -11.5q22 -15 26.5 -41.5t-10.5 -48.5q-23 -32 -58.5 -55.5t-79.5 -37.5
q-22 -6 -43.5 -9.5t-43.5 -3.5q-48 0 -91 15q-77 27 -124 97l-11.5 -15t-11.5 -13q-39 -41 -91 -62.5t-112 -21.5zM359 569q-38 0 -74.5 -16t-64.5 -45q-21 -23 -40 -62.5t-17 -102.5q3 -52 22 -92t47.5 -67.5t63.5 -41.5t70 -14q67 0 110 45q29 29 42.5 75t11.5 106
q-2 59 -18 100t-40 66.5t-53.5 37t-59.5 11.5zM794 569q-40 0 -73 -42q-14 -17 -27.5 -45.5t-21.5 -74.5l35 2t36 3q40 2 80 4.5t82 2.5q-6 39 -17 64.5t-22 41.5q-31 44 -71 44h-1z" />
    <glyph glyph-name="ae" unicode="&#xe6;" horiz-adv-x="1049" 
d="M771 -1q-48 0 -91 15q-40 14 -71 39q-3 -22 -19.5 -37t-39.5 -17h-5q-26 0 -44.5 17t-20.5 43q0 7 -1 11q-1 -2 -4 -5q-16 -17 -34.5 -29t-38.5 -21q-43 -16 -84 -16q-26 0 -50.5 5.5t-49.5 16.5q-24 11 -45.5 26.5t-40.5 35.5q-50 51 -74.5 120.5t-22.5 150.5q2 37 8 72
t18 67q23 62 62 108q39 47 90 72.5t105 25.5q82 0 144 -56q4 24 22.5 40t43.5 15q26 -1 45 -20.5t18 -46.5q0 -4 -0.5 -7.5t-0.5 -6.5q17 19 35.5 33.5t38.5 25.5q49 24 99 23q51 -2 96 -27q46 -28 77 -73q33 -46 50 -109t19 -138q0 -28 -21 -49q-22 -19 -50 -17
q-54 5 -107.5 2.5t-110.5 -6.5q-20 -2 -41 -3l-42 -2q6 -48 24 -81q22 -43 66 -59q46 -15 98 0q23 6 41 17.5t28 25.5q15 22 41.5 26.5t48.5 -11.5q22 -15 26.5 -41.5t-10.5 -48.5q-23 -32 -58.5 -55.5t-79.5 -37.5q-22 -6 -43.5 -9.5t-43.5 -3.5zM383 157q26 27 40 75.5
t14 113.5q0 51 -9 92t-24.5 70.5t-37 45t-48.5 15.5q-26 0 -53 -15t-48.5 -43.5t-36 -69t-15.5 -91.5q-2 -54 13.5 -99.5t46.5 -77.5q20 -21 44.5 -32.5t48.5 -11.5q38 0 65 28zM758 569q-40 0 -73 -42q-14 -17 -27.5 -45.5t-21.5 -74.5l35 2t36 3q40 2 80 4.5t82 2.5
q-6 39 -17 64.5t-22 41.5q-31 44 -71 44h-1z" />
    <glyph glyph-name="bar" unicode="|" horiz-adv-x="209" 
d="M115 633q26 -3 43 -24t15 -47q-4 -40 -6 -85t-2 -91.5t1 -91.5t2 -85q2 -72 3.5 -153.5t-3.5 -163.5q-2 -26 -22 -44.5t-47 -16.5t-45 22t-16 47q5 78 3.5 157t-3.5 148q-1 42 -2 88.5t-0.5 94.5t2 95.5t6.5 90.5q2 26 20.5 42.5t43.5 16.5h7z" />
    <glyph glyph-name="underscore" unicode="_" horiz-adv-x="604" 
d="M29 -177q0 25 16.5 43.5t42.5 20.5q51 5 87.5 7t65.5 1.5t54.5 -2t54.5 -2t65.5 -0.5t88.5 3q27 1 47 -18t22 -46t-16.5 -47t-44.5 -22q-52 -3 -88 -2.5t-65 1.5t-54 3t-53.5 2.5t-64.5 -1t-87 -6.5q-26 -2 -47 15t-24 43v7z" />
    <glyph glyph-name="dollar" unicode="$" horiz-adv-x="490" 
d="M255 745h7q21 -2 36 -17t20 -35q15 -3 29 -8t27 -11q42 -22 65.5 -58t25.5 -81q2 -27 -16.5 -46.5t-45.5 -21.5q-27 -1 -46.5 17.5t-20.5 45.5q-1 5 -3.5 12.5t-17.5 15.5q-2 0 -2 1q-2 -45 -1.5 -90.5t1.5 -88.5q35 -14 67 -35q69 -50 80 -135q6 -44 -8 -84
q-14 -38 -43 -65q-36 -36 -94 -51v-6q-2 -26 -22 -44.5t-47 -16.5q-25 2 -42 19t-19 40q-28 5 -50 13q-38 12 -64 35q-34 30 -42 72q-5 26 10 48.5t42 27.5q26 5 47.5 -9.5t27.5 -39.5q2 -2 10 -7t22 -8q0 40 -0.5 79t-1.5 75q-22 8 -43 19t-40 26q-70 52 -76 145
q-4 57 22 107q25 44 68 72q17 11 35.5 19.5t38.5 13.5q4 24 22 39.5t42 15.5zM156 487q1 -34 26 -52v54.5t1 54.5q-20 -14 -24 -30t-3 -27zM331 194q-3 20 -13 33v-73q11 9 12.5 19t0.5 21z" />
    <glyph glyph-name="period" unicode="." horiz-adv-x="149" 
d="M103 16q-12 -12 -29 -12q-18 0 -28 12q-3 3 -6 7t-5 8q-5 11 -5 29q0 8 1 15.5t4 12.5q4 9 11 16q5 7 12.5 9t15.5 2t15.5 -2t13.5 -9q7 -7 11 -16q3 -5 3.5 -12.5t0.5 -15.5t-0.5 -15t-3.5 -14q-2 -4 -5 -8t-6 -7z" />
    <glyph glyph-name="periodcentered" unicode="&#xb7;" horiz-adv-x="147" 
d="M101 267q-12 -12 -29 -12q-18 0 -28 12q-3 3 -6 7t-5 8q-5 11 -5 29q0 8 1 15.5t4 12.5q4 9 11 16q5 7 12.5 9t15.5 2t15.5 -2t13.5 -9q7 -7 11 -16q3 -5 3.5 -12.5t0.5 -15.5t-0.5 -15t-3.5 -14q-2 -4 -5 -8t-6 -7z" />
    <glyph glyph-name="grave" unicode="`" horiz-adv-x="227" 
d="M159 499q-9 0 -18 3t-16 10q-11 11 -21 22.5l-21 23.5q-11 14 -23 27.5t-26 27.5q-15 14 -15.5 34.5t13.5 35.5q15 15 35.5 15t35.5 -14q17 -16 30.5 -31.5l25.5 -29.5l18.5 -21t16.5 -18q15 -14 15 -34.5t-14 -35.5t-36 -15z" />
    <glyph glyph-name="acute" unicode="&#xb4;" horiz-adv-x="228" 
d="M69 499q-10 0 -19.5 3.5t-16.5 11.5q-14 15 -14 35.5t15 34.5q8 8 16.5 18l18.5 21l25.5 29.5t30.5 31.5q15 14 35.5 14t35.5 -15q14 -15 13.5 -35.5t-15.5 -34.5q-14 -14 -26 -27.5t-23 -27.5l-21 -23.5t-21 -22.5q-7 -7 -16 -10t-18 -3z" />
    <glyph glyph-name="hungarumlaut" unicode="&#x2dd;" horiz-adv-x="456" 
d="M69 499q-10 0 -19.5 3.5t-16.5 11.5q-14 15 -14 35.5t15 34.5q8 8 16.5 18l18.5 21l25.5 29.5t30.5 31.5q15 14 35.5 14t35.5 -15q14 -15 13.5 -35.5t-15.5 -34.5q-14 -14 -26 -27.5t-23 -27.5l-21 -23.5t-21 -22.5q-7 -7 -16 -10t-18 -3zM297 499q-10 0 -19.5 3.5
t-16.5 11.5q-14 15 -14 35.5t15 34.5q8 8 16.5 18l18.5 21l25.5 29.5t30.5 31.5q15 14 35.5 14t35.5 -15q14 -15 13.5 -35.5t-15.5 -34.5q-14 -14 -26 -27.5t-23 -27.5l-21 -23.5t-21 -22.5q-7 -7 -16 -10t-18 -3z" />
    <glyph glyph-name="Zacute" unicode="&#x179;" horiz-adv-x="538" 
d="M236 -4q-23 0 -42.5 1.5t-36.5 5.5q-28 5 -47.5 14t-32 20.5t-19 24t-9.5 24.5q-10 37 15 92q8 17 19.5 38t27.5 46q29 45 64 93l70 96l41.5 56.5l36.5 50.5q2 2 2.5 4t2.5 4q-31 1 -89 -3q-24 -2 -45 -4t-38 -4q-19 -2 -35 -4q-27 -4 -48 12.5t-25 42.5q-4 27 12 48
t43 25q1 0 13 2t31.5 4l44.5 4.5t52 4.5q52 3 88.5 2.5t61 -4.5t39.5 -11.5t26 -16.5q28 -23 28 -60q0 -15 -6 -32t-21.5 -42.5t-42.5 -63l-68 -92.5l-61.5 -85.5l-56.5 -80.5q-19 -29 -30 -48t-16 -30q14 -2 41.5 -3.5t72.5 2.5q46 4 80 9.5t35 5.5q26 4 48 -11t27 -41
t-10 -48.5t-42 -27.5q-1 0 -14.5 -2.5t-35.5 -5.5t-50 -6t-58 -4q-11 -1 -21.5 -1.5t-21.5 -0.5zM223 706q-10 0 -19.5 3.5t-16.5 11.5q-14 15 -14 35.5t15 34.5q8 8 16.5 18l18.5 21l25.5 29.5t30.5 31.5q15 14 35.5 14t35.5 -15q14 -15 13.5 -35.5t-15.5 -34.5
q-14 -14 -26 -27.5t-23 -27.5l-21 -23.5t-21 -22.5q-7 -7 -16 -10t-18 -3z" />
    <glyph glyph-name="Sacute" unicode="&#x15a;" horiz-adv-x="522" 
d="M249 -1q-26 0 -50.5 4t-47.5 12q-38 12 -64 35q-34 30 -42 72q-5 26 10 48.5t42 27.5q26 5 47.5 -9.5t27.5 -39.5q3 -3 14.5 -9t34.5 -9t47 -1t43 10q27 11 32.5 25.5t3.5 28.5q-2 15 -8.5 26t-19.5 20t-33 17.5t-48 18.5q-31 11 -61.5 23.5t-57.5 33.5q-70 52 -76 145
q-4 57 22 107q25 44 68 72q54 36 128 42q35 2 68 -4.5t61 -20.5q42 -22 65.5 -58t25.5 -81q2 -27 -16.5 -46.5t-45.5 -21.5q-27 -1 -46.5 17.5t-20.5 45.5q-1 5 -3.5 12.5t-17.5 15.5q-13 7 -29.5 9.5t-34 1t-34 -6.5t-29.5 -14q-23 -15 -28 -32t-4 -29q1 -17 6.5 -28.5
t18 -21.5t33 -19t51.5 -20q29 -10 59 -22t56 -31q69 -50 80 -135q6 -44 -8 -84q-14 -38 -43 -65q-47 -46 -127 -58q-12 -2 -24.5 -3t-24.5 -1zM215 708q-10 0 -19.5 3.5t-16.5 11.5q-14 15 -14 35.5t15 34.5q8 8 16.5 18l18.5 21l25.5 29.5t30.5 31.5q15 14 35.5 14
t35.5 -15q14 -15 13.5 -35.5t-15.5 -34.5q-14 -14 -26 -27.5t-23 -27.5l-21 -23.5t-21 -22.5q-7 -7 -16 -10t-18 -3z" />
    <glyph glyph-name="sacute" unicode="&#x15b;" horiz-adv-x="587" 
d="M291 0q-52 0 -102 14q-55 15 -93.5 44t-56.5 69q-11 25 -1.5 50t34.5 36t50 1.5t36 -34.5q6 -13 24.5 -24t45 -18t57.5 -8t62 6q6 1 17.5 4.5t23 9.5t19.5 14.5t8 20.5q0 3 -2.5 10t-19.5 18q-18 12 -44 23t-55 22l-79 33t-73 43q-89 67 -86 173q5 89 67 141
q53 43 131 51q44 5 89.5 -2.5t87.5 -24.5q50 -21 81 -52t40 -69q7 -26 -7.5 -49t-40.5 -30q-26 -6 -48.5 8t-29.5 40q-2 5 -14.5 15t-38.5 20q-28 11 -58.5 14.5t-56.5 -1.5q-26 -4 -40.5 -12.5t-21.5 -18t-8.5 -19.5t-1.5 -16q-1 -20 7 -35t27 -29q23 -17 55.5 -31
l65.5 -28l65.5 -26.5t59.5 -32.5q77 -52 79 -132q2 -74 -55 -124q-45 -39 -114 -54q-20 -5 -41.5 -7.5t-43.5 -2.5zM227 708q-10 0 -19.5 3.5t-16.5 11.5q-14 15 -14 35.5t15 34.5q8 8 16.5 18l18.5 21l25.5 29.5t30.5 31.5q15 14 35.5 14t35.5 -15q14 -15 13.5 -35.5
t-15.5 -34.5q-14 -14 -26 -27.5t-23 -27.5l-21 -23.5t-21 -22.5q-7 -7 -16 -10t-18 -3z" />
    <glyph glyph-name="Zdotaccent" unicode="&#x17b;" horiz-adv-x="538" 
d="M236 -4q-23 0 -42.5 1.5t-36.5 5.5q-28 5 -47.5 14t-32 20.5t-19 24t-9.5 24.5q-10 37 15 92q8 17 19.5 38t27.5 46q29 45 64 93l70 96l41.5 56.5l36.5 50.5q2 2 2.5 4t2.5 4q-31 1 -89 -3q-24 -2 -45 -4t-38 -4q-19 -2 -35 -4q-27 -4 -48 12.5t-25 42.5q-4 27 12 48
t43 25q1 0 13 2t31.5 4l44.5 4.5t52 4.5q52 3 88.5 2.5t61 -4.5t39.5 -11.5t26 -16.5q28 -23 28 -60q0 -15 -6 -32t-21.5 -42.5t-42.5 -63l-68 -92.5l-61.5 -85.5l-56.5 -80.5q-19 -29 -30 -48t-16 -30q14 -2 41.5 -3.5t72.5 2.5q46 4 80 9.5t35 5.5q26 4 48 -11t27 -41
t-10 -48.5t-42 -27.5q-1 0 -14.5 -2.5t-35.5 -5.5t-50 -6t-58 -4q-11 -1 -21.5 -1.5t-21.5 -0.5zM300 804q9 -9 9 -21q0 -13 -9 -20q-5 -5 -11 -8q-8 -4 -21 -4t-20 4q-7 3 -12 8q-8 7 -8 20t8 21q5 5 12 8q4 2 9.5 2.5t10.5 0.5q6 0 11 -0.5t10 -2.5q6 -3 11 -8z" />
    <glyph glyph-name="Racute" unicode="&#x154;" horiz-adv-x="579" 
d="M471 -2q-19 0 -35 10q-53 34 -90.5 61.5t-66 51t-50 44t-41.5 41.5q-2 -35 -2.5 -71.5t-2.5 -74.5q-1 -26 -20.5 -44.5t-46.5 -17.5t-45.5 21t-17.5 46q3 81 4.5 155t1.5 143t-1.5 134.5t-4.5 130.5q-1 27 17 46.5t44 21.5q81 5 150.5 -4.5t123.5 -33.5q55 -24 90 -60
q38 -41 44 -93q1 -14 -0.5 -33t-10.5 -41t-27.5 -45.5t-51.5 -46.5q-53 -37 -132 -61q16 -17 34.5 -34t42.5 -36.5t55.5 -41.5l73.5 -49q23 -14 28.5 -40t-9.5 -49q-9 -15 -23.5 -22.5t-30.5 -7.5zM186 567q3 -90 3 -183q69 14 108.5 30.5t59.5 30.5q17 12 27 24.5t9 21.5
t-14.5 22.5t-41.5 25.5q-62 26 -151 28zM218 710q-10 0 -19.5 3.5t-16.5 11.5q-14 15 -14 35.5t15 34.5q8 8 16.5 18l18.5 21l25.5 29.5t30.5 31.5q15 14 35.5 14t35.5 -15q14 -15 13.5 -35.5t-15.5 -34.5q-14 -14 -26 -27.5t-23 -27.5l-21 -23.5t-21 -22.5q-7 -7 -16 -10
t-18 -3z" />
    <glyph glyph-name="Aacute" unicode="&#xc1;" horiz-adv-x="650" 
d="M596 286q4 -44 6 -84t2 -70.5t-0.5 -49t-0.5 -19.5q-2 -26 -20.5 -44t-44.5 -18h-3q-27 2 -45 21.5t-17 46.5l0.5 13t0.5 34.5t-1 51t-3 62.5q-33 -2 -65 -3.5t-64 -1.5q-41 0 -80.5 1.5t-78.5 3.5q-5 -35 -7.5 -65.5t-3.5 -53t-1.5 -36l-0.5 -13.5q-1 -26 -20 -45
t-45 -19h-1q-27 1 -46 20.5t-18 45.5q0 2 1 28.5t4 68t10 94t19 107.5q29 137 78 216q22 37 47 60.5t49.5 36.5t47.5 18t43 5q81 0 140 -61q54 -57 85 -165q22 -80 33 -186zM205 359q63 -3 125 -4t126 4q-24 137 -72 188q-20 21 -46 21q-27 0 -48.5 -22t-38 -54t-28 -68
t-18.5 -65zM279 710q-10 0 -19.5 3.5t-16.5 11.5q-14 15 -14 35.5t15 34.5q8 8 16.5 18l18.5 21l25.5 29.5t30.5 31.5q15 14 35.5 14t35.5 -15q14 -15 13.5 -35.5t-15.5 -34.5q-14 -14 -26 -27.5t-23 -27.5l-21 -23.5t-21 -22.5q-7 -7 -16 -10t-18 -3z" />
    <glyph glyph-name="aacute" unicode="&#xe1;" horiz-adv-x="644" 
d="M605 69q2 -27 -15.5 -47.5t-44.5 -22.5h-5q-26 0 -44.5 17t-20.5 43q0 7 -1 11q-1 -2 -4 -5q-16 -17 -34.5 -29t-38.5 -21q-43 -16 -84 -16q-26 0 -50.5 5.5t-49.5 16.5q-24 11 -45.5 26.5t-40.5 35.5q-50 51 -74.5 120.5t-22.5 150.5q2 37 8 72t18 67q23 62 62 108
q39 47 90 72.5t105 25.5q82 0 144 -56q4 24 22.5 40t43.5 15q26 -1 45 -20.5t18 -46.5q-5 -158 2 -299.5t17 -262.5zM378 157q26 27 40 75.5t14 113.5q0 51 -9 92t-24.5 70.5t-37 45t-48.5 15.5q-26 0 -53 -15t-48.5 -43.5t-36 -69t-15.5 -91.5q-2 -54 13.5 -99.5
t46.5 -77.5q20 -21 44.5 -32.5t48.5 -11.5q38 0 65 28zM252 710q-10 0 -19.5 3.5t-16.5 11.5q-14 15 -14 35.5t15 34.5q8 8 16.5 18l18.5 21l25.5 29.5t30.5 31.5q15 14 35.5 14t35.5 -15q14 -15 13.5 -35.5t-15.5 -34.5q-14 -14 -26 -27.5t-23 -27.5l-21 -23.5t-21 -22.5
q-7 -7 -16 -10t-18 -3z" />
    <glyph glyph-name="Cacute" unicode="&#x106;" horiz-adv-x="597" 
d="M312 -2q-19 0 -38 3q-51 7 -93.5 31t-73.5 65q-69 89 -67 243q2 173 73 265q34 44 82 69q43 21 93 24q40 2 79.5 -7.5t74.5 -29.5q39 -23 62.5 -53.5t27.5 -63.5q3 -27 -13.5 -48t-43.5 -24q-26 -4 -46.5 12t-25.5 42q-2 4 -12 13t-28 17q-21 9 -42.5 11.5t-41.5 -1.5
q-35 -7 -56.5 -33t-33 -59.5t-15.5 -70t-4 -65.5q-2 -107 40 -162q31 -40 81 -46q24 -3 49 1t48 15q20 10 30 20.5t12 17.5q7 26 30 40t49 7t40 -30t7 -49q-10 -40 -43 -74q-14 -14 -30.5 -26t-36.5 -22q-64 -32 -134 -32zM253 715q-10 0 -19.5 3.5t-16.5 11.5
q-14 15 -14 35.5t15 34.5q8 8 16.5 18l18.5 21l25.5 29.5t30.5 31.5q15 14 35.5 14t35.5 -15q14 -15 13.5 -35.5t-15.5 -34.5q-14 -14 -26 -27.5t-23 -27.5l-21 -23.5t-21 -22.5q-7 -7 -16 -10t-18 -3z" />
    <glyph glyph-name="cacute" unicode="&#x107;" horiz-adv-x="577" 
d="M282 -2q-39 0 -75 12q-42 13 -76 41t-57 69q-47 86 -43 215q5 152 69 248q30 45 71.5 73.5t89.5 37.5q37 8 74.5 1.5t70.5 -24.5q69 -38 101 -113q11 -25 0.5 -49.5t-35.5 -35.5t-49.5 -1t-35.5 35q-14 33 -42 49.5t-60 10.5q-45 -9 -77 -56q-22 -32 -34 -77.5
t-14 -102.5q-1 -24 1.5 -54t11.5 -59t26 -52.5t47 -32.5q22 -7 48 -4.5t51 13t47 27.5t37 39q14 23 40.5 28t49.5 -9q22 -15 27.5 -41.5t-9.5 -48.5q-26 -38 -63 -68.5t-82 -48.5q-27 -11 -55 -16.5t-55 -5.5zM236 710q-10 0 -19.5 3.5t-16.5 11.5q-14 15 -14 35.5t15 34.5
q8 8 16.5 18l18.5 21l25.5 29.5t30.5 31.5q15 14 35.5 14t35.5 -15q14 -15 13.5 -35.5t-15.5 -34.5q-14 -14 -26 -27.5t-23 -27.5l-21 -23.5t-21 -22.5q-7 -7 -16 -10t-18 -3z" />
    <glyph glyph-name="Eacute" unicode="&#xc9;" horiz-adv-x="604" 
d="M343 568q-70 3 -104 -1t-46 -8q-3 -28 -6.5 -75.5t-5.5 -102.5q69 -2 137 0t134 10q26 3 47 -14t24 -44t-14 -48t-43 -23q-107 -12 -218 -12h-34t-34 1q2 -51 5.5 -78.5t5.5 -38.5q14 -2 48.5 -4t101.5 1q27 1 51 2.5t43 3t30.5 2.5l11.5 1q26 3 47 -14t24 -44
q3 -26 -14 -47t-44 -24q-1 0 -14 -1l-34 -2.5l-48 -3.5t-56 -3q-18 -1 -34.5 -1.5t-32.5 -0.5q-14 0 -27 0.5t-25 0.5q-74 4 -105 24q-30 19 -45 64q-4 13 -7 29t-6 36q-3 32 -5 72t-1 90q0 43 2 86.5t4.5 81t5 67t5.5 45.5q3 22 16 40t33 31q13 8 28 13.5t35 9.5q26 5 60 8
t76 2q34 0 66 -2t57.5 -4.5t41 -4.5t17.5 -2q27 -4 43.5 -25t12.5 -48q-3 -26 -24.5 -42.5t-48.5 -13.5l-11.5 1.5t-30.5 3.5t-43.5 3.5t-51.5 2.5zM249 710q-10 0 -19.5 3.5t-16.5 11.5q-14 15 -14 35.5t15 34.5q8 8 16.5 18l18.5 21l25.5 29.5t30.5 31.5q15 14 35.5 14
t35.5 -15q14 -15 13.5 -35.5t-15.5 -34.5q-14 -14 -26 -27.5t-23 -27.5l-21 -23.5t-21 -22.5q-7 -7 -16 -10t-18 -3z" />
    <glyph glyph-name="Iacute" unicode="&#xcd;" horiz-adv-x="577" 
d="M459 136q26 0 45 -19t19 -45q1 -27 -18 -46.5t-45 -19.5q-26 -1 -50 -1.5t-48 -2.5q-29 -2 -56.5 -3t-55.5 -1q-37 0 -74.5 3t-75.5 12q-26 5 -40.5 28t-9.5 49q6 26 29 40.5t49 9.5q20 -5 39 -7l39 -4q3 87 2.5 166.5t-2.5 162.5q0 25 -0.5 50t-0.5 51q-4 0 -7.5 0.5
t-7.5 0.5q-19 1 -37 1.5t-36 1.5q-27 0 -45.5 19.5t-17.5 46.5q0 27 19.5 45.5t46.5 18.5q19 -1 37.5 -1.5t38.5 -1.5q60 -3 122.5 -3.5t131.5 10.5q27 5 48.5 -11t26.5 -43q4 -26 -11.5 -48t-42.5 -26q-36 -6 -70 -8.5t-66 -3.5q0 -25 0.5 -49t0.5 -48q2 -79 2.5 -160
t-2.5 -169h10t10 1l49.5 2l51.5 2h2zM230 710q-10 0 -19.5 3.5t-16.5 11.5q-14 15 -14 35.5t15 34.5q8 8 16.5 18l18.5 21l25.5 29.5t30.5 31.5q15 14 35.5 14t35.5 -15q14 -15 13.5 -35.5t-15.5 -34.5q-14 -14 -26 -27.5t-23 -27.5l-21 -23.5t-21 -22.5q-7 -7 -16 -10
t-18 -3z" />
    <glyph glyph-name="Nacute" unicode="&#x143;" horiz-adv-x="571" 
d="M127 -2q-26 0 -44.5 17.5t-20.5 43.5q0 1 -1.5 25.5t-3 64.5t-3 90.5t-1.5 103.5q-1 63 0.5 113t4.5 87q5 50 13 77q6 21 15 36q14 22 31 28.5t28 7.5q18 1 32.5 -5t25.5 -15t18 -18.5t10 -14.5l18 -32t21 -42q19 -43 40 -96l42 -107l18 -45.5l17 -43.5q1 24 1 53.5
t1 64.5q0 46 -1 89t-1.5 76.5t-1.5 53.5t-1 21q-1 26 17.5 46t45.5 21t46.5 -17.5t20.5 -45.5l1 -23t1.5 -60.5t1 -85t0.5 -98.5q0 -120 -6 -195q-5 -64 -14.5 -97t-28.5 -50q-25 -22 -58 -19q-27 3 -43.5 20.5t-27.5 34.5q-15 24 -34 68q-17 38 -36 85.5l-39 99.5l-24 62
l-24 60q-1 -52 0 -130l2 -90t2.5 -76t3 -53.5l1.5 -20.5q2 -27 -16.5 -47t-45.5 -22h-3zM251 699q-10 0 -19.5 3.5t-16.5 11.5q-14 15 -14 35.5t15 34.5q8 8 16.5 18l18.5 21l25.5 29.5t30.5 31.5q15 14 35.5 14t35.5 -15q14 -15 13.5 -35.5t-15.5 -34.5q-14 -14 -26 -27.5
t-23 -27.5l-21 -23.5t-21 -22.5q-7 -7 -16 -10t-18 -3z" />
    <glyph glyph-name="Oacute" unicode="&#xd3;" horiz-adv-x="700" 
d="M362 0q-61 0 -115 22q-58 24 -102 67q-45 44 -73 107q-29 66 -32 142q-3 81 21 150q23 64 71 115q45 46 103 71.5t121 25.5q60 0 112.5 -22.5t93.5 -64.5q44 -46 68 -110.5t27 -142.5q2 -54 -6 -97.5t-21.5 -77t-30.5 -58.5t-33 -42q-40 -42 -92.5 -63.5t-111.5 -21.5z
M356 570q-36 0 -70 -15t-60 -42q-30 -31 -44 -74t-12 -95q2 -53 19.5 -93t44.5 -67t60.5 -40.5t67.5 -13.5q66 0 111 45q59 62 54 180q-2 59 -18 100t-40 66.5t-53.5 37t-59.5 11.5zM296 710q-10 0 -19.5 3.5t-16.5 11.5q-14 15 -14 35.5t15 34.5q8 8 16.5 18l18.5 21
l25.5 29.5t30.5 31.5q15 14 35.5 14t35.5 -15q14 -15 13.5 -35.5t-15.5 -34.5q-14 -14 -26 -27.5t-23 -27.5l-21 -23.5t-21 -22.5q-7 -7 -16 -10t-18 -3z" />
    <glyph glyph-name="Uacute" unicode="&#xda;" horiz-adv-x="602" 
d="M297 -1h-3q-94 2 -157 72q-33 38 -55 98q-10 27 -17 58.5t-11 66.5q-17 139 7 337q3 26 24 43t48 14q26 -4 43 -25t14 -47q-11 -93 -13 -169.5t6 -136.5q8 -68 23 -103t29 -50q22 -27 61 -28q35 0 61 29q14 17 31.5 52.5t28.5 104.5q10 64 9.5 141.5t-11.5 170.5
q-3 26 13.5 47.5t43.5 24.5t48 -13.5t24 -43.5q12 -101 12 -188t-11 -159q-23 -149 -92 -224q-64 -72 -156 -72zM255 699q-10 0 -19.5 3.5t-16.5 11.5q-14 15 -14 35.5t15 34.5q8 8 16.5 18l18.5 21l25.5 29.5t30.5 31.5q15 14 35.5 14t35.5 -15q14 -15 13.5 -35.5
t-15.5 -34.5q-14 -14 -26 -27.5t-23 -27.5l-21 -23.5t-21 -22.5q-7 -7 -16 -10t-18 -3z" />
    <glyph glyph-name="Yacute" unicode="&#xdd;" horiz-adv-x="532" 
d="M463 694q25 -11 35.5 -35.5t0.5 -49.5l-31 -78.5t-25 -69.5l-20.5 -63l-18.5 -59l-21.5 -68t-23.5 -70.5t-29 -77t-37 -86.5q-8 -18 -24 -28.5t-35 -10.5q-14 0 -26 6q-25 11 -34.5 36t1.5 50l31 73t25 65l-49 78t-54.5 93.5t-52 101.5t-41.5 100q-9 26 2.5 50t37.5 33
q26 8 50 -3.5t33 -37.5q21 -61 56 -128t71 -126l39 121.5t55 147.5q11 25 35.5 35.5t49.5 0.5zM225 699q-10 0 -19.5 3.5t-16.5 11.5q-14 15 -14 35.5t15 34.5q8 8 16.5 18l18.5 21l25.5 29.5t30.5 31.5q15 14 35.5 14t35.5 -15q14 -15 13.5 -35.5t-15.5 -34.5
q-14 -14 -26 -27.5t-23 -27.5l-21 -23.5t-21 -22.5q-7 -7 -16 -10t-18 -3z" />
    <glyph glyph-name="eacute" unicode="&#xe9;" horiz-adv-x="575" 
d="M303 -1q-48 0 -91 15q-90 32 -137 120q-51 92 -42 232q5 74 25.5 135.5t56.5 106.5q34 43 81 68q49 24 99 23q51 -2 96 -27q46 -28 77 -73q33 -46 50 -109t19 -138q0 -28 -21 -49q-22 -19 -50 -17q-54 5 -107.5 2.5t-110.5 -6.5q-20 -2 -41 -3l-42 -2q6 -48 24 -81
q22 -43 66 -59q46 -15 98 0q23 6 41 17.5t28 25.5q15 22 41.5 26.5t48.5 -11.5q22 -15 26.5 -41.5t-10.5 -48.5q-23 -32 -58.5 -55.5t-79.5 -37.5q-22 -6 -43.5 -9.5t-43.5 -3.5zM290 569q-40 0 -73 -42q-14 -17 -27.5 -45.5t-21.5 -74.5l35 2t36 3q40 2 80 4.5t82 2.5
q-6 39 -17 64.5t-22 41.5q-31 44 -71 44h-1zM236 710q-10 0 -19.5 3.5t-16.5 11.5q-14 15 -14 35.5t15 34.5q8 8 16.5 18l18.5 21l25.5 29.5t30.5 31.5q15 14 35.5 14t35.5 -15q14 -15 13.5 -35.5t-15.5 -34.5q-14 -14 -26 -27.5t-23 -27.5l-21 -23.5t-21 -22.5
q-7 -7 -16 -10t-18 -3z" />
    <glyph glyph-name="iacute" unicode="&#xed;" horiz-adv-x="251" 
d="M159 439q10 -60 8.5 -120t-4.5 -115q-2 -38 -3 -73t3 -58q4 -27 -12 -48.5t-43 -25.5q-3 -1 -10 -1q-23 0 -41.5 15.5t-22.5 39.5q-5 34 -4 74t4 84q2 50 3 103.5t-7 103.5q-4 26 12 48t42 27q26 4 48 -12t27 -42zM92 516q-10 0 -19.5 3.5t-16.5 11.5q-14 15 -14 35.5
t15 34.5q8 8 16.5 18l18.5 21l25.5 29.5t30.5 31.5q15 14 35.5 14t35.5 -15q14 -15 13.5 -35.5t-15.5 -34.5q-14 -14 -26 -27.5t-23 -27.5l-21 -23.5t-21 -22.5q-7 -7 -16 -10t-18 -3z" />
    <glyph glyph-name="nacute" unicode="&#x144;" 
d="M138 0h-1q-26 1 -44 18t-20 43l-37 559q-2 27 16 47t45 22t47 -16t22 -45l6 -89q9 22 19 41q27 53 59 82q29 26 55.5 32.5t46.5 5.5q19 -2 44 -11.5t51 -37.5q30 -33 50 -85q32 -79 47 -210q7 -53 10 -104t4 -90.5t1 -65v-27.5q-1 -26 -19.5 -45t-45.5 -19q-1 0 -1 1
q-27 0 -45.5 19.5t-18.5 46.5v23.5t-1 61.5t-4 86.5t-9 98.5q-14 115 -39 177q-12 29 -21 39.5t-12 11.5q-2 -1 -11 -9t-23 -34.5t-31 -75t-35 -130.5q-11 -49 -18.5 -96t-12.5 -84t-7.5 -59.5l-2.5 -22.5q-2 -25 -20.5 -42t-43.5 -17zM295 710q-10 0 -19.5 3.5t-16.5 11.5
q-14 15 -14 35.5t15 34.5q8 8 16.5 18l18.5 21l25.5 29.5t30.5 31.5q15 14 35.5 14t35.5 -15q14 -15 13.5 -35.5t-15.5 -34.5q-14 -14 -26 -27.5t-23 -27.5l-21 -23.5t-21 -22.5q-7 -7 -16 -10t-18 -3z" />
    <glyph glyph-name="oacute" unicode="&#xf3;" horiz-adv-x="689" 
d="M362 -1q-61 0 -118 22q-29 12 -55 28.5t-49 38.5q-48 45 -77 107q-30 64 -33 142q-2 39 3.5 75.5t17.5 71.5q25 65 71 113q46 49 106.5 75t126.5 26q60 0 112.5 -22t93.5 -64q44 -47 67 -108q12 -32 19 -68.5t8 -77.5q2 -54 -5.5 -97.5t-21 -77.5t-30.5 -58.5t-33 -41.5
q-39 -41 -91 -62.5t-112 -21.5zM355 569q-38 0 -74.5 -16t-64.5 -45q-21 -23 -40 -62.5t-17 -102.5q3 -52 22 -92t47.5 -67.5t63.5 -41.5t70 -14q67 0 110 45q29 29 42.5 75t11.5 106q-2 59 -18 100t-40 66.5t-53.5 37t-59.5 11.5zM301 710q-10 0 -19.5 3.5t-16.5 11.5
q-14 15 -14 35.5t15 34.5q8 8 16.5 18l18.5 21l25.5 29.5t30.5 31.5q15 14 35.5 14t35.5 -15q14 -15 13.5 -35.5t-15.5 -34.5q-14 -14 -26 -27.5t-23 -27.5l-21 -23.5t-21 -22.5q-7 -7 -16 -10t-18 -3z" />
    <glyph glyph-name="uacute" unicode="&#xfa;" 
d="M455 701h1q26 -1 44 -18t20 -43l37 -559q2 -27 -16 -47t-45 -22t-47 16t-22 45l-6 89q-9 -22 -19 -41q-27 -53 -59 -82q-29 -26 -55.5 -32.5t-46.5 -5.5q-19 2 -44 11.5t-51 37.5q-30 33 -50 85q-32 79 -47 210q-7 53 -10 104t-4 90.5t-1 65v27.5q1 26 19.5 45t45.5 19
q1 0 1 -1q27 0 45.5 -19.5t18.5 -46.5v-23.5t1 -61.5t4 -86.5t9 -98.5q14 -115 39 -177q12 -29 21 -39.5t12 -11.5q1 1 10.5 9t23.5 34.5t31 75t35 130.5q11 49 18.5 96t12.5 83.5t7.5 59.5l2.5 23q2 25 20.5 42t43.5 17zM222 710q-10 0 -19.5 3.5t-16.5 11.5
q-14 15 -14 35.5t15 34.5q8 8 16.5 18l18.5 21l25.5 29.5t30.5 31.5q15 14 35.5 14t35.5 -15q14 -15 13.5 -35.5t-15.5 -34.5q-14 -14 -26 -27.5t-23 -27.5l-21 -23.5t-21 -22.5q-7 -7 -16 -10t-18 -3z" />
    <glyph glyph-name="Ohungarumlaut" unicode="&#x150;" horiz-adv-x="700" 
d="M362 0q-61 0 -115 22q-58 24 -102 67q-45 44 -73 107q-29 66 -32 142q-3 81 21 150q23 64 71 115q45 46 103 71.5t121 25.5q60 0 112.5 -22.5t93.5 -64.5q44 -46 68 -110.5t27 -142.5q2 -54 -6 -97.5t-21.5 -77t-30.5 -58.5t-33 -42q-40 -42 -92.5 -63.5t-111.5 -21.5z
M356 570q-36 0 -70 -15t-60 -42q-30 -31 -44 -74t-12 -95q2 -53 19.5 -93t44.5 -67t60.5 -40.5t67.5 -13.5q66 0 111 45q59 62 54 180q-2 59 -18 100t-40 66.5t-53.5 37t-59.5 11.5zM190 708q-10 0 -19.5 3.5t-16.5 11.5q-14 15 -14 35.5t15 34.5q8 8 16.5 18l18.5 21
l25.5 29.5t30.5 31.5q15 14 35.5 14t35.5 -15q14 -15 13.5 -35.5t-15.5 -34.5q-14 -14 -26 -27.5t-23 -27.5l-21 -23.5t-21 -22.5q-7 -7 -16 -10t-18 -3zM418 708q-10 0 -19.5 3.5t-16.5 11.5q-14 15 -14 35.5t15 34.5q8 8 16.5 18l18.5 21l25.5 29.5t30.5 31.5
q15 14 35.5 14t35.5 -15q14 -15 13.5 -35.5t-15.5 -34.5q-14 -14 -26 -27.5t-23 -27.5l-21 -23.5t-21 -22.5q-7 -7 -16 -10t-18 -3z" />
    <glyph glyph-name="ohungarumlaut" unicode="&#x151;" horiz-adv-x="689" 
d="M362 -1q-61 0 -118 22q-29 12 -55 28.5t-49 38.5q-48 45 -77 107q-30 64 -33 142q-2 39 3.5 75.5t17.5 71.5q25 65 71 113q46 49 106.5 75t126.5 26q60 0 112.5 -22t93.5 -64q44 -47 67 -108q12 -32 19 -68.5t8 -77.5q2 -54 -5.5 -97.5t-21 -77.5t-30.5 -58.5t-33 -41.5
q-39 -41 -91 -62.5t-112 -21.5zM355 569q-38 0 -74.5 -16t-64.5 -45q-21 -23 -40 -62.5t-17 -102.5q3 -52 22 -92t47.5 -67.5t63.5 -41.5t70 -14q67 0 110 45q29 29 42.5 75t11.5 106q-2 59 -18 100t-40 66.5t-53.5 37t-59.5 11.5zM190 708q-10 0 -19.5 3.5t-16.5 11.5
q-14 15 -14 35.5t15 34.5q8 8 16.5 18l18.5 21l25.5 29.5t30.5 31.5q15 14 35.5 14t35.5 -15q14 -15 13.5 -35.5t-15.5 -34.5q-14 -14 -26 -27.5t-23 -27.5l-21 -23.5t-21 -22.5q-7 -7 -16 -10t-18 -3zM418 708q-10 0 -19.5 3.5t-16.5 11.5q-14 15 -14 35.5t15 34.5
q8 8 16.5 18l18.5 21l25.5 29.5t30.5 31.5q15 14 35.5 14t35.5 -15q14 -15 13.5 -35.5t-15.5 -34.5q-14 -14 -26 -27.5t-23 -27.5l-21 -23.5t-21 -22.5q-7 -7 -16 -10t-18 -3z" />
    <glyph glyph-name="Uhungarumlaut" unicode="&#x170;" horiz-adv-x="602" 
d="M297 -1h-3q-94 2 -157 72q-33 38 -55 98q-10 27 -17 58.5t-11 66.5q-17 139 7 337q3 26 24 43t48 14q26 -4 43 -25t14 -47q-11 -93 -13 -169.5t6 -136.5q8 -68 23 -103t29 -50q22 -27 61 -28q35 0 61 29q14 17 31.5 52.5t28.5 104.5q10 64 9.5 141.5t-11.5 170.5
q-3 26 13.5 47.5t43.5 24.5t48 -13.5t24 -43.5q12 -101 12 -188t-11 -159q-23 -149 -92 -224q-64 -72 -156 -72zM369 699q-10 0 -19.5 3.5t-16.5 11.5q-14 15 -14 35.5t15 34.5q8 8 16.5 18l18.5 21l25.5 29.5t30.5 31.5q15 14 35.5 14t35.5 -15q14 -15 13.5 -35.5
t-15.5 -34.5q-14 -14 -26 -27.5t-23 -27.5l-21 -23.5t-21 -22.5q-7 -7 -16 -10t-18 -3zM141 699q-10 0 -19.5 3.5t-16.5 11.5q-14 15 -14 35.5t15 34.5q8 8 16.5 18l18.5 21l25.5 29.5t30.5 31.5q15 14 35.5 14t35.5 -15q14 -15 13.5 -35.5t-15.5 -34.5q-14 -14 -26 -27.5
t-23 -27.5l-21 -23.5t-21 -22.5q-7 -7 -16 -10t-18 -3z" />
    <glyph glyph-name="uhungarumlaut" unicode="&#x171;" 
d="M455 701h1q26 -1 44 -18t20 -43l37 -559q2 -27 -16 -47t-45 -22t-47 16t-22 45l-6 89q-9 -22 -19 -41q-27 -53 -59 -82q-29 -26 -55.5 -32.5t-46.5 -5.5q-19 2 -44 11.5t-51 37.5q-30 33 -50 85q-32 79 -47 210q-7 53 -10 104t-4 90.5t-1 65v27.5q1 26 19.5 45t45.5 19
q1 0 1 -1q27 0 45.5 -19.5t18.5 -46.5v-23.5t1 -61.5t4 -86.5t9 -98.5q14 -115 39 -177q12 -29 21 -39.5t12 -11.5q1 1 10.5 9t23.5 34.5t31 75t35 130.5q11 49 18.5 96t12.5 83.5t7.5 59.5l2.5 23q2 25 20.5 42t43.5 17zM346 711q-10 0 -19.5 3.5t-16.5 11.5
q-14 15 -14 35.5t15 34.5q8 8 16.5 18l18.5 21l25.5 29.5t30.5 31.5q15 14 35.5 14t35.5 -15q14 -15 13.5 -35.5t-15.5 -34.5q-14 -14 -26 -27.5t-23 -27.5l-21 -23.5t-21 -22.5q-7 -7 -16 -10t-18 -3zM118 711q-10 0 -19.5 3.5t-16.5 11.5q-14 15 -14 35.5t15 34.5
q8 8 16.5 18l18.5 21l25.5 29.5t30.5 31.5q15 14 35.5 14t35.5 -15q14 -15 13.5 -35.5t-15.5 -34.5q-14 -14 -26 -27.5t-23 -27.5l-21 -23.5t-21 -22.5q-7 -7 -16 -10t-18 -3z" />
    <glyph glyph-name="lacute" unicode="&#x13a;" horiz-adv-x="209" 
d="M108 -1q-25 0 -43.5 16.5t-20.5 42.5q-9 87 -8.5 167t2.5 165q2 69 3.5 140.5t-3.5 149.5q-2 27 16 47t45 22t47 -16.5t22 -44.5q5 -82 3.5 -156t-3.5 -146q-2 -81 -2.5 -158t7.5 -158q2 -26 -15 -47t-43 -24h-7zM106 770q-10 0 -19.5 3.5t-16.5 11.5q-14 15 -14 35.5
t15 34.5q8 8 16.5 18l18.5 21l25.5 29.5t30.5 31.5q15 14 35.5 14t35.5 -15q14 -15 13.5 -35.5t-15.5 -34.5q-14 -14 -26 -27.5t-23 -27.5l-21 -23.5t-21 -22.5q-7 -7 -16 -10t-18 -3z" />
    <glyph glyph-name="Lacute" unicode="&#x139;" horiz-adv-x="537" 
d="M287 -1q-40 0 -67 1.5t-44 3.5t-26.5 4t-13.5 3q-10 2 -23.5 10t-25.5 25q-11 15 -18 37q-5 16 -8.5 35.5t-5.5 44.5q-4 38 -4 88t2 112q1 52 4.5 101l6.5 87.5t5.5 63t2.5 26.5q2 26 23 43t48 15q27 -3 44 -24t14 -47q0 -1 -2 -20.5t-4.5 -52l-5.5 -75t-5 -87.5
q-2 -54 -3 -98t1 -79q2 -33 4 -53t4 -30q22 -3 55.5 -3.5t70.5 0t74 2t68 3.5q27 2 47 -16t22 -45t-16 -47t-44 -22q-1 0 -12 -0.5t-29 -1.5t-41 -2t-49 -1q-14 -1 -26 -1h-23zM223 699q-10 0 -19.5 3.5t-16.5 11.5q-14 15 -14 35.5t15 34.5q8 8 16.5 18l18.5 21l25.5 29.5
t30.5 31.5q15 14 35.5 14t35.5 -15q14 -15 13.5 -35.5t-15.5 -34.5q-14 -14 -26 -27.5t-23 -27.5l-21 -23.5t-21 -22.5q-7 -7 -16 -10t-18 -3z" />
    <glyph glyph-name="Wgrave" unicode="&#x1e80;" horiz-adv-x="774" 
d="M546 -1q-16 0 -37.5 9t-40.5 39q-9 16 -18 38.5t-19 56.5q-9 31 -19.5 73.5l-24.5 100.5q-10 -41 -19.5 -75.5t-19.5 -64.5q-11 -34 -21.5 -60t-20.5 -46q-10 -19 -26 -38.5t-42 -26.5q-33 -8 -61 11q-29 20 -46 73q-7 20 -13 46t-13 61q-14 71 -28.5 175.5t-30.5 244.5
q-3 26 14 47t44 24t48 -13.5t24 -43.5q14 -124 26.5 -219t24.5 -163l3 -15q2 5 2.5 8.5t2.5 8.5q22 72 44 170t45 220q4 23 22 38t41 15t41 -14.5t23 -37.5q29 -144 50.5 -241t37.5 -160q2 -8 3 -11l2 10.5l2 11.5q13 69 26 166t27 224q3 27 24 44t48 14t43.5 -24t14.5 -48
q-17 -152 -32.5 -261.5t-31.5 -183.5q-15 -72 -31 -110l-8 -16.5t-14 -22t-22 -21t-31 -12.5q-2 0 -5.5 -0.5t-7.5 -0.5zM439 708q-9 0 -18 3t-16 10q-11 11 -21 22.5l-21 23.5q-11 14 -23 27.5t-26 27.5q-15 14 -15.5 34.5t13.5 35.5q15 15 35.5 15t35.5 -14
q17 -16 30.5 -31.5l25.5 -29.5l18.5 -21t16.5 -18q15 -14 15 -34.5t-14 -35.5t-36 -15z" />
    <glyph glyph-name="Wacute" unicode="&#x1e82;" horiz-adv-x="774" 
d="M546 -1q-16 0 -37.5 9t-40.5 39q-9 16 -18 38.5t-19 56.5q-9 31 -19.5 73.5l-24.5 100.5q-10 -41 -19.5 -75.5t-19.5 -64.5q-11 -34 -21.5 -60t-20.5 -46q-10 -19 -26 -38.5t-42 -26.5q-33 -8 -61 11q-29 20 -46 73q-7 20 -13 46t-13 61q-14 71 -28.5 175.5t-30.5 244.5
q-3 26 14 47t44 24t48 -13.5t24 -43.5q14 -124 26.5 -219t24.5 -163l3 -15q2 5 2.5 8.5t2.5 8.5q22 72 44 170t45 220q4 23 22 38t41 15t41 -14.5t23 -37.5q29 -144 50.5 -241t37.5 -160q2 -8 3 -11l2 10.5l2 11.5q13 69 26 166t27 224q3 27 24 44t48 14t43.5 -24t14.5 -48
q-17 -152 -32.5 -261.5t-31.5 -183.5q-15 -72 -31 -110l-8 -16.5t-14 -22t-22 -21t-31 -12.5q-2 0 -5.5 -0.5t-7.5 -0.5zM341 711q-10 0 -19.5 3.5t-16.5 11.5q-14 15 -14 35.5t15 34.5q8 8 16.5 18l18.5 21l25.5 29.5t30.5 31.5q15 14 35.5 14t35.5 -15q14 -15 13.5 -35.5
t-15.5 -34.5q-14 -14 -26 -27.5t-23 -27.5l-21 -23.5t-21 -22.5q-7 -7 -16 -10t-18 -3z" />
    <glyph glyph-name="Ygrave" unicode="&#x1ef2;" horiz-adv-x="532" 
d="M463 694q-25 10 -49.5 -0.5t-35.5 -35.5q-34 -84 -55 -147.5l-39 -121.5q-36 59 -71 126t-56 128q-9 26 -33 37.5t-50 3.5q-26 -9 -37.5 -33t-2.5 -50q17 -48 41.5 -100t52 -101.5t54.5 -93.5l49 -78q-11 -31 -25 -65l-31 -73q-11 -25 -1.5 -50t34.5 -36q12 -6 26 -6
q19 0 35 10.5t24 28.5q21 46 37 86.5t29 77t23.5 70.5l21.5 68l18.5 59l20.5 63t25 69.5l31 78.5q10 25 -0.5 49.5t-35.5 35.5zM311 699q-9 0 -18 3t-16 10q-11 11 -21 22.5l-21 23.5q-11 14 -23 27.5t-26 27.5q-15 14 -15.5 34.5t13.5 35.5q15 15 35.5 15t35.5 -14
q17 -16 30.5 -31.5l25.5 -29.5l18.5 -21t16.5 -18q15 -14 15 -34.5t-14 -35.5t-36 -15z" />
    <glyph glyph-name="uni1E1E" unicode="&#x1e1e;" horiz-adv-x="569" 
d="M498 686q27 -3 43.5 -24t13.5 -48q-2 -26 -23 -43t-48 -14l-12.5 1t-32.5 3t-46.5 3.5t-55.5 3.5q-65 3 -100.5 1t-52.5 -4q-1 -29 0 -76l2 -96q54 -3 102 -2.5t103 2.5q17 1 34 1.5t36 1.5q27 0 46 -18.5t20 -45.5t-17.5 -46t-45.5 -20q-18 -1 -35 -1.5t-34 -0.5
q-66 -3 -127 -3h-38.5t-40.5 1q1 -32 1.5 -61t1.5 -54v-60q-1 -18 -3.5 -35.5t-16.5 -32.5q-21 -19 -47 -19q-27 0 -46 19t-19 45q0 5 0.5 8.5t1.5 8.5v37t-1 59.5t-1.5 71t-1.5 70.5q-3 121 -4 194t2 96q2 14 12.5 35t43.5 35q24 10 60 15q26 4 60.5 5t77.5 0q35 -1 68 -3
t59.5 -4.5l42.5 -4t18 -1.5zM316 804q9 -9 9 -21q0 -13 -9 -20q-5 -5 -11 -8q-8 -4 -21 -4t-20 4q-7 3 -12 8q-8 7 -8 20t8 21q5 5 12 8q4 2 9.5 2.5t10.5 0.5q6 0 11 -0.5t10 -2.5q6 -3 11 -8z" />
    <glyph glyph-name="uni1E1F" unicode="&#x1e1f;" horiz-adv-x="573" 
d="M488 381q-26 2 -44.5 22t-16.5 47q4 71 -23.5 115.5t-80.5 52.5q-21 3 -43 -1t-42 -15.5t-35.5 -31t-22.5 -47.5q-10 -39 -11.5 -89.5t0.5 -107.5q90 -2 166.5 1t147.5 11q27 3 48 -13.5t24 -43.5q4 -27 -13 -48t-43 -24q-59 -7 -120.5 -10.5t-130.5 -3.5h-36.5t-37.5 1
q1 -33 1.5 -66.5t-1.5 -67.5q-2 -26 -20.5 -44t-44.5 -18h-3q-27 1 -45 20.5t-17 46.5q2 48 0.5 96.5t-3.5 96.5q-3 81 -3 156.5t17 139.5q14 53 43 92q15 19 32.5 35t37.5 28q40 24 85 33.5t90 1.5q48 -8 88 -31.5t69 -61.5q32 -41 46 -94t11 -116q-2 -26 -20.5 -44
t-44.5 -18h-4zM327 825q9 -9 9 -21q0 -13 -9 -20q-5 -5 -11 -8q-8 -4 -21 -4t-20 4q-7 3 -12 8q-8 7 -8 20t8 21q5 5 12 8q4 2 9.5 2.5t10.5 0.5q6 0 11 -0.5t10 -2.5q6 -3 11 -8z" />
    <glyph glyph-name="Gdotaccent" unicode="&#x120;" horiz-adv-x="650" 
d="M630 290q3 -27 -14 -48t-44 -24q-14 -2 -27.5 -3t-26.5 -1q-5 -41 -26.5 -78.5t-56.5 -68.5q-37 -33 -80.5 -50.5t-87.5 -17.5h-5q-50 1 -91.5 24.5t-70.5 67.5q-58 89 -55 249q1 90 20 161q20 70 53 113q17 22 37.5 38.5t44.5 27.5q20 9 43 14t46 4q31 0 62 -8t58 -24
q25 -13 43 -32q18 -18 23.5 -35t5.5 -29q0 -27 -19 -46t-45 -19q-21 0 -37 12t-24 30q-6 4 -16.5 9t-23.5 8.5t-28 4t-30 -4.5q-31 -12 -50 -52q-31 -60 -33 -174q-2 -75 9.5 -116t24.5 -60q22 -33 56 -34q43 0 84 36q28 25 37 52q-10 1 -20 1t-20 1q-27 0 -46 19.5
t-18 46.5q1 26 20 44.5t45 18.5h1q16 0 30.5 -0.5t28.5 -1.5q35 -2 69.5 -2.5t81.5 4.5q27 3 48 -14t24 -43zM315 804q9 -9 9 -21q0 -13 -9 -20q-5 -5 -11 -8q-8 -4 -21 -4t-20 4q-7 3 -12 8q-8 7 -8 20t8 21q5 5 12 8q4 2 9.5 2.5t10.5 0.5q6 0 11 -0.5t10 -2.5q6 -3 11 -8
z" />
    <glyph glyph-name="gdotaccent" unicode="&#x121;" horiz-adv-x="629" 
d="M583 532q1 -48 3 -109.5t2.5 -129t-1 -137t-6.5 -133.5q-9 -110 -78 -185q-32 -33 -71.5 -55t-85.5 -30q-14 -2 -26.5 -3t-26.5 -1q-31 0 -61 6t-58 19q-88 41 -131 130q-11 25 -2.5 50.5t33.5 36.5q24 12 49.5 3t36.5 -34q13 -28 33 -45t42 -26t44.5 -10.5t42.5 2.5
q10 2 30.5 9t41.5 23.5t37.5 45.5t20.5 75q2 23 3 48l2 51q0 -2 -2 -2q-38 -40 -85.5 -61.5t-96.5 -21.5q-40 0 -77 14q-39 17 -68 46q-42 43 -63 110q-21 68 -20 154q3 152 64 237q30 44 72.5 66.5t92.5 22.5q48 0 93 -21.5t83 -60.5v3q0 4 0.5 6.5t0.5 5.5q2 18 12.5 32
t27.5 21q25 11 49.5 1t35.5 -35q7 -18 4 -38q0 -9 0.5 -32t2.5 -48zM361 221q28 29 42 68t12 84q-2 44 -15.5 81.5t-38.5 65.5q-20 23 -42.5 35.5t-44.5 12.5q-35 0 -59 -34q-14 -18 -26 -56.5t-14 -107.5q-1 -60 10.5 -103.5t34.5 -66.5t53 -23q22 0 45 12t43 32zM318 804
q9 -9 9 -21q0 -13 -9 -20q-5 -5 -11 -8q-8 -4 -21 -4t-20 4q-7 3 -12 8q-8 7 -8 20t8 21q5 5 12 8q4 2 9.5 2.5t10.5 0.5q6 0 11 -0.5t10 -2.5q6 -3 11 -8z" />
    <glyph glyph-name="uni1E40" unicode="&#x1e40;" horiz-adv-x="703" 
d="M119 -4q-26 0 -45 18.5t-19 45.5l-0.5 22.5t-1 59.5t-0.5 84.5t1 98.5q2 60 4.5 109t6.5 87q4 36 8.5 60.5t10 41.5t12 27.5t14.5 18.5q22 23 54 25q11 0 26.5 -4.5t31.5 -20.5q7 -6 12.5 -13.5t11.5 -17.5q16 -26 34 -74q28 -74 63 -201q4 -12 7 -24.5l6 -24.5
q4 12 7.5 24.5t8.5 24.5l35 112.5t30 86.5l16 40.5t14 30.5q7 15 15 28q20 28 49 34q34 6 60 -15q10 -8 17.5 -20t13 -29.5t9.5 -41.5t7 -57q4 -38 6 -87t4 -110q1 -51 1.5 -99.5t0.5 -86.5t-0.5 -61.5l-0.5 -23.5q0 -27 -19 -45.5t-46 -18.5h-1q-27 0 -45.5 19.5
t-18.5 46.5l0.5 20.5t0.5 54.5v77.5t-1 90.5q-1 44 -3 82l-13.5 -43.5l-15.5 -49.5l-28 -93.5l-23.5 -80.5l-16.5 -56.5t-6 -22.5q-6 -21 -23 -34t-40 -13h-1q-23 1 -40 15t-22 36l-4.5 21t-13 55.5l-19.5 78.5l-23 92q-11 42 -21 75l-18 60q-2 -26 -2.5 -57.5t-1.5 -69.5
q-1 -47 -1 -90v-76.5t0.5 -54l0.5 -20.5q1 -27 -17.5 -46.5t-45.5 -20.5h-2zM383 804q9 -9 9 -21q0 -13 -9 -20q-5 -5 -11 -8q-8 -4 -21 -4t-20 4q-7 3 -12 8q-8 7 -8 20t8 21q5 5 12 8q4 2 9.5 2.5t10.5 0.5q6 0 11 -0.5t10 -2.5q6 -3 11 -8z" />
    <glyph glyph-name="uni1E41" unicode="&#x1e41;" horiz-adv-x="837" 
d="M732 -1h-4q-27 2 -45 22t-16 47l1 20.5t1.5 53.5t0 76t-3.5 88q-6 106 -24 170q-9 36 -17.5 51t-12.5 20q-5 -4 -16 -18.5t-25 -50.5q-14 -33 -25 -76t-22 -97q-9 -47 -14.5 -90.5t-9.5 -78t-5.5 -55.5l-1.5 -21q-2 -26 -20.5 -43.5t-44.5 -17.5h-1q-26 1 -44.5 19.5
t-19.5 44.5l-0.5 20.5t-2.5 54.5t-5.5 77t-8.5 90q-11 103 -23.5 158.5t-22.5 81.5q-6 -12 -13 -31.5t-15 -48.5t-17 -69t-18 -92q-8 -47 -14 -91t-10 -78t-6 -55l-2 -21q-2 -26 -20.5 -43t-44.5 -17q-26 1 -44 18t-20 43l-38 570q-2 27 16 47t45 22t47 -16t22 -45l4 -62
q19 44 37 69q36 50 85 54q14 2 34.5 -2.5t42.5 -23.5q23 -21 40.5 -58t31.5 -96q1 -2 1 -3.5t1 -3.5l9.5 24t9.5 21q23 51 55 81q27 26 53 33.5t45 6.5q52 -2 92 -45q45 -49 67 -157q15 -76 21 -185q2 -45 2.5 -86.5t-0.5 -73t-2 -50.5t-1 -21q-2 -26 -20 -43.5t-44 -17.5z
M480 804q9 -9 9 -21q0 -13 -9 -20q-5 -5 -11 -8q-8 -4 -21 -4t-20 4q-7 3 -12 8q-8 7 -8 20t8 21q5 5 12 8q4 2 9.5 2.5t10.5 0.5q6 0 11 -0.5t10 -2.5q6 -3 11 -8z" />
    <glyph glyph-name="uni1E56" unicode="&#x1e56;" horiz-adv-x="576" 
d="M124 -2h-3q-27 2 -45.5 21.5t-16.5 46.5q5 136 3.5 282t-9.5 280q-2 26 16 46t44 22q88 7 164 -4.5t137 -40.5q60 -29 98 -71q21 -23 33 -49.5t16 -54.5q1 -15 -0.5 -37t-12 -47.5t-32.5 -53.5t-60 -55q-96 -68 -264 -100q-1 -31 -1.5 -61.5t-2.5 -60.5
q-1 -26 -19.5 -44.5t-44.5 -18.5zM186 568q6 -123 6 -252q75 16 120.5 36t68.5 37q26 18 39.5 37t11.5 35q-2 19 -21.5 38t-51.5 34q-70 33 -173 35zM319 804q9 -9 9 -21q0 -13 -9 -20q-5 -5 -11 -8q-8 -4 -21 -4t-20 4q-7 3 -12 8q-8 7 -8 20t8 21q5 5 12 8q4 2 9.5 2.5
t10.5 0.5q6 0 11 -0.5t10 -2.5q6 -3 11 -8z" />
    <glyph glyph-name="uni1E57" unicode="&#x1e57;" horiz-adv-x="612" 
d="M502 616q48 -50 73.5 -118t23.5 -148q-2 -74 -26 -140q-23 -62 -63 -110q-42 -48 -94 -74t-107 -26q-40 0 -80 16q-28 12 -50 30q-2 -70 -3.5 -131.5t-5.5 -107.5q-2 -26 -20.5 -43t-44.5 -17h-5q-27 2 -44.5 22.5t-15.5 47.5q3 44 5.5 105.5t3.5 132.5t0.5 148.5l-1 153
t-2 145.5t-2.5 128q-1 27 17.5 46.5t45.5 20.5q26 1 45 -16t21 -42q65 57 147 57q50 0 98 -21q46 -21 84 -59zM469 352q1 54 -14.5 98t-45.5 75q-41 41 -89 41q-46 0 -76 -42q-16 -20 -30.5 -62.5t-15.5 -116.5q-1 -66 12.5 -114.5t39.5 -74.5t59 -26q26 0 53 14.5t49 40.5
q27 32 42 74.5t16 92.5zM360 804q9 -9 9 -21q0 -13 -9 -20q-5 -5 -11 -8q-8 -4 -21 -4t-20 4q-7 3 -12 8q-8 7 -8 20t8 21q5 5 12 8q4 2 9.5 2.5t10.5 0.5q6 0 11 -0.5t10 -2.5q6 -3 11 -8z" />
    <glyph glyph-name="uni1E60" unicode="&#x1e60;" horiz-adv-x="522" 
d="M249 -1q-26 0 -50.5 4t-47.5 12q-38 12 -64 35q-34 30 -42 72q-5 26 10 48.5t42 27.5q26 5 47.5 -9.5t27.5 -39.5q3 -3 14.5 -9t34.5 -9t47 -1t43 10q27 11 32.5 25.5t3.5 28.5q-2 15 -8.5 26t-19.5 20t-33 17.5t-48 18.5q-31 11 -61.5 23.5t-57.5 33.5q-70 52 -76 145
q-4 57 22 107q25 44 68 72q54 36 128 42q35 2 68 -4.5t61 -20.5q42 -22 65.5 -58t25.5 -81q2 -27 -16.5 -46.5t-45.5 -21.5q-27 -1 -46.5 17.5t-20.5 45.5q-1 5 -3.5 12.5t-17.5 15.5q-13 7 -29.5 9.5t-34 1t-34 -6.5t-29.5 -14q-23 -15 -28 -32t-4 -29q1 -17 6.5 -28.5
t18 -21.5t33 -19t51.5 -20q29 -10 59 -22t56 -31q69 -50 80 -135q6 -44 -8 -84q-14 -38 -43 -65q-47 -46 -127 -58q-12 -2 -24.5 -3t-24.5 -1zM292 804q9 -9 9 -21q0 -13 -9 -20q-5 -5 -11 -8q-8 -4 -21 -4t-20 4q-7 3 -12 8q-8 7 -8 20t8 21q5 5 12 8q4 2 9.5 2.5t10.5 0.5
q6 0 11 -0.5t10 -2.5q6 -3 11 -8z" />
    <glyph glyph-name="uni1E61" unicode="&#x1e61;" horiz-adv-x="587" 
d="M291 0q-52 0 -102 14q-55 15 -93.5 44t-56.5 69q-11 25 -1.5 50t34.5 36t50 1.5t36 -34.5q6 -13 24.5 -24t45 -18t57.5 -8t62 6q6 1 17.5 4.5t23 9.5t19.5 14.5t8 20.5q0 3 -2.5 10t-19.5 18q-18 12 -44 23t-55 22l-79 33t-73 43q-89 67 -86 173q5 89 67 141
q53 43 131 51q44 5 89.5 -2.5t87.5 -24.5q50 -21 81 -52t40 -69q7 -26 -7.5 -49t-40.5 -30q-26 -6 -48.5 8t-29.5 40q-2 5 -14.5 15t-38.5 20q-28 11 -58.5 14.5t-56.5 -1.5q-26 -4 -40.5 -12.5t-21.5 -18t-8.5 -19.5t-1.5 -16q-1 -20 7 -35t27 -29q23 -17 55.5 -31
l65.5 -28l65.5 -26.5t59.5 -32.5q77 -52 79 -132q2 -74 -55 -124q-45 -39 -114 -54q-20 -5 -41.5 -7.5t-43.5 -2.5zM317 804q9 -9 9 -21q0 -13 -9 -20q-5 -5 -11 -8q-8 -4 -21 -4t-20 4q-7 3 -12 8q-8 7 -8 20t8 21q5 5 12 8q4 2 9.5 2.5t10.5 0.5q6 0 11 -0.5t10 -2.5
q6 -3 11 -8z" />
    <glyph glyph-name="Wdieresis" unicode="&#x1e84;" horiz-adv-x="774" 
d="M546 -1q-16 0 -37.5 9t-40.5 39q-9 16 -18 38.5t-19 56.5q-9 31 -19.5 73.5l-24.5 100.5q-10 -41 -19.5 -75.5t-19.5 -64.5q-11 -34 -21.5 -60t-20.5 -46q-10 -19 -26 -38.5t-42 -26.5q-33 -8 -61 11q-29 20 -46 73q-7 20 -13 46t-13 61q-14 71 -28.5 175.5t-30.5 244.5
q-3 26 14 47t44 24t48 -13.5t24 -43.5q14 -124 26.5 -219t24.5 -163l3 -15q2 5 2.5 8.5t2.5 8.5q22 72 44 170t45 220q4 23 22 38t41 15t41 -14.5t23 -37.5q29 -144 50.5 -241t37.5 -160q2 -8 3 -11l2 10.5l2 11.5q13 69 26 166t27 224q3 27 24 44t48 14t43.5 -24t14.5 -48
q-17 -152 -32.5 -261.5t-31.5 -183.5q-15 -72 -31 -110l-8 -16.5t-14 -22t-22 -21t-31 -12.5q-2 0 -5.5 -0.5t-7.5 -0.5zM477 806q9 -9 9 -21q0 -13 -9 -20q-5 -5 -11 -8q-8 -4 -21 -4t-20 4q-7 3 -12 8q-8 7 -8 20t8 21q5 5 12 8q4 2 9.5 2.5t10.5 0.5q6 0 11 -0.5t10 -2.5
q6 -3 11 -8zM360 804q9 -9 9 -21q0 -13 -9 -20q-5 -5 -11 -8q-8 -4 -21 -4t-20 4q-7 3 -12 8q-8 7 -8 20t8 21q5 5 12 8q4 2 9.5 2.5t10.5 0.5q6 0 11 -0.5t10 -2.5q6 -3 11 -8z" />
    <glyph glyph-name="uni1E0B" unicode="&#x1e0b;" horiz-adv-x="600" 
d="M562 71q2 -27 -15.5 -47.5t-44.5 -22.5h-5q-25 0 -43.5 17t-20.5 43q-1 5 -1.5 11t-0.5 11l-6 -6q-34 -34 -75.5 -52t-86.5 -18q-46 0 -87.5 18t-73.5 51q-42 44 -63 106q-11 32 -16 67.5t-4 74.5q5 140 73 225q34 40 78 63q47 22 94 22q49 0 95 -23q31 -16 53 -37
q1 30 1 58.5t1 55.5q1 26 20.5 45t45.5 18q27 -1 46 -20.5t18 -46.5q-2 -65 -1.5 -138.5t2.5 -152t6.5 -160t10.5 -162.5zM333 168q48 50 48 150q-1 59 -15 94t-29 53q-31 39 -73 39q-20 0 -38.5 -9.5t-32.5 -27.5q-14 -17 -28 -51.5t-16 -94.5q-2 -51 10 -90.5t36 -63.5
q30 -30 68 -30q39 0 70 31zM331 736q9 -9 9 -21q0 -13 -9 -20q-5 -5 -11 -8q-8 -4 -21 -4t-20 4q-7 3 -12 8q-8 7 -8 20t8 21q5 5 12 8q4 2 9.5 2.5t10.5 0.5q6 0 11 -0.5t10 -2.5q6 -3 11 -8z" />
    <glyph glyph-name="uni1E03" unicode="&#x1e03;" horiz-adv-x="600" 
d="M38 71q6 81 10.5 162.5t6.5 160t2.5 152t-1.5 138.5q-1 27 18 46.5t46 20.5q26 1 45.5 -18t20.5 -45q1 -27 1 -55.5t1 -58.5q22 21 53 37q46 23 95 23q47 0 94 -22q43 -23 78 -63q68 -85 73 -225q1 -39 -4 -74.5t-16 -67.5q-21 -62 -63 -106q-32 -33 -73.5 -51t-87.5 -18
q-45 0 -86.5 18t-75.5 52l-6 6q0 -5 -0.5 -11t-1.5 -11q-2 -26 -20.5 -43t-43.5 -17h-5q-27 2 -44.5 22.5t-15.5 47.5zM267 168q31 -31 70 -31q38 0 68 30q24 24 36 63.5t10 90.5q-2 60 -16 94.5t-28 51.5q-14 18 -32.5 27.5t-38.5 9.5q-42 0 -73 -39q-15 -18 -29 -53
t-15 -94q0 -100 48 -150zM331 736q-5 5 -11 8q-5 2 -10 2.5t-11 0.5q-5 0 -10.5 -0.5t-9.5 -2.5q-7 -3 -12 -8q-8 -8 -8 -21t8 -20q5 -5 12 -8q7 -4 20 -4t21 4q6 3 11 8q9 7 9 20q0 12 -9 21z" />
    <glyph glyph-name="uni1E02" unicode="&#x1e02;" horiz-adv-x="605" 
d="M274 -1q-77 0 -168 20q-23 5 -38 23.5t-14 41.5q5 130 6.5 266.5t-6.5 277.5q-1 26 16.5 46t43.5 22q36 3 71 3q129 0 217 -40q34 -16 55.5 -34.5t34 -37t17 -35t5.5 -28.5q5 -48 -26 -92q-23 -35 -66 -63q78 -30 114.5 -78t36.5 -99q0 -43 -23.5 -80.5t-67.5 -63.5
q-81 -49 -208 -49zM186 136q23 -3 45 -5t43 -2q45 0 81 8t60 22q13 8 20.5 16.5t7.5 16.5t-10 20t-32 24q-35 19 -86.5 29t-114.5 10h-11q-1 -35 -1.5 -69.5t-1.5 -69.5zM187 569q3 -77 3 -153q57 14 93 28.5t56 25.5q28 17 36.5 28.5t9.5 14.5q-1 2 -9.5 10.5t-31.5 19.5
q-29 13 -69.5 19.5t-87.5 6.5zM334 804q9 -9 9 -21q0 -13 -9 -20q-5 -5 -11 -8q-8 -4 -21 -4t-20 4q-7 3 -12 8q-8 7 -8 20t8 21q5 5 12 8q4 2 9.5 2.5t10.5 0.5q6 0 11 -0.5t10 -2.5q6 -3 11 -8z" />
    <glyph glyph-name="uni1E0A" unicode="&#x1e0a;" horiz-adv-x="612" 
d="M155 -1h-39q-27 2 -46 22q-18 21 -16 47q7 130 6 289q0 61 -1.5 127.5t-4.5 146.5q-2 29 18 47q18 20 46 20h3q95 0 179 -29q81 -29 141 -79q58 -48 95 -114q35 -66 41 -134q5 -62 -13.5 -118.5t-60.5 -101.5q-20 -21 -49.5 -43t-71.5 -39.5t-98.5 -29t-128.5 -11.5z
M186 564q2 -57 3 -107.5t1 -98.5q1 -123 -3 -229q75 4 131 24.5t89 56.5q29 32 36 64.5t5 56.5q-4 44 -27.5 85.5t-62.5 73.5q-26 22 -68 43.5t-104 30.5zM337 804q9 -9 9 -21q0 -13 -9 -20q-5 -5 -11 -8q-8 -4 -21 -4t-20 4q-7 3 -12 8q-8 7 -8 20t8 21q5 5 12 8
q4 2 9.5 2.5t10.5 0.5q6 0 11 -0.5t10 -2.5q6 -3 11 -8z" />
    <glyph glyph-name="uni1E6A" unicode="&#x1e6a;" horiz-adv-x="548" 
d="M524 644q4 -26 -13 -47.5t-43 -24.5q-38 -5 -73 -7t-70 -3q7 -114 5 -218.5t-6 -210.5l-3 -69q-1 -26 -20 -44.5t-45 -18.5h-2q-27 2 -45.5 21.5t-17.5 46.5l3 69q4 106 6 209.5t-5 214.5q-39 1 -75 3h-16.5t-16.5 1q-27 1 -45.5 20.5t-17.5 46.5q2 27 21.5 45.5
t46.5 17.5q8 -1 16.5 -1t16.5 -1q81 -3 160.5 -3.5t166.5 10.5q26 3 47.5 -13.5t24.5 -43.5zM305 804q9 -9 9 -21q0 -13 -9 -20q-5 -5 -11 -8q-8 -4 -21 -4t-20 4q-7 3 -12 8q-8 7 -8 20t8 21q5 5 12 8q4 2 9.5 2.5t10.5 0.5q6 0 11 -0.5t10 -2.5q6 -3 11 -8z" />
    <glyph glyph-name="uni1E6B" unicode="&#x1e6b;" horiz-adv-x="585" 
d="M508 303q27 -1 46 -20.5t18 -46.5q-1 -44 -15.5 -83.5t-40.5 -71.5q-51 -60 -125 -77q-24 -6 -48 -6q-38 0 -68 13q-62 24 -93 84q-18 35 -28.5 90.5t-12.5 133.5l-59 -2q0 -1 -2 -1q-26 0 -45 18.5t-20 44.5q-1 27 17.5 46.5t44.5 20.5l65 3q2 58 6 104.5l6 69.5
q0 3 0.5 6t0.5 5q0 22 13.5 39.5t35.5 22.5q15 4 30.5 0.5t27.5 -14.5q5 -5 14.5 -18t7.5 -36v-5q0 -2 -0.5 -5t-0.5 -7q-2 -20 -5.5 -62t-5.5 -95l113 4q27 2 46.5 -16.5t20.5 -45.5q2 -27 -16.5 -46.5t-45.5 -20.5l-119 -5q1 -42 4.5 -71.5t7 -49.5t7.5 -31.5t7 -16.5
q12 -23 31.5 -25.5t32.5 0.5q30 7 55 34t26 75q1 26 20 45t45 19h1zM250 774q9 -9 9 -21q0 -13 -9 -20q-5 -5 -11 -8q-8 -4 -21 -4t-20 4q-7 3 -12 8q-8 7 -8 20t8 21q5 5 12 8q4 2 9.5 2.5t10.5 0.5q6 0 11 -0.5t10 -2.5q6 -3 11 -8zM157 617q0 1 -0.5 1t-0.5 1
q2 -8 3.5 -12t-2.5 10zM155 627v-3v3z" />
    <glyph glyph-name="Cdotaccent" unicode="&#x10a;" horiz-adv-x="597" 
d="M312 -2q-19 0 -38 3q-51 7 -93.5 31t-73.5 65q-69 89 -67 243q2 173 73 265q34 44 82 69q43 21 93 24q40 2 79.5 -7.5t74.5 -29.5q39 -23 62.5 -53.5t27.5 -63.5q3 -27 -13.5 -48t-43.5 -24q-26 -4 -46.5 12t-25.5 42q-2 4 -12 13t-28 17q-21 9 -42.5 11.5t-41.5 -1.5
q-35 -7 -56.5 -33t-33 -59.5t-15.5 -70t-4 -65.5q-2 -107 40 -162q31 -40 81 -46q24 -3 49 1t48 15q20 10 30 20.5t12 17.5q7 26 30 40t49 7t40 -30t7 -49q-10 -40 -43 -74q-14 -14 -30.5 -26t-36.5 -22q-64 -32 -134 -32zM330 804q9 -9 9 -21q0 -13 -9 -20q-5 -5 -11 -8
q-8 -4 -21 -4t-20 4q-7 3 -12 8q-8 7 -8 20t8 21q5 5 12 8q4 2 9.5 2.5t10.5 0.5q6 0 11 -0.5t10 -2.5q6 -3 11 -8z" />
    <glyph glyph-name="cdotaccent" unicode="&#x10b;" horiz-adv-x="577" 
d="M282 -2q-39 0 -75 12q-42 13 -76 41t-57 69q-47 86 -43 215q5 152 69 248q30 45 71.5 73.5t89.5 37.5q37 8 74.5 1.5t70.5 -24.5q69 -38 101 -113q11 -25 0.5 -49.5t-35.5 -35.5t-49.5 -1t-35.5 35q-14 33 -42 49.5t-60 10.5q-45 -9 -77 -56q-22 -32 -34 -77.5
t-14 -102.5q-1 -24 1.5 -54t11.5 -59t26 -52.5t47 -32.5q22 -7 48 -4.5t51 13t47 27.5t37 39q14 23 40.5 28t49.5 -9q22 -15 27.5 -41.5t-9.5 -48.5q-26 -38 -63 -68.5t-82 -48.5q-27 -11 -55 -16.5t-55 -5.5zM315 804q9 -9 9 -21q0 -13 -9 -20q-5 -5 -11 -8q-8 -4 -21 -4
t-20 4q-7 3 -12 8q-8 7 -8 20t8 21q5 5 12 8q4 2 9.5 2.5t10.5 0.5q6 0 11 -0.5t10 -2.5q6 -3 11 -8z" />
    <glyph glyph-name="Agrave" unicode="&#xc0;" horiz-adv-x="650" 
d="M596 286q-11 106 -33 186q-31 108 -85 165q-59 61 -140 61q-20 0 -43 -5t-47.5 -18t-49.5 -36.5t-47 -60.5q-49 -79 -78 -216q-12 -55 -19 -107.5t-10 -94t-4 -68t-1 -28.5q-1 -26 18 -45.5t46 -20.5h1q26 0 45 19t20 45l0.5 13.5t1.5 36t3.5 53t7.5 65.5
q39 -2 78.5 -3.5t80.5 -1.5q32 0 64 1.5t65 3.5q2 -33 3 -62.5t1 -51t-0.5 -34.5l-0.5 -13q-1 -27 17 -46.5t45 -21.5h3q26 0 44.5 18t20.5 44q0 1 0.5 19.5t0.5 49t-2 70.5t-6 84zM205 359q7 29 18.5 65t28 68t38 54t48.5 22q26 0 46 -21q48 -51 72 -188q-64 -5 -126 -4
t-125 4zM379 708q-9 0 -18 3t-16 10q-11 11 -21 22.5l-21 23.5q-11 14 -23 27.5t-26 27.5q-15 14 -15.5 34.5t13.5 35.5q15 15 35.5 15t35.5 -14q17 -16 30.5 -31.5l25.5 -29.5l18.5 -21t16.5 -18q15 -14 15 -34.5t-14 -35.5t-36 -15z" />
    <glyph glyph-name="agrave" unicode="&#xe0;" horiz-adv-x="644" 
d="M605 69q-10 121 -17 262.5t-2 299.5q1 27 -18 46.5t-45 20.5q-25 1 -43.5 -15t-22.5 -40q-62 56 -144 56q-54 0 -105 -25.5t-90 -72.5q-39 -46 -62 -108q-12 -32 -18 -67t-8 -72q-2 -81 22.5 -150.5t74.5 -120.5q19 -20 40.5 -35.5t45.5 -26.5q25 -11 49.5 -16.5
t50.5 -5.5q41 0 84 16q20 9 38.5 21t34.5 29q3 3 4 5q1 -4 1 -11q2 -26 20.5 -43t44.5 -17h5q27 2 44.5 22.5t15.5 47.5zM378 157q-27 -28 -65 -28q-24 0 -48.5 11.5t-44.5 32.5q-31 32 -46.5 77.5t-13.5 99.5q1 51 15.5 91.5t36 69t48.5 43.5t53 15q27 0 48.5 -15.5t37 -45
t24.5 -70.5t9 -92q0 -65 -14 -113.5t-40 -75.5zM359 708q-9 0 -18 3t-16 10q-11 11 -21 22.5l-21 23.5q-11 14 -23 27.5t-26 27.5q-15 14 -15.5 34.5t13.5 35.5q15 15 35.5 15t35.5 -14q17 -16 30.5 -31.5l25.5 -29.5l18.5 -21t16.5 -18q15 -14 15 -34.5t-14 -35.5t-36 -15z
" />
    <glyph glyph-name="Egrave" unicode="&#xc8;" horiz-adv-x="604" 
d="M343 568q27 -1 51.5 -2.5t43.5 -3.5t30.5 -3.5l11.5 -1.5q27 -3 48.5 13.5t24.5 42.5q4 27 -12.5 48t-43.5 25q-2 0 -17.5 2t-41 4.5t-57.5 4.5t-66 2q-42 1 -76 -2t-60 -8q-20 -4 -35 -9.5t-28 -13.5q-20 -13 -33 -31t-16 -40q-3 -16 -5.5 -45.5t-5 -67t-4.5 -81
t-2 -86.5q-1 -50 1 -90t5 -72q3 -20 6 -36t7 -29q15 -45 45 -64q31 -20 105 -24q12 0 25 -0.5t27 -0.5q16 0 32.5 0.5t34.5 1.5q29 1 56 3l48 3.5l34 2.5t14 1q27 3 44 24t14 47q-3 27 -24 44t-47 14l-11.5 -1t-30.5 -2.5t-43 -3t-51 -2.5q-67 -3 -101.5 -1t-48.5 4
q-2 11 -5.5 38.5t-5.5 78.5q17 -1 34 -1h34q111 0 218 12q26 2 43 23t14 48t-24 44t-47 14q-66 -8 -134 -10t-137 0q2 55 5.5 102.5t6.5 75.5q12 4 46 8t104 1zM356 708q-9 0 -18 3t-16 10q-11 11 -21 22.5l-21 23.5q-11 14 -23 27.5t-26 27.5q-15 14 -15.5 34.5t13.5 35.5
q15 15 35.5 15t35.5 -14q17 -16 30.5 -31.5l25.5 -29.5l18.5 -21t16.5 -18q15 -14 15 -34.5t-14 -35.5t-36 -15z" />
    <glyph glyph-name="egrave" unicode="&#xe8;" horiz-adv-x="575" 
d="M303 -1q-48 0 -91 15q-90 32 -137 120q-51 92 -42 232q5 74 25.5 135.5t56.5 106.5q34 43 81 68q49 24 99 23q51 -2 96 -27q46 -28 77 -73q33 -46 50 -109t19 -138q0 -28 -21 -49q-22 -19 -50 -17q-54 5 -107.5 2.5t-110.5 -6.5q-20 -2 -41 -3l-42 -2q6 -48 24 -81
q22 -43 66 -59q46 -15 98 0q23 6 41 17.5t28 25.5q15 22 41.5 26.5t48.5 -11.5q22 -15 26.5 -41.5t-10.5 -48.5q-23 -32 -58.5 -55.5t-79.5 -37.5q-22 -6 -43.5 -9.5t-43.5 -3.5zM290 569q-40 0 -73 -42q-14 -17 -27.5 -45.5t-21.5 -74.5l35 2t36 3q40 2 80 4.5t82 2.5
q-6 39 -17 64.5t-22 41.5q-31 44 -71 44h-1zM337 708q-9 0 -18 3t-16 10q-11 11 -21 22.5l-21 23.5q-11 14 -23 27.5t-26 27.5q-15 14 -15.5 34.5t13.5 35.5q15 15 35.5 15t35.5 -14q17 -16 30.5 -31.5l25.5 -29.5l18.5 -21t16.5 -18q15 -14 15 -34.5t-14 -35.5t-36 -15z
" />
    <glyph glyph-name="Igrave" unicode="&#xcc;" horiz-adv-x="577" 
d="M459 136h-2l-51.5 -2l-49.5 -2q-5 -1 -10 -1h-10q3 88 2.5 169t-2.5 160q0 24 -0.5 48t-0.5 49q32 1 66 3.5t70 8.5q27 4 42.5 26t11.5 48q-5 27 -26.5 43t-48.5 11q-69 -11 -131.5 -10.5t-122.5 3.5q-20 1 -38.5 1.5t-37.5 1.5q-27 0 -46.5 -18.5t-19.5 -45.5
q-1 -27 17.5 -46.5t45.5 -19.5q18 -1 36 -1.5t37 -1.5q4 0 7.5 -0.5t7.5 -0.5q0 -26 0.5 -51t0.5 -50q2 -83 2.5 -162.5t-2.5 -166.5l-39 4t-39 7q-26 5 -49 -9.5t-29 -40.5q-5 -26 9.5 -49t40.5 -28q38 -9 75.5 -12t74.5 -3q28 0 55.5 1t56.5 3q24 2 48 2.5t50 1.5
q26 0 45 19.5t18 46.5q0 26 -19 45t-45 19zM334 702q-9 0 -18 3t-16 10q-11 11 -21 22.5l-21 23.5q-11 14 -23 27.5t-26 27.5q-15 14 -15.5 34.5t13.5 35.5q15 15 35.5 15t35.5 -14q17 -16 30.5 -31.5l25.5 -29.5l18.5 -21t16.5 -18q15 -14 15 -34.5t-14 -35.5t-36 -15z" />
    <glyph glyph-name="igrave" unicode="&#xec;" horiz-adv-x="263" 
d="M227 439q-5 26 -27 42t-48 12q-26 -5 -42 -27t-12 -48q8 -50 7 -103.5t-3 -103.5q-3 -44 -4 -84t4 -74q4 -24 22.5 -39.5t41.5 -15.5q7 0 10 1q27 4 43 25.5t12 48.5q-4 23 -3 58t3 73q3 55 4.5 115t-8.5 120zM158 521q-9 0 -18 3t-16 10q-11 11 -21 22.5l-21 23.5
q-11 14 -23 27.5t-26 27.5q-15 14 -15.5 34.5t13.5 35.5q15 15 35.5 15t35.5 -14q17 -16 30.5 -31.5l25.5 -29.5l18.5 -21t16.5 -18q15 -14 15 -34.5t-14 -35.5t-36 -15z" />
    <glyph glyph-name="Ograve" unicode="&#xd2;" horiz-adv-x="700" 
d="M362 0q-61 0 -115 22q-58 24 -102 67q-45 44 -73 107q-29 66 -32 142q-3 81 21 150q23 64 71 115q45 46 103 71.5t121 25.5q60 0 112.5 -22.5t93.5 -64.5q44 -46 68 -110.5t27 -142.5q2 -54 -6 -97.5t-21.5 -77t-30.5 -58.5t-33 -42q-40 -42 -92.5 -63.5t-111.5 -21.5z
M356 570q-36 0 -70 -15t-60 -42q-30 -31 -44 -74t-12 -95q2 -53 19.5 -93t44.5 -67t60.5 -40.5t67.5 -13.5q66 0 111 45q59 62 54 180q-2 59 -18 100t-40 66.5t-53.5 37t-59.5 11.5zM397 708q-9 0 -18 3t-16 10q-11 11 -21 22.5l-21 23.5q-11 14 -23 27.5t-26 27.5
q-15 14 -15.5 34.5t13.5 35.5q15 15 35.5 15t35.5 -14q17 -16 30.5 -31.5l25.5 -29.5l18.5 -21t16.5 -18q15 -14 15 -34.5t-14 -35.5t-36 -15z" />
    <glyph glyph-name="ograve" unicode="&#xf2;" horiz-adv-x="689" 
d="M362 -1q-61 0 -118 22q-29 12 -55 28.5t-49 38.5q-48 45 -77 107q-30 64 -33 142q-2 39 3.5 75.5t17.5 71.5q25 65 71 113q46 49 106.5 75t126.5 26q60 0 112.5 -22t93.5 -64q44 -47 67 -108q12 -32 19 -68.5t8 -77.5q2 -54 -5.5 -97.5t-21 -77.5t-30.5 -58.5t-33 -41.5
q-39 -41 -91 -62.5t-112 -21.5zM355 569q-38 0 -74.5 -16t-64.5 -45q-21 -23 -40 -62.5t-17 -102.5q3 -52 22 -92t47.5 -67.5t63.5 -41.5t70 -14q67 0 110 45q29 29 42.5 75t11.5 106q-2 59 -18 100t-40 66.5t-53.5 37t-59.5 11.5zM402 708q-9 0 -18 3t-16 10
q-11 11 -21 22.5l-21 23.5q-11 14 -23 27.5t-26 27.5q-15 14 -15.5 34.5t13.5 35.5q15 15 35.5 15t35.5 -14q17 -16 30.5 -31.5l25.5 -29.5l18.5 -21t16.5 -18q15 -14 15 -34.5t-14 -35.5t-36 -15z" />
    <glyph glyph-name="Ugrave" unicode="&#xd9;" horiz-adv-x="602" 
d="M297 -1h-3q-94 2 -157 72q-33 38 -55 98q-10 27 -17 58.5t-11 66.5q-17 139 7 337q3 26 24 43t48 14q26 -4 43 -25t14 -47q-11 -93 -13 -169.5t6 -136.5q8 -68 23 -103t29 -50q22 -27 61 -28q35 0 61 29q14 17 31.5 52.5t28.5 104.5q10 64 9.5 141.5t-11.5 170.5
q-3 26 13.5 47.5t43.5 24.5t48 -13.5t24 -43.5q12 -101 12 -188t-11 -159q-23 -149 -92 -224q-64 -72 -156 -72zM346 699q-9 0 -18 3t-16 10q-11 11 -21 22.5l-21 23.5q-11 14 -23 27.5t-26 27.5q-15 14 -15.5 34.5t13.5 35.5q15 15 35.5 15t35.5 -14q17 -16 30.5 -31.5
l25.5 -29.5l18.5 -21t16.5 -18q15 -14 15 -34.5t-14 -35.5t-36 -15z" />
    <glyph glyph-name="ugrave" unicode="&#xf9;" 
d="M455 701h1q26 -1 44 -18t20 -43l37 -559q2 -27 -16 -47t-45 -22t-47 16t-22 45l-6 89q-9 -22 -19 -41q-27 -53 -59 -82q-29 -26 -55.5 -32.5t-46.5 -5.5q-19 2 -44 11.5t-51 37.5q-30 33 -50 85q-32 79 -47 210q-7 53 -10 104t-4 90.5t-1 65v27.5q1 26 19.5 45t45.5 19
q1 0 1 -1q27 0 45.5 -19.5t18.5 -46.5v-23.5t1 -61.5t4 -86.5t9 -98.5q14 -115 39 -177q12 -29 21 -39.5t12 -11.5q1 1 10.5 9t23.5 34.5t31 75t35 130.5q11 49 18.5 96t12.5 83.5t7.5 59.5l2.5 23q2 25 20.5 42t43.5 17zM328 708q-9 0 -18 3t-16 10q-11 11 -21 22.5
l-21 23.5q-11 14 -23 27.5t-26 27.5q-15 14 -15.5 34.5t13.5 35.5q15 15 35.5 15t35.5 -14q17 -16 30.5 -31.5l25.5 -29.5l18.5 -21t16.5 -18q15 -14 15 -34.5t-14 -35.5t-36 -15z" />
    <glyph glyph-name="colon" unicode=":" horiz-adv-x="216" 
d="M156 351q-19 -13 -49 -13q-14 0 -26 3t-21 10q-5 4 -10 8.5t-9 8.5q-8 13 -8 32q0 9 1.5 17.5t6.5 14.5q4 5 9 9.5t10 8.5q9 8 21 10t26 2t26.5 -2t22.5 -10q5 -4 10 -8.5t9 -9.5q5 -6 5.5 -14.5t0.5 -17.5t-0.5 -16.5t-5.5 -15.5q-4 -4 -9 -8.5t-10 -8.5zM157 20
q-19 -13 -49 -13q-14 0 -26 3t-21 10q-5 4 -10 8.5t-9 8.5q-8 13 -8 32q0 9 1.5 17.5t6.5 14.5q4 5 9 9.5t10 8.5q9 8 21 10t26 2t26.5 -2t22.5 -10q5 -4 10 -8.5t9 -9.5q5 -6 5.5 -14.5t0.5 -17.5t-0.5 -16.5t-5.5 -15.5q-4 -4 -9 -8.5t-10 -8.5z" />
    <glyph glyph-name="Ldot" unicode="&#x13f;" horiz-adv-x="537" 
d="M287 -1q-40 0 -67 1.5t-44 3.5t-26.5 4t-13.5 3q-10 2 -23.5 10t-25.5 25q-11 15 -18 37q-5 16 -8.5 35.5t-5.5 44.5q-4 38 -4 88t2 112q1 52 4.5 101l6.5 87.5t5.5 63t2.5 26.5q2 26 23 43t48 15q27 -3 44 -24t14 -47q0 -1 -2 -20.5t-4.5 -52l-5.5 -75t-5 -87.5
q-2 -54 -3 -98t1 -79q2 -33 4 -53t4 -30q22 -3 55.5 -3.5t70.5 0t74 2t68 3.5q27 2 47 -16t22 -45t-16 -47t-44 -22q-1 0 -12 -0.5t-29 -1.5t-41 -2t-49 -1q-14 -1 -26 -1h-23zM456 262q3 3 6 7t5 8q3 7 3.5 14t0.5 15t-0.5 15.5t-3.5 12.5q-4 9 -11 16q-6 7 -13.5 9
t-15.5 2t-15.5 -2t-12.5 -9q-7 -7 -11 -16q-3 -5 -4 -12.5t-1 -15.5q0 -18 5 -29q2 -4 5 -8t6 -7q10 -12 28 -12q17 0 29 12z" />
    <glyph glyph-name="ldot" unicode="&#x140;" horiz-adv-x="356" 
d="M108 -1q-25 0 -43.5 16.5t-20.5 42.5q-9 87 -8.5 167t2.5 165q2 69 3.5 140.5t-3.5 149.5q-2 27 16 47t45 22t47 -16.5t22 -44.5q5 -82 3.5 -156t-3.5 -146q-2 -81 -2.5 -158t7.5 -158q2 -26 -15 -47t-43 -24h-7zM310 267q3 3 6 7t5 8q3 7 3.5 14t0.5 15t-0.5 15.5
t-3.5 12.5q-4 9 -11 16q-6 7 -13.5 9t-15.5 2t-15.5 -2t-12.5 -9q-7 -7 -11 -16q-3 -5 -4 -12.5t-1 -15.5q0 -18 5 -29q2 -4 5 -8t6 -7q10 -12 28 -12q17 0 29 12z" />
    <glyph glyph-name="slash" unicode="/" horiz-adv-x="373" 
d="M314 692q2 -1 3.5 -1t3.5 -1q24 -13 32.5 -38t-2.5 -50q-18 -36 -35 -77.5t-33 -85l-30.5 -86l-27.5 -80.5l-19 -60t-17 -51.5t-20.5 -53.5l-27.5 -66q-10 -24 -35 -34t-50 1t-34.5 35.5t1.5 49.5l25 62l18.5 50t16.5 49l19 58l28.5 84.5l32 89.5t34.5 88.5t37 82.5
q11 23 34 32.5t46 1.5z" />
    <glyph glyph-name="backslash" unicode="\" horiz-adv-x="373" 
d="M59 692q23 8 46 -1.5t34 -32.5q19 -39 37 -82.5t34.5 -88.5l32 -89.5l28.5 -84.5l19 -58t16.5 -49l18.5 -50l25 -62q11 -25 1.5 -49.5t-34.5 -35.5t-50 -1t-35 34q-17 38 -28 66t-20 53.5t-17 51.5l-19 60l-27.5 80.5l-30.5 86t-33 85t-35 77.5q-11 25 -2.5 50t32.5 38
q2 1 3.5 1t3.5 1z" />
    <glyph glyph-name="Oslash" unicode="&#xd8;" horiz-adv-x="700" 
d="M362 0q-22 0 -43.5 2.5t-42.5 8.5q-27 -14 -57 -2q-17 7 -27 20t-12 30q-20 15 -35 30q-45 44 -73 107q-29 66 -32 142q-3 81 21 150q23 64 71 115q45 46 103 71.5t121 25.5q40 0 74 -10q23 10 47 2q2 -1 3.5 -1t3.5 -1q25 -14 33 -39q22 -15 45 -38q44 -46 68 -110.5
t27 -142.5q2 -54 -6 -97.5t-21.5 -77t-30.5 -58.5t-33 -42q-40 -42 -92.5 -63.5t-111.5 -21.5zM388 273l-24 -76t-23 -66q5 -1 10.5 -1h10.5q66 0 111 45q59 62 54 180q-2 56 -16 95t-36 65q-24 -60 -46.5 -123.5zM356 570q-36 0 -70 -15t-60 -42q-30 -31 -44 -74t-12 -95
q2 -49 17 -86.5t38 -64.5q10 28 18.5 55t21.5 65q19 59 43 126t50 131h-2z" />
    <glyph glyph-name="oslash" unicode="&#xf8;" horiz-adv-x="689" 
d="M362 -1q-48 0 -91 13q-27 -16 -58 -3q-17 7 -27 20t-12 30q-9 6 -17.5 13.5t-16.5 15.5q-48 45 -77 107q-30 64 -33 142q-2 39 3.5 75.5t17.5 71.5q25 65 71 113q46 49 106.5 75t126.5 26q33 0 68 -8q11 5 23.5 5.5t24.5 -3.5q2 -1 3.5 -1t3.5 -1q22 -12 32 -37
q26 -16 51 -41q44 -47 67 -108q12 -32 19 -68.5t8 -77.5q2 -54 -5.5 -97.5t-21 -77.5t-30.5 -58.5t-33 -41.5q-39 -41 -91 -62.5t-112 -21.5zM382 273l-24.5 -76t-23.5 -67q7 -1 14 -1.5t14 -0.5q67 0 110 45q29 29 42.5 75t11.5 106q-2 58 -17.5 98t-38.5 66
q-25 -61 -47 -125zM259 313q19 59 42.5 125.5t49.5 130.5q-38 -1 -73 -17t-62 -44q-21 -23 -40 -62.5t-17 -102.5q2 -48 18 -85.5t42 -64.5q10 28 18.5 55t21.5 65z" />
    <glyph glyph-name="circumflex" unicode="&#x2c6;" horiz-adv-x="344" 
d="M267 504q-11 0 -20.5 4t-17.5 13q-17 20 -34.5 38t-31.5 30q-9 -11 -20 -26.5t-20 -31.5q-11 -18 -31 -23t-38 6t-23 31t6 38q1 1 10.5 16t23.5 34q22 30 42.5 48t45.5 18q20 0 41.5 -13.5t56.5 -48.5l33 -34t15 -16q14 -16 12.5 -36.5t-17.5 -34.5q-15 -12 -33 -12z" />
    <glyph glyph-name="caron" unicode="&#x2c7;" horiz-adv-x="343" 
d="M267 695q18 0 33 -12q16 -14 17.5 -34.5t-12.5 -36.5q-1 -1 -15 -16l-33 -34q-35 -35 -56.5 -48.5t-41.5 -13.5q-25 0 -45.5 18t-42.5 48q-14 19 -23.5 34t-10.5 16q-11 18 -6 38t23 31t38 6t31 -23q9 -16 20 -31.5t20 -26.5q14 12 31.5 30t34.5 38q8 9 17.5 13t20.5 4z
" />
    <glyph glyph-name="Acircumflex" unicode="&#xc2;" horiz-adv-x="650" 
d="M596 286q-11 106 -33 186q-31 108 -85 165q-59 61 -140 61q-20 0 -43 -5t-47.5 -18t-49.5 -36.5t-47 -60.5q-49 -79 -78 -216q-12 -55 -19 -107.5t-10 -94t-4 -68t-1 -28.5q-1 -26 18 -45.5t46 -20.5h1q26 0 45 19t20 45l0.5 13.5t1.5 36t3.5 53t7.5 65.5
q39 -2 78.5 -3.5t80.5 -1.5q32 0 64 1.5t65 3.5q2 -33 3 -62.5t1 -51t-0.5 -34.5l-0.5 -13q-1 -27 17 -46.5t45 -21.5h3q26 0 44.5 18t20.5 44q0 1 0.5 19.5t0.5 49t-2 70.5t-6 84zM205 359q7 29 18.5 65t28 68t38 54t48.5 22q26 0 46 -21q48 -51 72 -188q-64 -5 -126 -4
t-125 4zM427 704q-11 0 -20.5 4t-17.5 13q-17 20 -34.5 38t-31.5 30q-9 -11 -20 -26.5t-20 -31.5q-11 -18 -31 -23t-38 6t-23 31t6 38q1 1 10.5 16t23.5 34q22 30 42.5 48t45.5 18q20 0 41.5 -13.5t56.5 -48.5l33 -34t15 -16q14 -16 12.5 -36.5t-17.5 -34.5q-15 -12 -33 -12
z" />
    <glyph glyph-name="Ecircumflex" unicode="&#xca;" horiz-adv-x="604" 
d="M343 568q27 -1 51.5 -2.5t43.5 -3.5t30.5 -3.5l11.5 -1.5q27 -3 48.5 13.5t24.5 42.5q4 27 -12.5 48t-43.5 25q-2 0 -17.5 2t-41 4.5t-57.5 4.5t-66 2q-42 1 -76 -2t-60 -8q-20 -4 -35 -9.5t-28 -13.5q-20 -13 -33 -31t-16 -40q-3 -16 -5.5 -45.5t-5 -67t-4.5 -81
t-2 -86.5q-1 -50 1 -90t5 -72q3 -20 6 -36t7 -29q15 -45 45 -64q31 -20 105 -24q12 0 25 -0.5t27 -0.5q16 0 32.5 0.5t34.5 1.5q29 1 56 3l48 3.5l34 2.5t14 1q27 3 44 24t14 47q-3 27 -24 44t-47 14l-11.5 -1t-30.5 -2.5t-43 -3t-51 -2.5q-67 -3 -101.5 -1t-48.5 4
q-2 11 -5.5 38.5t-5.5 78.5q17 -1 34 -1h34q111 0 218 12q26 2 43 23t14 48t-24 44t-47 14q-66 -8 -134 -10t-137 0q2 55 5.5 102.5t6.5 75.5q12 4 46 8t104 1zM405 708q-11 0 -20.5 4t-17.5 13q-17 20 -34.5 38t-31.5 30q-9 -11 -20 -26.5t-20 -31.5q-11 -18 -31 -23t-38 6
t-23 31t6 38q1 1 10.5 16t23.5 34q22 30 42.5 48t45.5 18q20 0 41.5 -13.5t56.5 -48.5l33 -34t15 -16q14 -16 12.5 -36.5t-17.5 -34.5q-15 -12 -33 -12z" />
    <glyph glyph-name="Icircumflex" unicode="&#xce;" horiz-adv-x="577" 
d="M459 136h-2l-51.5 -2l-49.5 -2q-5 -1 -10 -1h-10q3 88 2.5 169t-2.5 160q0 24 -0.5 48t-0.5 49q32 1 66 3.5t70 8.5q27 4 42.5 26t11.5 48q-5 27 -26.5 43t-48.5 11q-69 -11 -131.5 -10.5t-122.5 3.5q-20 1 -38.5 1.5t-37.5 1.5q-27 0 -46.5 -18.5t-19.5 -45.5
q-1 -27 17.5 -46.5t45.5 -19.5q18 -1 36 -1.5t37 -1.5q4 0 7.5 -0.5t7.5 -0.5q0 -26 0.5 -51t0.5 -50q2 -83 2.5 -162.5t-2.5 -166.5l-39 4t-39 7q-26 5 -49 -9.5t-29 -40.5q-5 -26 9.5 -49t40.5 -28q38 -9 75.5 -12t74.5 -3q28 0 55.5 1t56.5 3q24 2 48 2.5t50 1.5
q26 0 45 19.5t18 46.5q0 26 -19 45t-45 19zM382 708q-11 0 -20.5 4t-17.5 13q-17 20 -34.5 38t-31.5 30q-9 -11 -20 -26.5t-20 -31.5q-11 -18 -31 -23t-38 6t-23 31t6 38q1 1 10.5 16t23.5 34q22 30 42.5 48t45.5 18q20 0 41.5 -13.5t56.5 -48.5l33 -34t15 -16
q14 -16 12.5 -36.5t-17.5 -34.5q-15 -12 -33 -12z" />
    <glyph glyph-name="Ocircumflex" unicode="&#xd4;" horiz-adv-x="700" 
d="M362 0q-61 0 -115 22q-58 24 -102 67q-45 44 -73 107q-29 66 -32 142q-3 81 21 150q23 64 71 115q45 46 103 71.5t121 25.5q60 0 112.5 -22.5t93.5 -64.5q44 -46 68 -110.5t27 -142.5q2 -54 -6 -97.5t-21.5 -77t-30.5 -58.5t-33 -42q-40 -42 -92.5 -63.5t-111.5 -21.5z
M356 570q-36 0 -70 -15t-60 -42q-30 -31 -44 -74t-12 -95q2 -53 19.5 -93t44.5 -67t60.5 -40.5t67.5 -13.5q66 0 111 45q59 62 54 180q-2 59 -18 100t-40 66.5t-53.5 37t-59.5 11.5zM444 707q-11 0 -20.5 4t-17.5 13q-17 20 -34.5 38t-31.5 30q-9 -11 -20 -26.5t-20 -31.5
q-11 -18 -31 -23t-38 6t-23 31t6 38q1 1 10.5 16t23.5 34q22 30 42.5 48t45.5 18q20 0 41.5 -13.5t56.5 -48.5l33 -34t15 -16q14 -16 12.5 -36.5t-17.5 -34.5q-15 -12 -33 -12z" />
    <glyph glyph-name="Ucircumflex" unicode="&#xdb;" horiz-adv-x="602" 
d="M297 -1h-3q-94 2 -157 72q-33 38 -55 98q-10 27 -17 58.5t-11 66.5q-17 139 7 337q3 26 24 43t48 14q26 -4 43 -25t14 -47q-11 -93 -13 -169.5t6 -136.5q8 -68 23 -103t29 -50q22 -27 61 -28q35 0 61 29q14 17 31.5 52.5t28.5 104.5q10 64 9.5 141.5t-11.5 170.5
q-3 26 13.5 47.5t43.5 24.5t48 -13.5t24 -43.5q12 -101 12 -188t-11 -159q-23 -149 -92 -224q-64 -72 -156 -72zM395 704q-11 0 -20.5 4t-17.5 13q-17 20 -34.5 38t-31.5 30q-9 -11 -20 -26.5t-20 -31.5q-11 -18 -31 -23t-38 6t-23 31t6 38q1 1 10.5 16t23.5 34
q22 30 42.5 48t45.5 18q20 0 41.5 -13.5t56.5 -48.5l33 -34t15 -16q14 -16 12.5 -36.5t-17.5 -34.5q-15 -12 -33 -12z" />
    <glyph glyph-name="acircumflex" unicode="&#xe2;" horiz-adv-x="644" 
d="M605 69q-10 121 -17 262.5t-2 299.5q1 27 -18 46.5t-45 20.5q-25 1 -43.5 -15t-22.5 -40q-62 56 -144 56q-54 0 -105 -25.5t-90 -72.5q-39 -46 -62 -108q-12 -32 -18 -67t-8 -72q-2 -81 22.5 -150.5t74.5 -120.5q19 -20 40.5 -35.5t45.5 -26.5q25 -11 49.5 -16.5
t50.5 -5.5q41 0 84 16q20 9 38.5 21t34.5 29q3 3 4 5q1 -4 1 -11q2 -26 20.5 -43t44.5 -17h5q27 2 44.5 22.5t15.5 47.5zM378 157q-27 -28 -65 -28q-24 0 -48.5 11.5t-44.5 32.5q-31 32 -46.5 77.5t-13.5 99.5q1 51 15.5 91.5t36 69t48.5 43.5t53 15q27 0 48.5 -15.5t37 -45
t24.5 -70.5t9 -92q0 -65 -14 -113.5t-40 -75.5zM392 704q-11 0 -20.5 4t-17.5 13q-17 20 -34.5 38t-31.5 30q-9 -11 -20 -26.5t-20 -31.5q-11 -18 -31 -23t-38 6t-23 31t6 38q1 1 10.5 16t23.5 34q22 30 42.5 48t45.5 18q20 0 41.5 -13.5t56.5 -48.5l33 -34t15 -16
q14 -16 12.5 -36.5t-17.5 -34.5q-15 -12 -33 -12z" />
    <glyph glyph-name="ecircumflex" unicode="&#xea;" horiz-adv-x="575" 
d="M303 -1q-48 0 -91 15q-90 32 -137 120q-51 92 -42 232q5 74 25.5 135.5t56.5 106.5q34 43 81 68q49 24 99 23q51 -2 96 -27q46 -28 77 -73q33 -46 50 -109t19 -138q0 -28 -21 -49q-22 -19 -50 -17q-54 5 -107.5 2.5t-110.5 -6.5q-20 -2 -41 -3l-42 -2q6 -48 24 -81
q22 -43 66 -59q46 -15 98 0q23 6 41 17.5t28 25.5q15 22 41.5 26.5t48.5 -11.5q22 -15 26.5 -41.5t-10.5 -48.5q-23 -32 -58.5 -55.5t-79.5 -37.5q-22 -6 -43.5 -9.5t-43.5 -3.5zM380 704q-11 0 -20.5 4t-17.5 13q-17 20 -34.5 38t-31.5 30q-9 -11 -20 -26.5t-20 -31.5
q-11 -18 -31 -23t-38 6t-23 31t6 38q1 1 10.5 16t23.5 34q22 30 42.5 48t45.5 18q20 0 41.5 -13.5t56.5 -48.5l33 -34t15 -16q14 -16 12.5 -36.5t-17.5 -34.5q-15 -12 -33 -12zM290 569q-40 0 -73 -42q-14 -17 -27.5 -45.5t-21.5 -74.5l35 2t36 3q40 2 80 4.5t82 2.5
q-6 39 -17 64.5t-22 41.5q-31 44 -71 44h-1z" />
    <glyph glyph-name="icircumflex" unicode="&#xee;" horiz-adv-x="327" 
d="M228 439q-5 26 -27 42t-48 12q-26 -5 -42 -27t-12 -48q8 -50 7 -103.5t-3 -103.5q-3 -44 -4 -84t4 -74q4 -24 22.5 -39.5t41.5 -15.5q7 0 10 1q27 4 43 25.5t12 48.5q-4 23 -3 58t3 73q3 55 4.5 115t-8.5 120zM258 504q-11 0 -20.5 4t-17.5 13q-17 20 -34.5 38t-31.5 30
q-9 -11 -20 -26.5t-20 -31.5q-11 -18 -31 -23t-38 6t-23 31t6 38q1 1 10.5 16t23.5 34q22 30 42.5 48t45.5 18q20 0 41.5 -13.5t56.5 -48.5l33 -34t15 -16q14 -16 12.5 -36.5t-17.5 -34.5q-15 -12 -33 -12z" />
    <glyph glyph-name="ocircumflex" unicode="&#xf4;" horiz-adv-x="689" 
d="M362 -1q-61 0 -118 22q-29 12 -55 28.5t-49 38.5q-48 45 -77 107q-30 64 -33 142q-2 39 3.5 75.5t17.5 71.5q25 65 71 113q46 49 106.5 75t126.5 26q60 0 112.5 -22t93.5 -64q44 -47 67 -108q12 -32 19 -68.5t8 -77.5q2 -54 -5.5 -97.5t-21 -77.5t-30.5 -58.5t-33 -41.5
q-39 -41 -91 -62.5t-112 -21.5zM355 569q-38 0 -74.5 -16t-64.5 -45q-21 -23 -40 -62.5t-17 -102.5q3 -52 22 -92t47.5 -67.5t63.5 -41.5t70 -14q67 0 110 45q29 29 42.5 75t11.5 106q-2 59 -18 100t-40 66.5t-53.5 37t-59.5 11.5zM442 704q-11 0 -20.5 4t-17.5 13
q-17 20 -34.5 38t-31.5 30q-9 -11 -20 -26.5t-20 -31.5q-11 -18 -31 -23t-38 6t-23 31t6 38q1 1 10.5 16t23.5 34q22 30 42.5 48t45.5 18q20 0 41.5 -13.5t56.5 -48.5l33 -34t15 -16q14 -16 12.5 -36.5t-17.5 -34.5q-15 -12 -33 -12z" />
    <glyph glyph-name="ucircumflex" unicode="&#xfb;" 
d="M455 701h1q26 -1 44 -18t20 -43l37 -559q2 -27 -16 -47t-45 -22t-47 16t-22 45l-6 89q-9 -22 -19 -41q-27 -53 -59 -82q-29 -26 -55.5 -32.5t-46.5 -5.5q-19 2 -44 11.5t-51 37.5q-30 33 -50 85q-32 79 -47 210q-7 53 -10 104t-4 90.5t-1 65v27.5q1 26 19.5 45t45.5 19
q1 0 1 -1q27 0 45.5 -19.5t18.5 -46.5v-23.5t1 -61.5t4 -86.5t9 -98.5q14 -115 39 -177q12 -29 21 -39.5t12 -11.5q1 1 10.5 9t23.5 34.5t31 75t35 130.5q11 49 18.5 96t12.5 83.5t7.5 59.5l2.5 23q2 25 20.5 42t43.5 17zM363 704q-11 0 -20.5 4t-17.5 13q-17 20 -34.5 38
t-31.5 30q-9 -11 -20 -26.5t-20 -31.5q-11 -18 -31 -23t-38 6t-23 31t6 38q1 1 10.5 16t23.5 34q22 30 42.5 48t45.5 18q20 0 41.5 -13.5t56.5 -48.5l33 -34t15 -16q14 -16 12.5 -36.5t-17.5 -34.5q-15 -12 -33 -12z" />
    <glyph glyph-name="IJ" unicode="&#x132;" horiz-adv-x="1149" 
d="M1121 645q4 -26 -12 -47.5t-43 -26.5l-48.5 -6t-46.5 -5l11.5 -34l10.5 -34q20 -79 23 -152q3 -76 -11.5 -140t-44.5 -109q-37 -56 -90 -77q-29 -13 -62 -13q-29 0 -55 10q-38 16 -66 50t-42 84q-28 95 -4 238q5 27 27 42.5t48 10.5q27 -5 42.5 -26.5t10.5 -48.5
q-12 -70 -9 -113.5t10 -66.5t15.5 -34.5t16.5 -14.5q10 -5 24 4.5t27 27.5q15 23 24.5 64t9 93.5t-13.5 112.5t-41 122q-37 1 -74 2.5t-77 5.5q-27 2 -44 22.5t-15 47.5q2 26 22.5 43.5t46.5 15.5q46 -4 89.5 -6t86.5 -1.5t87.5 4t92.5 10.5q27 4 48.5 -12t25.5 -43z
M459 136q26 0 45 -19t19 -45q1 -27 -18 -46.5t-45 -19.5q-26 -1 -50 -1.5t-48 -2.5q-29 -2 -56.5 -3t-55.5 -1q-37 0 -74.5 3t-75.5 12q-26 5 -40.5 28t-9.5 49q6 26 29 40.5t49 9.5q20 -5 39 -7l39 -4q3 87 2.5 166.5t-2.5 162.5q0 25 -0.5 50t-0.5 51q-4 0 -7.5 0.5
t-7.5 0.5q-19 1 -37 1.5t-36 1.5q-27 0 -45.5 19.5t-17.5 46.5q0 27 19.5 45.5t46.5 18.5q19 -1 37.5 -1.5t38.5 -1.5q60 -3 122.5 -3.5t131.5 10.5q27 5 48.5 -11t26.5 -43q4 -26 -11.5 -48t-42.5 -26q-36 -6 -70 -8.5t-66 -3.5q0 -25 0.5 -49t0.5 -48q2 -79 2.5 -160
t-2.5 -169h10t10 1l49.5 2l51.5 2h2z" />
    <glyph glyph-name="Idotaccent" unicode="&#x130;" horiz-adv-x="577" 
d="M459 136q26 0 45 -19t19 -45q1 -27 -18 -46.5t-45 -19.5q-26 -1 -50 -1.5t-48 -2.5q-29 -2 -56.5 -3t-55.5 -1q-37 0 -74.5 3t-75.5 12q-26 5 -40.5 28t-9.5 49q6 26 29 40.5t49 9.5q20 -5 39 -7l39 -4q3 87 2.5 166.5t-2.5 162.5q0 25 -0.5 50t-0.5 51q-4 0 -7.5 0.5
t-7.5 0.5q-19 1 -37 1.5t-36 1.5q-27 0 -45.5 19.5t-17.5 46.5q0 27 19.5 45.5t46.5 18.5q19 -1 37.5 -1.5t38.5 -1.5q60 -3 122.5 -3.5t131.5 10.5q27 5 48.5 -11t26.5 -43q4 -26 -11.5 -48t-42.5 -26q-36 -6 -70 -8.5t-66 -3.5q0 -25 0.5 -49t0.5 -48q2 -79 2.5 -160
t-2.5 -169h10t10 1l49.5 2l51.5 2h2zM320 804q9 -9 9 -21q0 -13 -9 -20q-5 -5 -11 -8q-8 -4 -21 -4t-20 4q-7 3 -12 8q-8 7 -8 20t8 21q5 5 12 8q4 2 9.5 2.5t10.5 0.5q6 0 11 -0.5t10 -2.5q6 -3 11 -8z" />
    <glyph glyph-name="Ccircumflex" unicode="&#x108;" horiz-adv-x="597" 
d="M312 -2q-19 0 -38 3q-51 7 -93.5 31t-73.5 65q-69 89 -67 243q2 173 73 265q34 44 82 69q43 21 93 24q40 2 79.5 -7.5t74.5 -29.5q39 -23 62.5 -53.5t27.5 -63.5q3 -27 -13.5 -48t-43.5 -24q-26 -4 -46.5 12t-25.5 42q-2 4 -12 13t-28 17q-21 9 -42.5 11.5t-41.5 -1.5
q-35 -7 -56.5 -33t-33 -59.5t-15.5 -70t-4 -65.5q-2 -107 40 -162q31 -40 81 -46q24 -3 49 1t48 15q20 10 30 20.5t12 17.5q7 26 30 40t49 7t40 -30t7 -49q-10 -40 -43 -74q-14 -14 -30.5 -26t-36.5 -22q-64 -32 -134 -32zM392 704q-11 0 -20.5 4t-17.5 13q-17 20 -34.5 38
t-31.5 30q-9 -11 -20 -26.5t-20 -31.5q-11 -18 -31 -23t-38 6t-23 31t6 38q1 1 10.5 16t23.5 34q22 30 42.5 48t45.5 18q20 0 41.5 -13.5t56.5 -48.5l33 -34t15 -16q14 -16 12.5 -36.5t-17.5 -34.5q-15 -12 -33 -12z" />
    <glyph glyph-name="ccircumflex" unicode="&#x109;" horiz-adv-x="577" 
d="M282 -2q-39 0 -75 12q-42 13 -76 41t-57 69q-47 86 -43 215q5 152 69 248q30 45 71.5 73.5t89.5 37.5q37 8 74.5 1.5t70.5 -24.5q69 -38 101 -113q11 -25 0.5 -49.5t-35.5 -35.5t-49.5 -1t-35.5 35q-14 33 -42 49.5t-60 10.5q-45 -9 -77 -56q-22 -32 -34 -77.5
t-14 -102.5q-1 -24 1.5 -54t11.5 -59t26 -52.5t47 -32.5q22 -7 48 -4.5t51 13t47 27.5t37 39q14 23 40.5 28t49.5 -9q22 -15 27.5 -41.5t-9.5 -48.5q-26 -38 -63 -68.5t-82 -48.5q-27 -11 -55 -16.5t-55 -5.5zM390 704q-11 0 -20.5 4t-17.5 13q-17 20 -34.5 38t-31.5 30
q-9 -11 -20 -26.5t-20 -31.5q-11 -18 -31 -23t-38 6t-23 31t6 38q1 1 10.5 16t23.5 34q22 30 42.5 48t45.5 18q20 0 41.5 -13.5t56.5 -48.5l33 -34t15 -16q14 -16 12.5 -36.5t-17.5 -34.5q-15 -12 -33 -12z" />
    <glyph glyph-name="Edotaccent" unicode="&#x116;" horiz-adv-x="604" 
d="M343 568q-70 3 -104 -1t-46 -8q-3 -28 -6.5 -75.5t-5.5 -102.5q69 -2 137 0t134 10q26 3 47 -14t24 -44t-14 -48t-43 -23q-107 -12 -218 -12h-34t-34 1q2 -51 5.5 -78.5t5.5 -38.5q14 -2 48.5 -4t101.5 1q27 1 51 2.5t43 3t30.5 2.5l11.5 1q26 3 47 -14t24 -44
q3 -26 -14 -47t-44 -24q-1 0 -14 -1l-34 -2.5l-48 -3.5t-56 -3q-18 -1 -34.5 -1.5t-32.5 -0.5q-14 0 -27 0.5t-25 0.5q-74 4 -105 24q-30 19 -45 64q-4 13 -7 29t-6 36q-3 32 -5 72t-1 90q0 43 2 86.5t4.5 81t5 67t5.5 45.5q3 22 16 40t33 31q13 8 28 13.5t35 9.5q26 5 60 8
t76 2q34 0 66 -2t57.5 -4.5t41 -4.5t17.5 -2q27 -4 43.5 -25t12.5 -48q-3 -26 -24.5 -42.5t-48.5 -13.5l-11.5 1.5t-30.5 3.5t-43.5 3.5t-51.5 2.5zM333 804q9 -9 9 -21q0 -13 -9 -20q-5 -5 -11 -8q-8 -4 -21 -4t-20 4q-7 3 -12 8q-8 7 -8 20t8 21q5 5 12 8q4 2 9.5 2.5
t10.5 0.5q6 0 11 -0.5t10 -2.5q6 -3 11 -8z" />
    <glyph glyph-name="Gcircumflex" unicode="&#x11c;" horiz-adv-x="650" 
d="M630 290q-3 26 -24 43t-48 14q-47 -5 -81.5 -4.5t-69.5 2.5q-14 1 -28.5 1.5t-30.5 0.5h-1q-26 0 -45 -18.5t-20 -44.5q-1 -27 18 -46.5t46 -19.5q10 -1 20 -1t20 -1q-9 -27 -37 -52q-41 -36 -84 -36q-34 1 -56 34q-13 19 -24.5 60t-9.5 116q2 114 33 174q19 40 50 52
q15 5 30 4.5t28 -4t23.5 -8.5t16.5 -9q8 -18 24 -30t37 -12q26 0 45 19t19 46q0 12 -5.5 29t-23.5 35q-18 19 -43 32q-27 16 -58 24t-62 8q-23 1 -46 -4t-43 -14q-24 -11 -44.5 -27.5t-37.5 -38.5q-33 -43 -53 -113q-19 -71 -20 -161q-3 -160 55 -249q29 -44 70.5 -67.5
t91.5 -24.5h5q44 0 87.5 17.5t80.5 50.5q35 31 56.5 68.5t26.5 78.5q13 0 26.5 1t27.5 3q27 3 44 24t14 48zM369 704q-11 0 -20.5 4t-17.5 13q-17 20 -34.5 38t-31.5 30q-9 -11 -20 -26.5t-20 -31.5q-11 -18 -31 -23t-38 6t-23 31t6 38q1 1 10.5 16t23.5 34q22 30 42.5 48
t45.5 18q20 0 41.5 -13.5t56.5 -48.5l33 -34t15 -16q14 -16 12.5 -36.5t-17.5 -34.5q-15 -12 -33 -12z" />
    <glyph glyph-name="gcircumflex" unicode="&#x11d;" horiz-adv-x="629" 
d="M583 532q-2 25 -2.5 48t-0.5 32q3 20 -4 38q-11 25 -35.5 35t-49.5 -1q-17 -7 -27.5 -21t-12.5 -32q0 -3 -0.5 -5.5t-0.5 -6.5v-3q-38 39 -83 60.5t-93 21.5q-50 0 -92.5 -22.5t-72.5 -66.5q-61 -85 -64 -237q-1 -86 20 -154q21 -67 63 -110q29 -29 68 -46q37 -14 77 -14
q49 0 96.5 21.5t85.5 61.5q2 0 2 2l-2 -51t-3 -48q-4 -46 -20.5 -75t-37.5 -45.5t-41.5 -23.5t-30.5 -9q-20 -4 -42.5 -2.5t-44.5 10.5t-42 26t-33 45q-11 25 -36.5 34t-49.5 -3q-25 -11 -33.5 -36.5t2.5 -50.5q43 -89 131 -130q28 -13 58 -19t61 -6q14 0 26.5 1t26.5 3
q46 8 85.5 30t71.5 55q69 75 78 185q5 64 6.5 133.5t1 137t-2.5 129t-3 109.5zM361 221q-20 -20 -43 -32t-45 -12q-30 0 -53 23t-34.5 66.5t-10.5 103.5q2 69 14 107.5t26 56.5q24 34 59 34q22 0 44.5 -12.5t42.5 -35.5q25 -28 38.5 -65.5t15.5 -81.5q2 -45 -12 -84t-42 -68
zM370 707q-11 0 -20.5 4t-17.5 13q-17 20 -34.5 38t-31.5 30q-9 -11 -20 -26.5t-20 -31.5q-11 -18 -31 -23t-38 6t-23 31t6 38q1 1 10.5 16t23.5 34q22 30 42.5 48t45.5 18q20 0 41.5 -13.5t56.5 -48.5l33 -34t15 -16q14 -16 12.5 -36.5t-17.5 -34.5q-15 -12 -33 -12z" />
    <glyph glyph-name="Hcircumflex" unicode="&#x124;" horiz-adv-x="596" 
d="M486 693q-26 4 -47.5 -12.5t-25.5 -42.5q-10 -71 -13 -137.5t-2 -131.5q-51 -8 -100 -6.5t-103 9.5q-1 67 -3.5 133t-7.5 133q-2 26 -22.5 43.5t-47.5 15.5t-44.5 -22t-15.5 -47q11 -142 12 -281.5t-9 -278.5q-2 -26 16 -46.5t45 -22.5h4q26 0 44.5 17.5t20.5 43.5
q3 45 5 90t3 91q29 -4 54 -6t49 -2q5 -1 8.5 -1h7.5q44 0 88 6q1 -14 1 -28t1 -28q2 -29 3 -60l2 -61q1 -26 20 -44.5t45 -18.5h2q27 1 45.5 20.5t17.5 46.5l-2 62t-3 61q-5 108 -6.5 213t14.5 219q4 27 -12.5 48t-43.5 25zM392 704q-11 0 -20.5 4t-17.5 13q-17 20 -34.5 38
t-31.5 30q-9 -11 -20 -26.5t-20 -31.5q-11 -18 -31 -23t-38 6t-23 31t6 38q1 1 10.5 16t23.5 34q22 30 42.5 48t45.5 18q20 0 41.5 -13.5t56.5 -48.5l33 -34t15 -16q14 -16 12.5 -36.5t-17.5 -34.5q-15 -12 -33 -12z" />
    <glyph glyph-name="hcircumflex" unicode="&#x125;" horiz-adv-x="600" 
d="M517 1q-26 0 -44.5 17.5t-20.5 43.5l-1.5 19t-5 50t-9 71t-14.5 82q-21 96 -46 151q-15 33 -25 43t-12 11q-2 -1 -14 -11t-32 -45q-31 -55 -60 -152q-13 -42 -23 -82.5t-17 -72.5t-10.5 -51.5l-3.5 -19.5q-5 -25 -24 -40.5t-45 -13.5q-25 2 -42 20t-18 44l-11 620
q-1 27 18 46t46 20t46 -18t20 -46l4 -204l8 15.5t9 15.5q14 23 28.5 40.5t30.5 30.5q28 22 52.5 28.5t41.5 5.5q51 -3 91 -40q29 -28 53 -74q35 -70 59 -183q10 -47 17 -91.5t11 -79.5t6 -57t2 -24q2 -26 -16 -46.5t-44 -22.5h-5zM440 664q-11 0 -20.5 4t-17.5 13
q-17 20 -34.5 38t-31.5 30q-9 -11 -20 -26.5t-20 -31.5q-11 -18 -31 -23t-38 6t-23 31t6 38q1 1 10.5 16t23.5 34q22 30 42.5 48t45.5 18q20 0 41.5 -13.5t56.5 -48.5l33 -34t15 -16q14 -16 12.5 -36.5t-17.5 -34.5q-15 -12 -33 -12z" />
    <glyph glyph-name="Jcircumflex" unicode="&#x134;" horiz-adv-x="572" 
d="M544 645q-4 27 -25.5 43t-48.5 12q-48 -7 -92.5 -10.5t-87.5 -4t-86.5 1.5t-89.5 6q-26 2 -46.5 -15.5t-22.5 -43.5q-2 -27 15 -47.5t44 -22.5q40 -4 77 -5.5t74 -2.5q28 -62 41 -122t13.5 -112.5t-9 -93.5t-24.5 -64q-13 -18 -27 -27.5t-24 -4.5q-8 3 -16.5 14.5
t-15.5 34.5t-10 66.5t9 113.5q5 27 -10.5 48.5t-42.5 26.5q-26 5 -48 -10.5t-27 -42.5q-24 -143 4 -238q14 -50 42 -84t66 -50q26 -10 55 -10q33 0 62 13q53 21 90 77q30 45 44.5 109t11.5 140q-3 73 -23 152l-10.5 34l-11.5 34q23 2 46.5 5l48.5 6q27 5 43 26.5t12 47.5z
M380 716q-11 0 -20.5 4t-17.5 13q-17 20 -34.5 38t-31.5 30q-9 -11 -20 -26.5t-20 -31.5q-11 -18 -31 -23t-38 6t-23 31t6 38q1 1 10.5 16t23.5 34q22 30 42.5 48t45.5 18q20 0 41.5 -13.5t56.5 -48.5l33 -34t15 -16q14 -16 12.5 -36.5t-17.5 -34.5q-15 -12 -33 -12z" />
    <glyph glyph-name="jcircumflex" unicode="&#x135;" horiz-adv-x="347" 
d="M247 434q-2 27 -22 44.5t-47 15.5t-44.5 -22.5t-15.5 -46.5l2 -31.5t3 -32.5q6 -65 10 -135.5t-5 -137.5t-36.5 -125t-84.5 -98q-22 -16 -26.5 -42.5t11.5 -48.5q10 -14 24 -20.5t29 -6.5q20 0 38 12q77 55 120 137q37 72 52 163q12 81 8 161t-10 152q-2 17 -3 32.5
t-3 29.5zM275 504q-11 0 -20.5 4t-17.5 13q-17 20 -34.5 38t-31.5 30q-9 -11 -20 -26.5t-20 -31.5q-11 -18 -31 -23t-38 6t-23 31t6 38q1 1 10.5 16t23.5 34q22 30 42.5 48t45.5 18q20 0 41.5 -13.5t56.5 -48.5l33 -34t15 -16q14 -16 12.5 -36.5t-17.5 -34.5
q-15 -12 -33 -12z" />
    <glyph glyph-name="Wcircumflex" unicode="&#x174;" horiz-adv-x="774" 
d="M546 -1q-16 0 -37.5 9t-40.5 39q-9 16 -18 38.5t-19 56.5q-9 31 -19.5 73.5l-24.5 100.5q-10 -41 -19.5 -75.5t-19.5 -64.5q-11 -34 -21.5 -60t-20.5 -46q-10 -19 -26 -38.5t-42 -26.5q-33 -8 -61 11q-29 20 -46 73q-7 20 -13 46t-13 61q-14 71 -28.5 175.5t-30.5 244.5
q-3 26 14 47t44 24t48 -13.5t24 -43.5q14 -124 26.5 -219t24.5 -163l3 -15q2 5 2.5 8.5t2.5 8.5q22 72 44 170t45 220q4 23 22 38t41 15t41 -14.5t23 -37.5q29 -144 50.5 -241t37.5 -160q2 -8 3 -11l2 10.5l2 11.5q13 69 26 166t27 224q3 27 24 44t48 14t43.5 -24t14.5 -48
q-17 -152 -32.5 -261.5t-31.5 -183.5q-15 -72 -31 -110l-8 -16.5t-14 -22t-22 -21t-31 -12.5q-2 0 -5.5 -0.5t-7.5 -0.5zM481 709q-11 0 -20.5 4t-17.5 13q-17 20 -34.5 38t-31.5 30q-9 -11 -20 -26.5t-20 -31.5q-11 -18 -31 -23t-38 6t-23 31t6 38q1 1 10.5 16t23.5 34
q22 30 42.5 48t45.5 18q20 0 41.5 -13.5t56.5 -48.5l33 -34t15 -16q14 -16 12.5 -36.5t-17.5 -34.5q-15 -12 -33 -12z" />
    <glyph glyph-name="Ycircumflex" unicode="&#x176;" horiz-adv-x="532" 
d="M463 694q-25 10 -49.5 -0.5t-35.5 -35.5q-34 -84 -55 -147.5l-39 -121.5q-36 59 -71 126t-56 128q-9 26 -33 37.5t-50 3.5q-26 -9 -37.5 -33t-2.5 -50q17 -48 41.5 -100t52 -101.5t54.5 -93.5l49 -78q-11 -31 -25 -65l-31 -73q-11 -25 -1.5 -50t34.5 -36q12 -6 26 -6
q19 0 35 10.5t24 28.5q21 46 37 86.5t29 77t23.5 70.5l21.5 68l18.5 59l20.5 63t25 69.5l31 78.5q10 25 -0.5 49.5t-35.5 35.5zM355 704q-11 0 -20.5 4t-17.5 13q-17 20 -34.5 38t-31.5 30q-9 -11 -20 -26.5t-20 -31.5q-11 -18 -31 -23t-38 6t-23 31t6 38q1 1 10.5 16
t23.5 34q22 30 42.5 48t45.5 18q20 0 41.5 -13.5t56.5 -48.5l33 -34t15 -16q14 -16 12.5 -36.5t-17.5 -34.5q-15 -12 -33 -12z" />
    <glyph glyph-name="edotaccent" unicode="&#x117;" horiz-adv-x="575" 
d="M303 -1q-48 0 -91 15q-90 32 -137 120q-51 92 -42 232q5 74 25.5 135.5t56.5 106.5q34 43 81 68q49 24 99 23q51 -2 96 -27q46 -28 77 -73q33 -46 50 -109t19 -138q0 -28 -21 -49q-22 -19 -50 -17q-54 5 -107.5 2.5t-110.5 -6.5q-20 -2 -41 -3l-42 -2q6 -48 24 -81
q22 -43 66 -59q46 -15 98 0q23 6 41 17.5t28 25.5q15 22 41.5 26.5t48.5 -11.5q22 -15 26.5 -41.5t-10.5 -48.5q-23 -32 -58.5 -55.5t-79.5 -37.5q-22 -6 -43.5 -9.5t-43.5 -3.5zM290 569q-40 0 -73 -42q-14 -17 -27.5 -45.5t-21.5 -74.5l35 2t36 3q40 2 80 4.5t82 2.5
q-6 39 -17 64.5t-22 41.5q-31 44 -71 44h-1zM329 804q9 -9 9 -21q0 -13 -9 -20q-5 -5 -11 -8q-8 -4 -21 -4t-20 4q-7 3 -12 8q-8 7 -8 20t8 21q5 5 12 8q4 2 9.5 2.5t10.5 0.5q6 0 11 -0.5t10 -2.5q6 -3 11 -8z" />
    <glyph glyph-name="kgreenlandic" unicode="&#x138;" horiz-adv-x="576" 
d="M532 128q23 -16 27.5 -42t-11.5 -49q-10 -14 -24 -20.5t-29 -6.5q-20 0 -38 12q-84 59 -152 116l-132 115q-2 -47 -2.5 -93.5t0.5 -93.5q0 -27 -18.5 -46.5t-45.5 -19.5h-1q-27 0 -46 18.5t-19 44.5q-2 62 -0.5 123.5t3.5 121.5q1 46 3 75.5t2.5 55.5t-1 56t-5.5 76
q-2 27 15 47.5t44 22.5t47.5 -15t22.5 -44l4.5 -45.5t2 -25t0 -24.5t-0.5 -45l135 40.5t133 48.5q25 11 49.5 1t35.5 -35t0.5 -49.5t-35.5 -35.5q-56 -24 -111 -42l-109 -35l120 -103t136 -104z" />
    <glyph glyph-name="racute" unicode="&#x155;" horiz-adv-x="597" 
d="M119 -3h-3q-27 2 -45 21t-17 46q2 125 -2.5 250.5t-10.5 250.5q-1 16 -1.5 32t-1.5 32q-2 27 16.5 46.5t45.5 21.5t46.5 -16.5t21.5 -45.5q1 -11 1 -23t1 -23q23 40 56 67q73 59 169 33q69 -20 121 -82q26 -30 41.5 -60.5t24.5 -53.5q9 -26 -2 -50t-36 -34q-26 -10 -50 1
t-34 37q-7 18 -17 36.5t-22.5 34.5t-28 28.5t-32.5 17.5q-21 5 -32.5 1.5t-19.5 -9.5q-24 -21 -45 -72q-20 -50 -34 -103.5t-23 -108.5t-14.5 -109t-8.5 -105q-2 -26 -20 -43.5t-44 -17.5zM274 712q-10 0 -19.5 3.5t-16.5 11.5q-14 15 -14 35.5t15 34.5q8 8 16.5 18l18.5 21
l25.5 29.5t30.5 31.5q15 14 35.5 14t35.5 -15q14 -15 13.5 -35.5t-15.5 -34.5q-14 -14 -26 -27.5t-23 -27.5l-21 -23.5t-21 -22.5q-7 -7 -16 -10t-18 -3z" />
    <glyph glyph-name="Ccaron" unicode="&#x10c;" horiz-adv-x="597" 
d="M312 -2q-19 0 -38 3q-51 7 -93.5 31t-73.5 65q-69 89 -67 243q2 173 73 265q34 44 82 69q43 21 93 24q40 2 79.5 -7.5t74.5 -29.5q39 -23 62.5 -53.5t27.5 -63.5q3 -27 -13.5 -48t-43.5 -24q-26 -4 -46.5 12t-25.5 42q-2 4 -12 13t-28 17q-21 9 -42.5 11.5t-41.5 -1.5
q-35 -7 -56.5 -33t-33 -59.5t-15.5 -70t-4 -65.5q-2 -107 40 -162q31 -40 81 -46q24 -3 49 1t48 15q20 10 30 20.5t12 17.5q7 26 30 40t49 7t40 -30t7 -49q-10 -40 -43 -74q-14 -14 -30.5 -26t-36.5 -22q-64 -32 -134 -32zM392 912q18 0 33 -12q16 -14 17.5 -34.5
t-12.5 -36.5q-1 -1 -15 -16l-33 -34q-35 -35 -56.5 -48.5t-41.5 -13.5q-25 0 -45.5 18t-42.5 48q-14 19 -23.5 34t-10.5 16q-11 18 -6 38t23 31t38 6t31 -23q9 -16 20 -31.5t20 -26.5q14 12 31.5 30t34.5 38q8 9 17.5 13t20.5 4z" />
    <glyph glyph-name="ccaron" unicode="&#x10d;" horiz-adv-x="577" 
d="M282 -2q-39 0 -75 12q-42 13 -76 41t-57 69q-47 86 -43 215q5 152 69 248q30 45 71.5 73.5t89.5 37.5q37 8 74.5 1.5t70.5 -24.5q69 -38 101 -113q11 -25 0.5 -49.5t-35.5 -35.5t-49.5 -1t-35.5 35q-14 33 -42 49.5t-60 10.5q-45 -9 -77 -56q-22 -32 -34 -77.5
t-14 -102.5q-1 -24 1.5 -54t11.5 -59t26 -52.5t47 -32.5q22 -7 48 -4.5t51 13t47 27.5t37 39q14 23 40.5 28t49.5 -9q22 -15 27.5 -41.5t-9.5 -48.5q-26 -38 -63 -68.5t-82 -48.5q-27 -11 -55 -16.5t-55 -5.5zM393 912q18 0 33 -12q16 -14 17.5 -34.5t-12.5 -36.5
q-1 -1 -15 -16l-33 -34q-35 -35 -56.5 -48.5t-41.5 -13.5q-25 0 -45.5 18t-42.5 48q-14 19 -23.5 34t-10.5 16q-11 18 -6 38t23 31t38 6t31 -23q9 -16 20 -31.5t20 -26.5q14 12 31.5 30t34.5 38q8 9 17.5 13t20.5 4z" />
    <glyph glyph-name="Dcaron" unicode="&#x10e;" horiz-adv-x="612" 
d="M155 -1h-39q-27 2 -46 22q-18 21 -16 47q7 130 6 289q0 61 -1.5 127.5t-4.5 146.5q-2 29 18 47q18 20 46 20h3q95 0 179 -29q81 -29 141 -79q58 -48 95 -114q35 -66 41 -134q5 -62 -13.5 -118.5t-60.5 -101.5q-20 -21 -49.5 -43t-71.5 -39.5t-98.5 -29t-128.5 -11.5z
M186 564q2 -57 3 -107.5t1 -98.5q1 -123 -3 -229q75 4 131 24.5t89 56.5q29 32 36 64.5t5 56.5q-4 44 -27.5 85.5t-62.5 73.5q-26 22 -68 43.5t-104 30.5zM400 895q18 0 33 -12q16 -14 17.5 -34.5t-12.5 -36.5q-1 -1 -15 -16l-33 -34q-35 -35 -56.5 -48.5t-41.5 -13.5
q-25 0 -45.5 18t-42.5 48q-14 19 -23.5 34t-10.5 16q-11 18 -6 38t23 31t38 6t31 -23q9 -16 20 -31.5t20 -26.5q14 12 31.5 30t34.5 38q8 9 17.5 13t20.5 4z" />
    <glyph glyph-name="Ecaron" unicode="&#x11a;" horiz-adv-x="604" 
d="M343 568q-70 3 -104 -1t-46 -8q-3 -28 -6.5 -75.5t-5.5 -102.5q69 -2 137 0t134 10q26 3 47 -14t24 -44t-14 -48t-43 -23q-107 -12 -218 -12h-34t-34 1q2 -51 5.5 -78.5t5.5 -38.5q14 -2 48.5 -4t101.5 1q27 1 51 2.5t43 3t30.5 2.5l11.5 1q26 3 47 -14t24 -44
q3 -26 -14 -47t-44 -24q-1 0 -14 -1l-34 -2.5l-48 -3.5t-56 -3q-18 -1 -34.5 -1.5t-32.5 -0.5q-14 0 -27 0.5t-25 0.5q-74 4 -105 24q-30 19 -45 64q-4 13 -7 29t-6 36q-3 32 -5 72t-1 90q0 43 2 86.5t4.5 81t5 67t5.5 45.5q3 22 16 40t33 31q13 8 28 13.5t35 9.5q26 5 60 8
t76 2q34 0 66 -2t57.5 -4.5t41 -4.5t17.5 -2q27 -4 43.5 -25t12.5 -48q-3 -26 -24.5 -42.5t-48.5 -13.5l-11.5 1.5t-30.5 3.5t-43.5 3.5t-51.5 2.5zM393 912q18 0 33 -12q16 -14 17.5 -34.5t-12.5 -36.5q-1 -1 -15 -16l-33 -34q-35 -35 -56.5 -48.5t-41.5 -13.5
q-25 0 -45.5 18t-42.5 48q-14 19 -23.5 34t-10.5 16q-11 18 -6 38t23 31t38 6t31 -23q9 -16 20 -31.5t20 -26.5q14 12 31.5 30t34.5 38q8 9 17.5 13t20.5 4z" />
    <glyph glyph-name="ecaron" unicode="&#x11b;" horiz-adv-x="575" 
d="M303 -1q-48 0 -91 15q-90 32 -137 120q-51 92 -42 232q5 74 25.5 135.5t56.5 106.5q34 43 81 68q49 24 99 23q51 -2 96 -27q46 -28 77 -73q33 -46 50 -109t19 -138q0 -28 -21 -49q-22 -19 -50 -17q-54 5 -107.5 2.5t-110.5 -6.5q-20 -2 -41 -3l-42 -2q6 -48 24 -81
q22 -43 66 -59q46 -15 98 0q23 6 41 17.5t28 25.5q15 22 41.5 26.5t48.5 -11.5q22 -15 26.5 -41.5t-10.5 -48.5q-23 -32 -58.5 -55.5t-79.5 -37.5q-22 -6 -43.5 -9.5t-43.5 -3.5zM391 912q18 0 33 -12q16 -14 17.5 -34.5t-12.5 -36.5q-1 -1 -15 -16l-33 -34
q-35 -35 -56.5 -48.5t-41.5 -13.5q-25 0 -45.5 18t-42.5 48q-14 19 -23.5 34t-10.5 16q-11 18 -6 38t23 31t38 6t31 -23q9 -16 20 -31.5t20 -26.5q14 12 31.5 30t34.5 38q8 9 17.5 13t20.5 4zM290 569q-40 0 -73 -42q-14 -17 -27.5 -45.5t-21.5 -74.5l35 2t36 3q40 2 80 4.5
t82 2.5q-6 39 -17 64.5t-22 41.5q-31 44 -71 44h-1z" />
    <glyph glyph-name="Ncaron" unicode="&#x147;" horiz-adv-x="571" 
d="M127 -2q-26 0 -44.5 17.5t-20.5 43.5q0 1 -1.5 25.5t-3 64.5t-3 90.5t-1.5 103.5q-1 63 0.5 113t4.5 87q5 50 13 77q6 21 15 36q14 22 31 28.5t28 7.5q18 1 32.5 -5t25.5 -15t18 -18.5t10 -14.5l18 -32t21 -42q19 -43 40 -96l42 -107l18 -45.5l17 -43.5q1 24 1 53.5
t1 64.5q0 46 -1 89t-1.5 76.5t-1.5 53.5t-1 21q-1 26 17.5 46t45.5 21t46.5 -17.5t20.5 -45.5l1 -23t1.5 -60.5t1 -85t0.5 -98.5q0 -120 -6 -195q-5 -64 -14.5 -97t-28.5 -50q-25 -22 -58 -19q-27 3 -43.5 20.5t-27.5 34.5q-15 24 -34 68q-17 38 -36 85.5l-39 99.5l-24 62
l-24 60q-1 -52 0 -130l2 -90t2.5 -76t3 -53.5l1.5 -20.5q2 -27 -16.5 -47t-45.5 -22h-3zM379 895q18 0 33 -12q16 -14 17.5 -34.5t-12.5 -36.5q-1 -1 -15 -16l-33 -34q-35 -35 -56.5 -48.5t-41.5 -13.5q-25 0 -45.5 18t-42.5 48q-14 19 -23.5 34t-10.5 16q-11 18 -6 38
t23 31t38 6t31 -23q9 -16 20 -31.5t20 -26.5q14 12 31.5 30t34.5 38q8 9 17.5 13t20.5 4z" />
    <glyph glyph-name="ncaron" unicode="&#x148;" 
d="M138 0h-1q-26 1 -44 18t-20 43l-37 559q-2 27 16 47t45 22t47 -16t22 -45l6 -89q9 22 19 41q27 53 59 82q29 26 55.5 32.5t46.5 5.5q19 -2 44 -11.5t51 -37.5q30 -33 50 -85q32 -79 47 -210q7 -53 10 -104t4 -90.5t1 -65v-27.5q-1 -26 -19.5 -45t-45.5 -19q-1 0 -1 1
q-27 0 -45.5 19.5t-18.5 46.5v23.5t-1 61.5t-4 86.5t-9 98.5q-14 115 -39 177q-12 29 -21 39.5t-12 11.5q-2 -1 -11 -9t-23 -34.5t-31 -75t-35 -130.5q-11 -49 -18.5 -96t-12.5 -84t-7.5 -59.5l-2.5 -22.5q-2 -25 -20.5 -42t-43.5 -17zM438 912q18 0 33 -12
q16 -14 17.5 -34.5t-12.5 -36.5q-1 -1 -15 -16l-33 -34q-35 -35 -56.5 -48.5t-41.5 -13.5q-25 0 -45.5 18t-42.5 48q-14 19 -23.5 34t-10.5 16q-11 18 -6 38t23 31t38 6t31 -23q9 -16 20 -31.5t20 -26.5q14 12 31.5 30t34.5 38q8 9 17.5 13t20.5 4z" />
    <glyph glyph-name="Rcaron" unicode="&#x158;" horiz-adv-x="579" 
d="M471 -2q-19 0 -35 10q-53 34 -90.5 61.5t-66 51t-50 44t-41.5 41.5q-2 -35 -2.5 -71.5t-2.5 -74.5q-1 -26 -20.5 -44.5t-46.5 -17.5t-45.5 21t-17.5 46q3 81 4.5 155t1.5 143t-1.5 134.5t-4.5 130.5q-1 27 17 46.5t44 21.5q81 5 150.5 -4.5t123.5 -33.5q55 -24 90 -60
q38 -41 44 -93q1 -14 -0.5 -33t-10.5 -41t-27.5 -45.5t-51.5 -46.5q-53 -37 -132 -61q16 -17 34.5 -34t42.5 -36.5t55.5 -41.5l73.5 -49q23 -14 28.5 -40t-9.5 -49q-9 -15 -23.5 -22.5t-30.5 -7.5zM186 567q3 -90 3 -183q69 14 108.5 30.5t59.5 30.5q17 12 27 24.5t9 21.5
t-14.5 22.5t-41.5 25.5q-62 26 -151 28zM391 912q18 0 33 -12q16 -14 17.5 -34.5t-12.5 -36.5q-1 -1 -15 -16l-33 -34q-35 -35 -56.5 -48.5t-41.5 -13.5q-25 0 -45.5 18t-42.5 48q-14 19 -23.5 34t-10.5 16q-11 18 -6 38t23 31t38 6t31 -23q9 -16 20 -31.5t20 -26.5
q14 12 31.5 30t34.5 38q8 9 17.5 13t20.5 4z" />
    <glyph glyph-name="rcaron" unicode="&#x159;" horiz-adv-x="597" 
d="M119 -3h-3q-27 2 -45 21t-17 46q2 125 -2.5 250.5t-10.5 250.5q-1 16 -1.5 32t-1.5 32q-2 27 16.5 46.5t45.5 21.5t46.5 -16.5t21.5 -45.5q1 -11 1 -23t1 -23q23 40 56 67q73 59 169 33q69 -20 121 -82q26 -30 41.5 -60.5t24.5 -53.5q9 -26 -2 -50t-36 -34q-26 -10 -50 1
t-34 37q-7 18 -17 36.5t-22.5 34.5t-28 28.5t-32.5 17.5q-21 5 -32.5 1.5t-19.5 -9.5q-24 -21 -45 -72q-20 -50 -34 -103.5t-23 -108.5t-14.5 -109t-8.5 -105q-2 -26 -20 -43.5t-44 -17.5zM427 912q18 0 33 -12q16 -14 17.5 -34.5t-12.5 -36.5q-1 -1 -15 -16l-33 -34
q-35 -35 -56.5 -48.5t-41.5 -13.5q-25 0 -45.5 18t-42.5 48q-14 19 -23.5 34t-10.5 16q-11 18 -6 38t23 31t38 6t31 -23q9 -16 20 -31.5t20 -26.5q14 12 31.5 30t34.5 38q8 9 17.5 13t20.5 4z" />
    <glyph glyph-name="Zcaron" unicode="&#x17d;" horiz-adv-x="538" 
d="M236 -4q-23 0 -42.5 1.5t-36.5 5.5q-28 5 -47.5 14t-32 20.5t-19 24t-9.5 24.5q-10 37 15 92q8 17 19.5 38t27.5 46q29 45 64 93l70 96l41.5 56.5l36.5 50.5q2 2 2.5 4t2.5 4q-31 1 -89 -3q-24 -2 -45 -4t-38 -4q-19 -2 -35 -4q-27 -4 -48 12.5t-25 42.5q-4 27 12 48
t43 25q1 0 13 2t31.5 4l44.5 4.5t52 4.5q52 3 88.5 2.5t61 -4.5t39.5 -11.5t26 -16.5q28 -23 28 -60q0 -15 -6 -32t-21.5 -42.5t-42.5 -63l-68 -92.5l-61.5 -85.5l-56.5 -80.5q-19 -29 -30 -48t-16 -30q14 -2 41.5 -3.5t72.5 2.5q46 4 80 9.5t35 5.5q26 4 48 -11t27 -41
t-10 -48.5t-42 -27.5q-1 0 -14.5 -2.5t-35.5 -5.5t-50 -6t-58 -4q-11 -1 -21.5 -1.5t-21.5 -0.5zM380 912q18 0 33 -12q16 -14 17.5 -34.5t-12.5 -36.5q-1 -1 -15 -16l-33 -34q-35 -35 -56.5 -48.5t-41.5 -13.5q-25 0 -45.5 18t-42.5 48q-14 19 -23.5 34t-10.5 16
q-11 18 -6 38t23 31t38 6t31 -23q9 -16 20 -31.5t20 -26.5q14 12 31.5 30t34.5 38q8 9 17.5 13t20.5 4z" />
    <glyph glyph-name="Scaron" unicode="&#x160;" horiz-adv-x="522" 
d="M249 -1q-26 0 -50.5 4t-47.5 12q-38 12 -64 35q-34 30 -42 72q-5 26 10 48.5t42 27.5q26 5 47.5 -9.5t27.5 -39.5q3 -3 14.5 -9t34.5 -9t47 -1t43 10q27 11 32.5 25.5t3.5 28.5q-2 15 -8.5 26t-19.5 20t-33 17.5t-48 18.5q-31 11 -61.5 23.5t-57.5 33.5q-70 52 -76 145
q-4 57 22 107q25 44 68 72q54 36 128 42q35 2 68 -4.5t61 -20.5q42 -22 65.5 -58t25.5 -81q2 -27 -16.5 -46.5t-45.5 -21.5q-27 -1 -46.5 17.5t-20.5 45.5q-1 5 -3.5 12.5t-17.5 15.5q-13 7 -29.5 9.5t-34 1t-34 -6.5t-29.5 -14q-23 -15 -28 -32t-4 -29q1 -17 6.5 -28.5
t18 -21.5t33 -19t51.5 -20q29 -10 59 -22t56 -31q69 -50 80 -135q6 -44 -8 -84q-14 -38 -43 -65q-47 -46 -127 -58q-12 -2 -24.5 -3t-24.5 -1zM378 912q18 0 33 -12q16 -14 17.5 -34.5t-12.5 -36.5q-1 -1 -15 -16l-33 -34q-35 -35 -56.5 -48.5t-41.5 -13.5q-25 0 -45.5 18
t-42.5 48q-14 19 -23.5 34t-10.5 16q-11 18 -6 38t23 31t38 6t31 -23q9 -16 20 -31.5t20 -26.5q14 12 31.5 30t34.5 38q8 9 17.5 13t20.5 4z" />
    <glyph glyph-name="scaron" unicode="&#x161;" horiz-adv-x="587" 
d="M291 0q-52 0 -102 14q-55 15 -93.5 44t-56.5 69q-11 25 -1.5 50t34.5 36t50 1.5t36 -34.5q6 -13 24.5 -24t45 -18t57.5 -8t62 6q6 1 17.5 4.5t23 9.5t19.5 14.5t8 20.5q0 3 -2.5 10t-19.5 18q-18 12 -44 23t-55 22l-79 33t-73 43q-89 67 -86 173q5 89 67 141
q53 43 131 51q44 5 89.5 -2.5t87.5 -24.5q50 -21 81 -52t40 -69q7 -26 -7.5 -49t-40.5 -30q-26 -6 -48.5 8t-29.5 40q-2 5 -14.5 15t-38.5 20q-28 11 -58.5 14.5t-56.5 -1.5q-26 -4 -40.5 -12.5t-21.5 -18t-8.5 -19.5t-1.5 -16q-1 -20 7 -35t27 -29q23 -17 55.5 -31
l65.5 -28l65.5 -26.5t59.5 -32.5q77 -52 79 -132q2 -74 -55 -124q-45 -39 -114 -54q-20 -5 -41.5 -7.5t-43.5 -2.5zM392 912q18 0 33 -12q16 -14 17.5 -34.5t-12.5 -36.5q-1 -1 -15 -16l-33 -34q-35 -35 -56.5 -48.5t-41.5 -13.5q-25 0 -45.5 18t-42.5 48q-14 19 -23.5 34
t-10.5 16q-11 18 -6 38t23 31t38 6t31 -23q9 -16 20 -31.5t20 -26.5q14 12 31.5 30t34.5 38q8 9 17.5 13t20.5 4z" />
    <glyph glyph-name="Scircumflex" unicode="&#x15c;" horiz-adv-x="522" 
d="M249 -1q-26 0 -50.5 4t-47.5 12q-38 12 -64 35q-34 30 -42 72q-5 26 10 48.5t42 27.5q26 5 47.5 -9.5t27.5 -39.5q3 -3 14.5 -9t34.5 -9t47 -1t43 10q27 11 32.5 25.5t3.5 28.5q-2 15 -8.5 26t-19.5 20t-33 17.5t-48 18.5q-31 11 -61.5 23.5t-57.5 33.5q-70 52 -76 145
q-4 57 22 107q25 44 68 72q54 36 128 42q35 2 68 -4.5t61 -20.5q42 -22 65.5 -58t25.5 -81q2 -27 -16.5 -46.5t-45.5 -21.5q-27 -1 -46.5 17.5t-20.5 45.5q-1 5 -3.5 12.5t-17.5 15.5q-13 7 -29.5 9.5t-34 1t-34 -6.5t-29.5 -14q-23 -15 -28 -32t-4 -29q1 -17 6.5 -28.5
t18 -21.5t33 -19t51.5 -20q29 -10 59 -22t56 -31q69 -50 80 -135q6 -44 -8 -84q-14 -38 -43 -65q-47 -46 -127 -58q-12 -2 -24.5 -3t-24.5 -1zM360 711q-11 0 -20.5 4t-17.5 13q-17 20 -34.5 38t-31.5 30q-9 -11 -20 -26.5t-20 -31.5q-11 -18 -31 -23t-38 6t-23 31t6 38
q1 1 10.5 16t23.5 34q22 30 42.5 48t45.5 18q20 0 41.5 -13.5t56.5 -48.5l33 -34t15 -16q14 -16 12.5 -36.5t-17.5 -34.5q-15 -12 -33 -12z" />
    <glyph glyph-name="scircumflex" unicode="&#x15d;" horiz-adv-x="587" 
d="M291 0q-52 0 -102 14q-55 15 -93.5 44t-56.5 69q-11 25 -1.5 50t34.5 36t50 1.5t36 -34.5q6 -13 24.5 -24t45 -18t57.5 -8t62 6q6 1 17.5 4.5t23 9.5t19.5 14.5t8 20.5q0 3 -2.5 10t-19.5 18q-18 12 -44 23t-55 22l-79 33t-73 43q-89 67 -86 173q5 89 67 141
q53 43 131 51q44 5 89.5 -2.5t87.5 -24.5q50 -21 81 -52t40 -69q7 -26 -7.5 -49t-40.5 -30q-26 -6 -48.5 8t-29.5 40q-2 5 -14.5 15t-38.5 20q-28 11 -58.5 14.5t-56.5 -1.5q-26 -4 -40.5 -12.5t-21.5 -18t-8.5 -19.5t-1.5 -16q-1 -20 7 -35t27 -29q23 -17 55.5 -31
l65.5 -28l65.5 -26.5t59.5 -32.5q77 -52 79 -132q2 -74 -55 -124q-45 -39 -114 -54q-20 -5 -41.5 -7.5t-43.5 -2.5zM398 711q-11 0 -20.5 4t-17.5 13q-17 20 -34.5 38t-31.5 30q-9 -11 -20 -26.5t-20 -31.5q-11 -18 -31 -23t-38 6t-23 31t6 38q1 1 10.5 16t23.5 34
q22 30 42.5 48t45.5 18q20 0 41.5 -13.5t56.5 -48.5l33 -34t15 -16q14 -16 12.5 -36.5t-17.5 -34.5q-15 -12 -33 -12z" />
    <glyph glyph-name="v" unicode="v" horiz-adv-x="534" 
d="M251 -2h-6q-48 3 -81 57q-17 27 -34 78q-14 38 -26.5 89t-26.5 115q-11 53 -19.5 104t-14.5 90.5l-10 65t-4 27.5q-4 27 12.5 48t43.5 25t48 -12.5t25 -43.5l3 -21l8 -55t12.5 -78.5t16.5 -91.5q11 -55 21.5 -100.5t20.5 -81.5q4 -12 7 -22t6 -18q4 8 7.5 18.5t8.5 22.5
q13 36 26.5 82t27.5 102l22.5 92t18 78.5t11.5 55.5l4 21q5 26 27.5 41t48.5 10q27 -5 42 -27.5t10 -48.5q0 -2 -5.5 -28l-14.5 -66.5l-21 -91.5t-27 -105q-33 -130 -65 -204q-22 -52 -40 -77q-22 -31 -44 -40.5t-39 -9.5z" />
    <glyph glyph-name="w" unicode="w" horiz-adv-x="747" 
d="M196 -1q-11 0 -20 3q-28 8 -42 29t-21 39q-11 28 -22 77q-8 38 -15.5 88t-14.5 113q-6 53 -11 103.5t-8.5 90t-5 64l-1.5 24.5q-2 27 16 47t44 22q27 2 47.5 -16t22.5 -45l1.5 -21l4 -55t6.5 -78t9 -91q5 -48 10 -85.5t10 -66.5q17 59 39 151l19.5 90.5t16 77.5t11 54.5
l4.5 20.5q5 24 23.5 39t42.5 14q25 -1 42.5 -17.5t19.5 -41.5l2 -20.5t6.5 -54t11 -76.5t14.5 -89q17 -98 33.5 -151.5t27.5 -79.5q4 13 9.5 33t11.5 48t12 65.5t12 86.5q6 46 9.5 89.5t5.5 76.5t3 53.5l1 20.5q2 27 21.5 45.5t46.5 17.5q26 -2 44.5 -21.5t17.5 -46.5
q0 -2 -1 -27.5t-4 -65.5t-8 -90.5t-12 -104.5q-16 -128 -41 -205q-17 -52 -37 -81q-23 -32 -47 -42t-42 -10q-17 0 -41.5 9t-47.5 40t-42 80q-21 57 -41 144q-18 -72 -35 -124q-20 -63 -37.5 -93.5t-39.5 -44.5q-20 -12 -41 -12z" />
    <glyph glyph-name="x" unicode="x" horiz-adv-x="542" 
d="M463 688q25 -10 35.5 -34.5t0.5 -49.5q-33 -82 -68.5 -151.5t-73.5 -132.5l57 -109l65 -115q14 -23 6.5 -49t-30.5 -40q-15 -9 -32 -9t-32.5 8.5t-24.5 24.5l-47 83.5l-44 80.5l-56.5 -81l-58.5 -79l-7 -10q-21 -27 -52 -27q-20 0 -39 13q-22 16 -26 42.5t12 48.5l8 10
l77 106t75 109q-71 142 -125 283q-10 25 0.5 49.5t36.5 34.5q25 10 49.5 -0.5t34.5 -36.5q19 -49 40 -97.5l44 -98.5q24 44 46.5 91t43.5 100q11 26 35.5 36.5t49.5 -0.5z" />
    <glyph glyph-name="y" unicode="y" horiz-adv-x="530" 
d="M465 688q26 -8 38 -31.5t4 -49.5q-32 -100 -55.5 -184l-43.5 -159l-33.5 -124t-35.5 -118.5t-41.5 -117.5t-51.5 -120q-8 -17 -24 -27t-34 -10q-15 0 -28 6q-25 11 -33.5 36.5t2.5 50.5q19 39 34.5 77.5l29.5 76.5q-1 1 -1 3q-29 81 -47.5 157t-35.5 154l-33 140.5
t-44 165.5q-8 26 5 49t39 31q26 7 49.5 -6t31.5 -38q26 -93 44.5 -169.5l33.5 -143.5l13.5 -58.5l13.5 -57.5q5 19 10.5 37.5t10.5 38.5l44 161.5t56 187.5q8 26 32 38t50 4z" />
    <glyph glyph-name="z" unicode="z" horiz-adv-x="520" 
d="M216 0h-31.5t-26.5 2q-16 1 -28 3t-22 4q-44 12 -60 45q-6 13 -7 25.5t1 23.5t6 20t7 15q5 11 13 25.5t20 32.5l45.5 70l54.5 80l57 83.5l51 77.5l36 60q-15 2 -37.5 3t-56.5 -1q-21 -2 -40.5 -3t-34.5 -3q-18 -2 -32 -3q-27 -4 -48 12.5t-25 43.5q-4 26 13 47.5t43 25.5
q1 0 13.5 1.5t32.5 3l46 3.5t53 2q68 2 110 -6q33 -4 53 -16q25 -12 36 -27.5t15 -28.5q8 -23 2 -45t-15 -42q-7 -16 -17.5 -35t-24.5 -42q-26 -42 -58 -89l-65 -95l-46 -67.5l-40 -59.5q-2 -5 -5 -8.5t-5 -7.5q17 -1 39 -0.5t51 2.5q24 1 46.5 2.5t39 3l27 2.5l10.5 1
q27 2 47.5 -15t23.5 -44q3 -26 -14 -47t-44 -24q-1 0 -14.5 -1l-34.5 -2.5l-48 -3.5t-56 -3q-15 -1 -29 -1h-27z" />
    <glyph glyph-name="ydieresis" unicode="&#xff;" horiz-adv-x="530" 
d="M465 688q26 -8 38 -31.5t4 -49.5q-32 -100 -55.5 -184l-43.5 -159l-33.5 -124t-35.5 -118.5t-41.5 -117.5t-51.5 -120q-8 -17 -24 -27t-34 -10q-15 0 -28 6q-25 11 -33.5 36.5t2.5 50.5q19 39 34.5 77.5l29.5 76.5q-1 1 -1 3q-29 81 -47.5 157t-35.5 154l-33 140.5
t-44 165.5q-8 26 5 49t39 31q26 7 49.5 -6t31.5 -38q26 -93 44.5 -169.5l33.5 -143.5l13.5 -58.5l13.5 -57.5q5 19 10.5 37.5t10.5 38.5l44 161.5t56 187.5q8 26 32 38t50 4zM243 804q9 -9 9 -21q0 -13 -9 -20q-5 -5 -11 -8q-8 -4 -21 -4t-20 4q-7 3 -12 8q-8 7 -8 20t8 21
q5 5 12 8q4 2 9.5 2.5t10.5 0.5q6 0 11 -0.5t10 -2.5q6 -3 11 -8zM360 806q9 -9 9 -21q0 -13 -9 -20q-5 -5 -11 -8q-8 -4 -21 -4t-20 4q-7 3 -12 8q-8 7 -8 20t8 21q5 5 12 8q4 2 9.5 2.5t10.5 0.5q6 0 11 -0.5t10 -2.5q6 -3 11 -8z" />
    <glyph glyph-name="yacute" unicode="&#xfd;" horiz-adv-x="530" 
d="M465 688q26 -8 38 -31.5t4 -49.5q-32 -100 -55.5 -184l-43.5 -159l-33.5 -124t-35.5 -118.5t-41.5 -117.5t-51.5 -120q-8 -17 -24 -27t-34 -10q-15 0 -28 6q-25 11 -33.5 36.5t2.5 50.5q19 39 34.5 77.5l29.5 76.5q-1 1 -1 3q-29 81 -47.5 157t-35.5 154l-33 140.5
t-44 165.5q-8 26 5 49t39 31q26 7 49.5 -6t31.5 -38q26 -93 44.5 -169.5l33.5 -143.5l13.5 -58.5l13.5 -57.5q5 19 10.5 37.5t10.5 38.5l44 161.5t56 187.5q8 26 32 38t50 4zM225 699q-10 0 -19.5 3.5t-16.5 11.5q-14 15 -14 35.5t15 34.5q8 8 16.5 18l18.5 21l25.5 29.5
t30.5 31.5q15 14 35.5 14t35.5 -15q14 -15 13.5 -35.5t-15.5 -34.5q-14 -14 -26 -27.5t-23 -27.5l-21 -23.5t-21 -22.5q-7 -7 -16 -10t-18 -3z" />
    <glyph glyph-name="ij" unicode="&#x133;" horiz-adv-x="531" 
d="M191 439q10 -60 8.5 -120t-4.5 -115q-2 -38 -3 -73t3 -58q4 -27 -12 -48.5t-43 -25.5q-3 -1 -10 -1q-23 0 -41.5 15.5t-22.5 39.5q-5 34 -4 74t4 84q2 50 3 103.5t-7 103.5q-4 26 12 48t42 27q26 4 48 -12t27 -42zM207 669q21 -24 21 -52q0 -29 -21 -53q-13 -13 -29 -20
q-23 -10 -53 -10q-14 0 -28 2.5t-25 7.5q-9 4 -16 9t-13 11q-21 22 -21 53q0 29 21 52q6 6 13 11t16 9q11 5 25 7.5t28 2.5q30 0 53 -10q16 -8 29 -20zM466 434q2 -14 3 -29.5t3 -32.5q6 -72 10 -152t-8 -161q-15 -91 -52 -163q-43 -82 -120 -137q-18 -12 -38 -12
q-15 0 -29 6.5t-24 20.5q-16 22 -11.5 48.5t26.5 42.5q57 40 84.5 98t36.5 125t5 137.5t-10 135.5q-2 17 -3 32.5l-2 31.5q-2 26 15.5 46.5t44.5 22.5t47 -15.5t22 -44.5zM484 673q26 -23 26 -57t-26 -58q-6 -5 -14 -9.5t-16 -8.5q-24 -9 -55 -9q-30 0 -54 9q-18 7 -30 18
q-26 24 -26 58t26 57q12 10 30 18q24 9 54 9q31 0 55 -9q8 -4 16 -8.5t14 -9.5z" />
    <glyph glyph-name="wcircumflex" unicode="&#x175;" horiz-adv-x="747" 
d="M196 -1q-11 0 -20 3q-28 8 -42 29t-21 39q-11 28 -22 77q-8 38 -15.5 88t-14.5 113q-6 53 -11 103.5t-8.5 90t-5 64l-1.5 24.5q-2 27 16 47t44 22q27 2 47.5 -16t22.5 -45l1.5 -21l4 -55t6.5 -78t9 -91q5 -48 10 -85.5t10 -66.5q17 59 39 151l19.5 90.5t16 77.5t11 54.5
l4.5 20.5q5 24 23.5 39t42.5 14q25 -1 42.5 -17.5t19.5 -41.5l2 -20.5t6.5 -54t11 -76.5t14.5 -89q17 -98 33.5 -151.5t27.5 -79.5q4 13 9.5 33t11.5 48t12 65.5t12 86.5q6 46 9.5 89.5t5.5 76.5t3 53.5l1 20.5q2 27 21.5 45.5t46.5 17.5q26 -2 44.5 -21.5t17.5 -46.5
q0 -2 -1 -27.5t-4 -65.5t-8 -90.5t-12 -104.5q-16 -128 -41 -205q-17 -52 -37 -81q-23 -32 -47 -42t-42 -10q-17 0 -41.5 9t-47.5 40t-42 80q-21 57 -41 144q-18 -72 -35 -124q-20 -63 -37.5 -93.5t-39.5 -44.5q-20 -12 -41 -12zM455 709q-11 0 -20.5 4t-17.5 13
q-17 20 -34.5 38t-31.5 30q-9 -11 -20 -26.5t-20 -31.5q-11 -18 -31 -23t-38 6t-23 31t6 38q1 1 10.5 16t23.5 34q22 30 42.5 48t45.5 18q20 0 41.5 -13.5t56.5 -48.5l33 -34t15 -16q14 -16 12.5 -36.5t-17.5 -34.5q-15 -12 -33 -12z" />
    <glyph glyph-name="ycircumflex" unicode="&#x177;" horiz-adv-x="530" 
d="M465 688q-26 8 -50 -4t-32 -38q-32 -102 -56 -187.5l-44 -161.5q-5 -20 -10.5 -38.5t-10.5 -37.5l-13.5 57.5l-13.5 58.5l-33.5 143.5t-44.5 169.5q-8 25 -31.5 38t-49.5 6q-26 -8 -39 -31t-5 -49q26 -91 44 -165.5l33 -140.5q17 -78 35.5 -154t47.5 -157q0 -2 1 -3
l-29.5 -76.5t-34.5 -77.5q-11 -25 -2.5 -50.5t33.5 -36.5q13 -6 28 -6q18 0 34 10t24 27q29 61 51.5 120t41.5 117.5t35.5 118.5l33.5 124l43.5 159t55.5 184q8 26 -4 49.5t-38 31.5zM366 709q-11 0 -20.5 4t-17.5 13q-17 20 -34.5 38t-31.5 30q-9 -11 -20 -26.5t-20 -31.5
q-11 -18 -31 -23t-38 6t-23 31t6 38q1 1 10.5 16t23.5 34q22 30 42.5 48t45.5 18q20 0 41.5 -13.5t56.5 -48.5l33 -34t15 -16q14 -16 12.5 -36.5t-17.5 -34.5q-15 -12 -33 -12z" />
    <glyph glyph-name="zacute" unicode="&#x17a;" horiz-adv-x="520" 
d="M216 0h-31.5t-26.5 2q-16 1 -28 3t-22 4q-44 12 -60 45q-6 13 -7 25.5t1 23.5t6 20t7 15q5 11 13 25.5t20 32.5l45.5 70l54.5 80l57 83.5l51 77.5l36 60q-15 2 -37.5 3t-56.5 -1q-21 -2 -40.5 -3t-34.5 -3q-18 -2 -32 -3q-27 -4 -48 12.5t-25 43.5q-4 26 13 47.5t43 25.5
q1 0 13.5 1.5t32.5 3l46 3.5t53 2q68 2 110 -6q33 -4 53 -16q25 -12 36 -27.5t15 -28.5q8 -23 2 -45t-15 -42q-7 -16 -17.5 -35t-24.5 -42q-26 -42 -58 -89l-65 -95l-46 -67.5l-40 -59.5q-2 -5 -5 -8.5t-5 -7.5q17 -1 39 -0.5t51 2.5q24 1 46.5 2.5t39 3l27 2.5l10.5 1
q27 2 47.5 -15t23.5 -44q3 -26 -14 -47t-44 -24q-1 0 -14.5 -1l-34.5 -2.5l-48 -3.5t-56 -3q-15 -1 -29 -1h-27zM233 706q-10 0 -19.5 3.5t-16.5 11.5q-14 15 -14 35.5t15 34.5q8 8 16.5 18l18.5 21l25.5 29.5t30.5 31.5q15 14 35.5 14t35.5 -15q14 -15 13.5 -35.5
t-15.5 -34.5q-14 -14 -26 -27.5t-23 -27.5l-21 -23.5t-21 -22.5q-7 -7 -16 -10t-18 -3z" />
    <glyph glyph-name="zdotaccent" unicode="&#x17c;" horiz-adv-x="520" 
d="M216 0h-31.5t-26.5 2q-16 1 -28 3t-22 4q-44 12 -60 45q-6 13 -7 25.5t1 23.5t6 20t7 15q5 11 13 25.5t20 32.5l45.5 70l54.5 80l57 83.5l51 77.5l36 60q-15 2 -37.5 3t-56.5 -1q-21 -2 -40.5 -3t-34.5 -3q-18 -2 -32 -3q-27 -4 -48 12.5t-25 43.5q-4 26 13 47.5t43 25.5
q1 0 13.5 1.5t32.5 3l46 3.5t53 2q68 2 110 -6q33 -4 53 -16q25 -12 36 -27.5t15 -28.5q8 -23 2 -45t-15 -42q-7 -16 -17.5 -35t-24.5 -42q-26 -42 -58 -89l-65 -95l-46 -67.5l-40 -59.5q-2 -5 -5 -8.5t-5 -7.5q17 -1 39 -0.5t51 2.5q24 1 46.5 2.5t39 3l27 2.5l10.5 1
q27 2 47.5 -15t23.5 -44q3 -26 -14 -47t-44 -24q-1 0 -14.5 -1l-34.5 -2.5l-48 -3.5t-56 -3q-15 -1 -29 -1h-27zM301 804q9 -9 9 -21q0 -13 -9 -20q-5 -5 -11 -8q-8 -4 -21 -4t-20 4q-7 3 -12 8q-8 7 -8 20t8 21q5 5 12 8q4 2 9.5 2.5t10.5 0.5q6 0 11 -0.5t10 -2.5
q6 -3 11 -8z" />
    <glyph glyph-name="zcaron" unicode="&#x17e;" horiz-adv-x="520" 
d="M216 0h-31.5t-26.5 2q-16 1 -28 3t-22 4q-44 12 -60 45q-6 13 -7 25.5t1 23.5t6 20t7 15q5 11 13 25.5t20 32.5l45.5 70l54.5 80l57 83.5l51 77.5l36 60q-15 2 -37.5 3t-56.5 -1q-21 -2 -40.5 -3t-34.5 -3q-18 -2 -32 -3q-27 -4 -48 12.5t-25 43.5q-4 26 13 47.5t43 25.5
q1 0 13.5 1.5t32.5 3l46 3.5t53 2q68 2 110 -6q33 -4 53 -16q25 -12 36 -27.5t15 -28.5q8 -23 2 -45t-15 -42q-7 -16 -17.5 -35t-24.5 -42q-26 -42 -58 -89l-65 -95l-46 -67.5l-40 -59.5q-2 -5 -5 -8.5t-5 -7.5q17 -1 39 -0.5t51 2.5q24 1 46.5 2.5t39 3l27 2.5l10.5 1
q27 2 47.5 -15t23.5 -44q3 -26 -14 -47t-44 -24q-1 0 -14.5 -1l-34.5 -2.5l-48 -3.5t-56 -3q-15 -1 -29 -1h-27zM368 912q18 0 33 -12q16 -14 17.5 -34.5t-12.5 -36.5q-1 -1 -15 -16l-33 -34q-35 -35 -56.5 -48.5t-41.5 -13.5q-25 0 -45.5 18t-42.5 48q-14 19 -23.5 34
t-10.5 16q-11 18 -6 38t23 31t38 6t31 -23q9 -16 20 -31.5t20 -26.5q14 12 31.5 30t34.5 38q8 9 17.5 13t20.5 4z" />
    <glyph glyph-name="Tcaron" unicode="&#x164;" horiz-adv-x="548" 
d="M524 644q4 -26 -13 -47.5t-43 -24.5q-38 -5 -73 -7t-70 -3q7 -114 5 -218.5t-6 -210.5l-3 -69q-1 -26 -20 -44.5t-45 -18.5h-2q-27 2 -45.5 21.5t-17.5 46.5l3 69q4 106 6 209.5t-5 214.5q-39 1 -75 3h-16.5t-16.5 1q-27 1 -45.5 20.5t-17.5 46.5q2 27 21.5 45.5
t46.5 17.5q8 -1 16.5 -1t16.5 -1q81 -3 160.5 -3.5t166.5 10.5q26 3 47.5 -13.5t24.5 -43.5zM368 902q18 0 33 -12q16 -14 17.5 -34.5t-12.5 -36.5q-1 -1 -15 -16l-33 -34q-35 -35 -56.5 -48.5t-41.5 -13.5q-25 0 -45.5 18t-42.5 48q-14 19 -23.5 34t-10.5 16q-11 18 -6 38
t23 31t38 6t31 -23q9 -16 20 -31.5t20 -26.5q14 12 31.5 30t34.5 38q8 9 17.5 13t20.5 4z" />
    <glyph glyph-name="ygrave" unicode="&#x1ef3;" horiz-adv-x="530" 
d="M465 688q26 -8 38 -31.5t4 -49.5q-32 -100 -55.5 -184l-43.5 -159l-33.5 -124t-35.5 -118.5t-41.5 -117.5t-51.5 -120q-8 -17 -24 -27t-34 -10q-15 0 -28 6q-25 11 -33.5 36.5t2.5 50.5q19 39 34.5 77.5l29.5 76.5q-1 1 -1 3q-29 81 -47.5 157t-35.5 154l-33 140.5
t-44 165.5q-8 26 5 49t39 31q26 7 49.5 -6t31.5 -38q26 -93 44.5 -169.5l33.5 -143.5l13.5 -58.5l13.5 -57.5q5 19 10.5 37.5t10.5 38.5l44 161.5t56 187.5q8 26 32 38t50 4zM220 699q-10 0 -19.5 3.5t-16.5 11.5q-14 15 -14 35.5t15 34.5q8 8 16.5 18l18.5 21l25.5 29.5
t30.5 31.5q15 14 35.5 14t35.5 -15q14 -15 13.5 -35.5t-15.5 -34.5q-14 -14 -26 -27.5t-23 -27.5l-21 -23.5t-21 -22.5q-7 -7 -16 -10t-18 -3z" />
    <glyph glyph-name="wacute" unicode="&#x1e83;" horiz-adv-x="747" 
d="M196 -1q-11 0 -20 3q-28 8 -42 29t-21 39q-11 28 -22 77q-8 38 -15.5 88t-14.5 113q-6 53 -11 103.5t-8.5 90t-5 64l-1.5 24.5q-2 27 16 47t44 22q27 2 47.5 -16t22.5 -45l1.5 -21l4 -55t6.5 -78t9 -91q5 -48 10 -85.5t10 -66.5q17 59 39 151l19.5 90.5t16 77.5t11 54.5
l4.5 20.5q5 24 23.5 39t42.5 14q25 -1 42.5 -17.5t19.5 -41.5l2 -20.5t6.5 -54t11 -76.5t14.5 -89q17 -98 33.5 -151.5t27.5 -79.5q4 13 9.5 33t11.5 48t12 65.5t12 86.5q6 46 9.5 89.5t5.5 76.5t3 53.5l1 20.5q2 27 21.5 45.5t46.5 17.5q26 -2 44.5 -21.5t17.5 -46.5
q0 -2 -1 -27.5t-4 -65.5t-8 -90.5t-12 -104.5q-16 -128 -41 -205q-17 -52 -37 -81q-23 -32 -47 -42t-42 -10q-17 0 -41.5 9t-47.5 40t-42 80q-21 57 -41 144q-18 -72 -35 -124q-20 -63 -37.5 -93.5t-39.5 -44.5q-20 -12 -41 -12zM315 711q-10 0 -19.5 3.5t-16.5 11.5
q-14 15 -14 35.5t15 34.5q8 8 16.5 18l18.5 21l25.5 29.5t30.5 31.5q15 14 35.5 14t35.5 -15q14 -15 13.5 -35.5t-15.5 -34.5q-14 -14 -26 -27.5t-23 -27.5l-21 -23.5t-21 -22.5q-7 -7 -16 -10t-18 -3z" />
    <glyph glyph-name="wgrave" unicode="&#x1e81;" horiz-adv-x="747" 
d="M196 -1q-11 0 -20 3q-28 8 -42 29t-21 39q-11 28 -22 77q-8 38 -15.5 88t-14.5 113q-6 53 -11 103.5t-8.5 90t-5 64l-1.5 24.5q-2 27 16 47t44 22q27 2 47.5 -16t22.5 -45l1.5 -21l4 -55t6.5 -78t9 -91q5 -48 10 -85.5t10 -66.5q17 59 39 151l19.5 90.5t16 77.5t11 54.5
l4.5 20.5q5 24 23.5 39t42.5 14q25 -1 42.5 -17.5t19.5 -41.5l2 -20.5t6.5 -54t11 -76.5t14.5 -89q17 -98 33.5 -151.5t27.5 -79.5q4 13 9.5 33t11.5 48t12 65.5t12 86.5q6 46 9.5 89.5t5.5 76.5t3 53.5l1 20.5q2 27 21.5 45.5t46.5 17.5q26 -2 44.5 -21.5t17.5 -46.5
q0 -2 -1 -27.5t-4 -65.5t-8 -90.5t-12 -104.5q-16 -128 -41 -205q-17 -52 -37 -81q-23 -32 -47 -42t-42 -10q-17 0 -41.5 9t-47.5 40t-42 80q-21 57 -41 144q-18 -72 -35 -124q-20 -63 -37.5 -93.5t-39.5 -44.5q-20 -12 -41 -12zM412 708q-9 0 -18 3t-16 10q-11 11 -21 22.5
l-21 23.5q-11 14 -23 27.5t-26 27.5q-15 14 -15.5 34.5t13.5 35.5q15 15 35.5 15t35.5 -14q17 -16 30.5 -31.5l25.5 -29.5l18.5 -21t16.5 -18q15 -14 15 -34.5t-14 -35.5t-36 -15z" />
    <glyph glyph-name="wdieresis" unicode="&#x1e85;" horiz-adv-x="747" 
d="M196 -1q-11 0 -20 3q-28 8 -42 29t-21 39q-11 28 -22 77q-8 38 -15.5 88t-14.5 113q-6 53 -11 103.5t-8.5 90t-5 64l-1.5 24.5q-2 27 16 47t44 22q27 2 47.5 -16t22.5 -45l1.5 -21l4 -55t6.5 -78t9 -91q5 -48 10 -85.5t10 -66.5q17 59 39 151l19.5 90.5t16 77.5t11 54.5
l4.5 20.5q5 24 23.5 39t42.5 14q25 -1 42.5 -17.5t19.5 -41.5l2 -20.5t6.5 -54t11 -76.5t14.5 -89q17 -98 33.5 -151.5t27.5 -79.5q4 13 9.5 33t11.5 48t12 65.5t12 86.5q6 46 9.5 89.5t5.5 76.5t3 53.5l1 20.5q2 27 21.5 45.5t46.5 17.5q26 -2 44.5 -21.5t17.5 -46.5
q0 -2 -1 -27.5t-4 -65.5t-8 -90.5t-12 -104.5q-16 -128 -41 -205q-17 -52 -37 -81q-23 -32 -47 -42t-42 -10q-17 0 -41.5 9t-47.5 40t-42 80q-21 57 -41 144q-18 -72 -35 -124q-20 -63 -37.5 -93.5t-39.5 -44.5q-20 -12 -41 -12zM337 804q9 -9 9 -21q0 -13 -9 -20
q-5 -5 -11 -8q-8 -4 -21 -4t-20 4q-7 3 -12 8q-8 7 -8 20t8 21q5 5 12 8q4 2 9.5 2.5t10.5 0.5q6 0 11 -0.5t10 -2.5q6 -3 11 -8zM454 806q9 -9 9 -21q0 -13 -9 -20q-5 -5 -11 -8q-8 -4 -21 -4t-20 4q-7 3 -12 8q-8 7 -8 20t8 21q5 5 12 8q4 2 9.5 2.5t10.5 0.5q6 0 11 -0.5
t10 -2.5q6 -3 11 -8z" />
    <glyph glyph-name="one" unicode="1" horiz-adv-x="561" 
d="M479 127q27 0 46 -19.5t18 -45.5q0 -27 -19 -46t-45 -19h-1l-386 6q-27 1 -45.5 20t-18.5 46q1 27 20 46t46 18l122 -2l5 83.5t5 101.5q2 55 3 101t1 82q0 18 -0.5 31.5t-1.5 24.5l-10.5 -4t-11.5 -5q-11 -5 -19.5 -8.5l-15.5 -6.5q-8 -4 -15 -7q-24 -12 -49.5 -3.5
t-37.5 32.5t-3.5 49.5t32.5 37.5q1 1 20 9.5l45 19.5q27 11 47 17t34.5 8.5t24.5 2.5t18 -1q9 -1 27 -9.5t30 -36.5q6 -14 9 -33q5 -27 6 -73q2 -37 1 -86t-3 -112q-2 -61 -5 -118t-5 -99l132 -2v0z" />
    <glyph glyph-name="two" unicode="2" horiz-adv-x="551" 
d="M465 -1h-1q-60 1 -127 1.5t-134 2.5q-22 0 -43.5 0.5t-42.5 0.5q-38 2 -57 35q-8 16 -7 33.5t11 32.5l11.5 17.5l29.5 47l40 67.5t44 80q35 66 53.5 111.5t26.5 74.5t9 44t0 20q-8 -2 -26.5 -13.5t-46.5 -37.5q-24 -23 -41 -43l-17 -20q-17 -21 -43.5 -24t-47.5 14
t-24.5 43.5t13.5 47.5q1 1 22 25.5t52 53.5q98 91 175 85q30 -2 55 -18.5t42 -45.5q21 -38 17 -92q-3 -41 -19 -90q-12 -39 -32.5 -86.5t-48.5 -101.5l-38 -69.5l-36 -62.5q60 -1 119 -1.5t113 -2.5q27 0 46 -19.5t18 -46.5q-1 -26 -20 -44.5t-45 -18.5z" />
    <glyph glyph-name="three" unicode="3" horiz-adv-x="540" 
d="M241 -2q-24 0 -49 3q-58 6 -119 30q-25 9 -36 33.5t-2 49.5q10 26 34 37t50 1q43 -16 83.5 -21.5t75.5 0.5q54 8 81 39q5 5 12 17.5t0 26.5q-9 20 -47 34q-20 7 -56.5 12t-96.5 0q-25 -2 -45 13t-24 41q-5 25 9 46t39 28q39 10 69.5 26.5t52 36.5t34 41t15.5 41
q2 8 0.5 17.5t-6.5 13.5q-4 2 -14.5 3.5t-27.5 -1.5q-17 -4 -47 -15.5t-74 -39.5q-23 -15 -49.5 -9.5t-40.5 28.5q-15 23 -9.5 49.5t28.5 40.5q92 59 168 74q51 9 84.5 0t53.5 -22q38 -25 54 -67.5t8 -93.5q-7 -38 -26.5 -74.5t-49.5 -68.5q51 -19 77.5 -46t37.5 -50
q23 -46 14.5 -96.5t-46.5 -92.5q-28 -32 -68.5 -52t-88.5 -28q-14 -2 -28.5 -3.5t-29.5 -1.5z" />
    <glyph glyph-name="four" unicode="4" horiz-adv-x="513" 
d="M356 -2h-2q-26 1 -45 20.5t-18 46.5q1 17 1.5 53.5t0.5 85.5q-8 -1 -16.5 -1t-16.5 -1q-38 -2 -70 -1.5t-57 3.5q-36 3 -57 13q-29 11 -41 27t-17 29q-7 20 -4 43t14 54q8 20 19.5 43t25.5 48q31 53 67 100t69 79q16 15 30.5 26t28.5 18q29 15 52 14t37 -6
q15 -6 24 -15.5t14 -20t7.5 -21t4.5 -16.5q2 -13 3.5 -29l3.5 -37q3 -33 4.5 -78l3.5 -102v-26q23 0 41.5 -16t21.5 -40q4 -26 -12.5 -47.5t-42.5 -25.5q-3 0 -7 -1q0 -54 -0.5 -95t-1.5 -61q-1 -26 -20 -44.5t-45 -18.5zM153 332q17 -2 47.5 -2t79.5 3q4 1 12 1v7
q-1 70 -2.5 117t-3.5 76q-33 -36 -67 -85q-25 -36 -41 -66.5t-25 -50.5z" />
    <glyph glyph-name="five" unicode="5" horiz-adv-x="546" 
d="M256 -1q-84 0 -178 45q-24 11 -33 36.5t2 49.5q11 25 36.5 34t49.5 -3q83 -38 144 -31q46 6 72 35q20 22 23.5 50.5t-10.5 51.5q-20 32 -71 40t-121 -11q-8 -3 -17 -3q-49 0 -80 37q-37 41 -34 128q1 30 4.5 59l6.5 54q2 11 3.5 22.5t1.5 15.5q0 33 25 56q20 19 57 27
t106 7q42 0 83.5 -2.5t68.5 -4.5q7 -1 14 -1h9q27 -1 46 -20t19 -45q0 -27 -19.5 -46t-45.5 -19h-11.5t-20.5 2q-23 2 -58 3.5t-71 2.5q-28 1 -46.5 0.5t-29.5 -2.5q-1 -4 -1 -7.5t-1 -7.5q-3 -20 -6 -43t-4 -45q-1 -23 0 -35q97 19 173 0q87 -23 130 -94q18 -30 25.5 -63.5
t4 -67t-17.5 -66t-38 -59.5q-60 -66 -154 -78q-8 -1 -17 -1.5t-19 -0.5z" />
    <glyph glyph-name="seven" unicode="7" horiz-adv-x="489" 
d="M217 -1q-19 0 -32 8q-23 13 -31 39t6 49q44 80 77 149.5t55 129.5q16 42 24.5 73.5t11.5 53.5t2.5 35.5t-1.5 21.5q-2 2 -15.5 6t-47.5 4q-32 1 -75 -2.5t-98 -9.5q-26 -3 -47 13.5t-24 43.5q-4 27 13 48t44 24q63 7 121 11.5t104 -0.5q54 -4 91 -26q49 -29 61 -84
q10 -46 0 -109.5t-42 -148.5q-24 -64 -59 -138t-82 -158q-8 -16 -23.5 -24.5t-32.5 -8.5z" />
    <glyph glyph-name="zero" unicode="0" horiz-adv-x="564" 
d="M293 -2q-51 0 -98.5 24t-84.5 69q-38 46 -58.5 106t-23.5 131q-1 45 5 87.5t20 80.5q13 37 32.5 68.5t43.5 57.5q35 36 77.5 55.5t87.5 19.5q49 0 91.5 -23t74.5 -68q62 -88 68 -241q3 -63 -4 -111.5t-20 -85.5t-29.5 -62.5t-32.5 -42.5q-30 -32 -68.5 -48.5t-80.5 -16.5
zM294 568q-17 0 -36 -10t-36 -27q-32 -34 -49 -85.5t-15 -113.5q2 -48 15.5 -88.5t36.5 -69.5q18 -23 40 -35t43 -12q31 0 55 26q8 8 17.5 23.5t17.5 40t13 59.5t3 83q-4 72 -17.5 112t-27.5 60q-28 37 -60 37z" />
    <glyph glyph-name="six" unicode="6" horiz-adv-x="556" 
d="M513 259q7 -33 5.5 -60.5t-7.5 -49.5t-15.5 -39.5t-19.5 -29.5q-32 -39 -80.5 -60.5t-107.5 -21.5q-85 0 -151 43q-35 22 -60 56q-26 37 -35 81q-2 9 -3 18.5t-1 18.5q-8 56 -6 114t14 112q16 66 44.5 117.5t69.5 85.5q55 45 124 52q72 9 151 -22q26 -9 37 -33.5t1 -49.5
q-10 -26 -34 -37t-49 -1q-94 34 -148 -10q-23 -20 -40.5 -53.5t-28.5 -75.5q58 28 119 28q38 0 73 -11.5t64 -32.5q64 -49 84 -139zM375 161q20 26 11 71q-18 80 -94 80q-30 0 -59 -13t-47 -35q-15 -20 -18 -42q2 -5 0 -11q1 -3 1 -9q4 -19 16 -33t28.5 -23t36 -13.5
t38.5 -4.5q29 0 51.5 9t35.5 24z" />
    <glyph glyph-name="nine" unicode="9" horiz-adv-x="556" 
d="M43 441q-7 33 -5.5 60.5t7.5 49.5t15.5 39.5t19.5 29.5q32 39 80.5 60.5t107.5 21.5q85 0 151 -43q35 -22 60 -56q26 -37 35 -81q2 -9 3 -18.5t1 -18.5q8 -56 6 -114t-14 -112q-16 -66 -44.5 -117.5t-69.5 -85.5q-55 -45 -124 -52q-72 -9 -151 22q-26 9 -37 33.5t-1 49.5
q10 26 34 37t49 1q94 -34 148 10q23 20 40.5 53.5t28.5 75.5q-58 -28 -119 -28q-38 0 -73 11.5t-64 32.5q-64 49 -84 139zM181 539q-20 -26 -11 -71q18 -80 94 -80q30 0 59 13t47 35q15 19 18 42q-2 5 0 11q-1 3 -1 9q-4 19 -16 33t-28.5 23t-36 13.5t-38.5 4.5
q-29 0 -51.5 -9t-35.5 -24z" />
    <glyph glyph-name="eight" unicode="8" horiz-adv-x="526" 
d="M444 338q26 -29 38.5 -66.5t8.5 -81.5q-8 -94 -76 -146q-59 -45 -140 -45q-53 0 -104 20q-26 11 -48.5 25.5t-39.5 33.5q-26 27 -39 60q-15 36 -12 76q5 78 69 132q-3 3 -6.5 6t-6.5 6q-58 61 -53 148q2 45 22.5 83.5t55.5 64.5q62 45 145 45q53 0 98.5 -18.5t76.5 -52.5
q57 -61 49 -150q-3 -47 -24 -84q-13 -24 -30 -41q5 -4 8.5 -7.5zM165 500q-2 -33 18 -53q14 -14 35.5 -22t45.5 -8q7 0 21 2t28.5 9t26 21.5t13.5 39.5q3 31 -15 51q-13 14 -34 21.5t-46 7.5q-3 0 -17.5 -1.5t-31 -8t-30 -20.5t-14.5 -39zM362 200q2 33 -14 50
q-11 11 -30.5 18t-42.5 7t-44.5 -6t-38.5 -17q-29 -20 -30 -46q-2 -21 15 -39q17 -17 43 -27.5t55 -10.5q14 0 28.5 3t27 11t21 21.5t10.5 35.5z" />
    <glyph glyph-name="exclam" unicode="!" horiz-adv-x="208" 
d="M165 229q-5 -26 -27 -42t-48 -12q-26 5 -42 27t-12 48q4 25 5.5 55.5t1.5 62.5t-1 62.5t-2 55.5q-3 44 -4 84t4 74q4 24 22.5 39.5t41.5 15.5q7 0 10 -1q27 -4 43 -25.5t12 -48.5q-4 -23 -3 -58t3 -73q1 -27 2.5 -60.5t1.5 -69t-1.5 -70t-6.5 -64.5zM161 19
q-7 -7 -21 -14q-15 -7 -37 -7t-37 7q-14 7 -20 14q-15 16 -15 36q0 21 15 38q8 8 20 14q15 7 37 7t37 -7q10 -5 21 -14q14 -17 14 -38q0 -19 -14 -36z" />
    <glyph glyph-name="exclamdown" unicode="&#xa1;" horiz-adv-x="208" 
d="M165 267q5 -30 6.5 -64.5t1.5 -70t-1.5 -69t-2.5 -60.5q-2 -38 -3 -73t3 -58q4 -27 -12 -48.5t-43 -25.5q-3 -1 -10 -1q-23 0 -41.5 15.5t-22.5 39.5q-5 34 -4 74t4 84q1 25 2 55.5t1 62.5t-1.5 62.5t-5.5 55.5q-4 26 12 48t42 27q26 4 48 -12t27 -42zM161 477
q14 -17 14 -36q0 -21 -14 -38q-11 -9 -21 -14q-15 -7 -37 -7t-37 7q-12 6 -20 14q-15 16 -15 38q0 19 15 36q6 7 20 14q15 7 37 7t37 -7q6 -3 11 -6t10 -8z" />
    <glyph glyph-name="ring" unicode="&#x2da;" horiz-adv-x="244" 
d="M126 509q-17 0 -33 5t-29 15q-17 11 -25.5 27t-10.5 34q-2 33 22 60q14 14 34 22.5t42 8.5q37 0 61 -22t27 -59q2 -24 -5 -39.5t-15 -23.5q-26 -28 -68 -28zM126 621q-9 0 -18 -3.5t-14 -9.5q-5 -5 -5.5 -8.5t-0.5 -5.5q1 -11 13 -18t25 -7q16 0 24 8q1 2 3 5.5t1 13.5
q0 2 -0.5 6.5t-3.5 8.5t-8.5 7t-15.5 3z" />
    <glyph glyph-name="Aring" unicode="&#xc5;" horiz-adv-x="650" 
d="M596 286q-11 106 -33 186q-31 108 -85 165q-59 61 -140 61q-20 0 -43 -5t-47.5 -18t-49.5 -36.5t-47 -60.5q-49 -79 -78 -216q-12 -55 -19 -107.5t-10 -94t-4 -68t-1 -28.5q-1 -26 18 -45.5t46 -20.5h1q26 0 45 19t20 45l0.5 13.5t1.5 36t3.5 53t7.5 65.5
q39 -2 78.5 -3.5t80.5 -1.5q32 0 64 1.5t65 3.5q2 -33 3 -62.5t1 -51t-0.5 -34.5l-0.5 -13q-1 -27 17 -46.5t45 -21.5h3q26 0 44.5 18t20.5 44q0 1 0.5 19.5t0.5 49t-2 70.5t-6 84zM205 359q7 29 18.5 65t28 68t38 54t48.5 22q26 0 46 -21q48 -51 72 -188q-64 -5 -126 -4
t-125 4zM345 716q-17 0 -33 5t-29 15q-17 11 -25.5 27t-10.5 34q-2 33 22 60q14 14 34 22.5t42 8.5q37 0 61 -22t27 -59q2 -24 -5 -39.5t-15 -23.5q-26 -28 -68 -28zM345 828q-9 0 -18 -3.5t-14 -9.5q-5 -5 -5.5 -8.5t-0.5 -5.5q1 -11 13 -18t25 -7q16 0 24 8q1 2 3 5.5
t1 13.5q0 2 -0.5 6.5t-3.5 8.5t-8.5 7t-15.5 3z" />
    <glyph glyph-name="aring" unicode="&#xe5;" horiz-adv-x="644" 
d="M605 69q-10 121 -17 262.5t-2 299.5q1 27 -18 46.5t-45 20.5q-25 1 -43.5 -15t-22.5 -40q-62 56 -144 56q-54 0 -105 -25.5t-90 -72.5q-39 -46 -62 -108q-12 -32 -18 -67t-8 -72q-2 -81 22.5 -150.5t74.5 -120.5q19 -20 40.5 -35.5t45.5 -26.5q25 -11 49.5 -16.5
t50.5 -5.5q41 0 84 16q20 9 38.5 21t34.5 29q3 3 4 5q1 -4 1 -11q2 -26 20.5 -43t44.5 -17h5q27 2 44.5 22.5t15.5 47.5zM378 157q-27 -28 -65 -28q-24 0 -48.5 11.5t-44.5 32.5q-31 32 -46.5 77.5t-13.5 99.5q1 51 15.5 91.5t36 69t48.5 43.5t53 15q27 0 48.5 -15.5t37 -45
t24.5 -70.5t9 -92q0 -65 -14 -113.5t-40 -75.5zM310 716q-17 0 -33 5t-29 15q-17 11 -25.5 27t-10.5 34q-2 33 22 60q14 14 34 22.5t42 8.5q37 0 61 -22t27 -59q2 -24 -5 -39.5t-15 -23.5q-26 -28 -68 -28zM310 828q-9 0 -18 -3.5t-14 -9.5q-5 -5 -5.5 -8.5t-0.5 -5.5
q1 -11 13 -18t25 -7q16 0 24 8q1 2 3 5.5t1 13.5q0 2 -0.5 6.5t-3.5 8.5t-8.5 7t-15.5 3z" />
    <glyph glyph-name="Uring" unicode="&#x16e;" horiz-adv-x="602" 
d="M297 -1h-3q-94 2 -157 72q-33 38 -55 98q-10 27 -17 58.5t-11 66.5q-17 139 7 337q3 26 24 43t48 14q26 -4 43 -25t14 -47q-11 -93 -13 -169.5t6 -136.5q8 -68 23 -103t29 -50q22 -27 61 -28q35 0 61 29q14 17 31.5 52.5t28.5 104.5q10 64 9.5 141.5t-11.5 170.5
q-3 26 13.5 47.5t43.5 24.5t48 -13.5t24 -43.5q12 -101 12 -188t-11 -159q-23 -149 -92 -224q-64 -72 -156 -72zM305 709q-17 0 -33 5t-29 15q-17 11 -25.5 27t-10.5 34q-2 33 22 60q14 14 34 22.5t42 8.5q37 0 61 -22t27 -59q2 -24 -5 -39.5t-15 -23.5q-26 -28 -68 -28z
M305 821q-9 0 -18 -3.5t-14 -9.5q-5 -5 -5.5 -8.5t-0.5 -5.5q1 -11 13 -18t25 -7q16 0 24 8q1 2 3 5.5t1 13.5q0 2 -0.5 6.5t-3.5 8.5t-8.5 7t-15.5 3z" />
    <glyph glyph-name="uring" unicode="&#x16f;" 
d="M455 701h1q26 -1 44 -18t20 -43l37 -559q2 -27 -16 -47t-45 -22t-47 16t-22 45l-6 89q-9 -22 -19 -41q-27 -53 -59 -82q-29 -26 -55.5 -32.5t-46.5 -5.5q-19 2 -44 11.5t-51 37.5q-30 33 -50 85q-32 79 -47 210q-7 53 -10 104t-4 90.5t-1 65v27.5q1 26 19.5 45t45.5 19
q1 0 1 -1q27 0 45.5 -19.5t18.5 -46.5v-23.5t1 -61.5t4 -86.5t9 -98.5q14 -115 39 -177q12 -29 21 -39.5t12 -11.5q1 1 10.5 9t23.5 34.5t31 75t35 130.5q11 49 18.5 96t12.5 83.5t7.5 59.5l2.5 23q2 25 20.5 42t43.5 17zM278 709q-17 0 -33 5t-29 15q-17 11 -25.5 27
t-10.5 34q-2 33 22 60q14 14 34 22.5t42 8.5q37 0 61 -22t27 -59q2 -24 -5 -39.5t-15 -23.5q-26 -28 -68 -28zM278 821q-9 0 -18 -3.5t-14 -9.5q-5 -5 -5.5 -8.5t-0.5 -5.5q1 -11 13 -18t25 -7q16 0 24 8q1 2 3 5.5t1 13.5q0 2 -0.5 6.5t-3.5 8.5t-8.5 7t-15.5 3z" />
    <glyph glyph-name="breve" unicode="&#x2d8;" horiz-adv-x="327" 
d="M156 520q-10 0 -15 1q-44 5 -74.5 34t-36.5 73q-2 20 10.5 36.5t32.5 19.5t37 -9.5t19 -33.5q2 -12 10 -16t14 -5q11 -2 24.5 5.5t21.5 29.5q8 20 26.5 28.5t37.5 0.5q20 -8 28.5 -26t1.5 -38q-20 -53 -63 -79q-35 -21 -74 -21z" />
    <glyph glyph-name="Abreve" unicode="&#x102;" horiz-adv-x="650" 
d="M596 286q-11 106 -33 186q-31 108 -85 165q-59 61 -140 61q-20 0 -43 -5t-47.5 -18t-49.5 -36.5t-47 -60.5q-49 -79 -78 -216q-12 -55 -19 -107.5t-10 -94t-4 -68t-1 -28.5q-1 -26 18 -45.5t46 -20.5h1q26 0 45 19t20 45l0.5 13.5t1.5 36t3.5 53t7.5 65.5
q39 -2 78.5 -3.5t80.5 -1.5q32 0 64 1.5t65 3.5q2 -33 3 -62.5t1 -51t-0.5 -34.5l-0.5 -13q-1 -27 17 -46.5t45 -21.5h3q26 0 44.5 18t20.5 44q0 1 0.5 19.5t0.5 49t-2 70.5t-6 84zM205 359q7 29 18.5 65t28 68t38 54t48.5 22q26 0 46 -21q48 -51 72 -188q-64 -5 -126 -4
t-125 4zM325 720q-10 0 -15 1q-44 5 -74.5 34t-36.5 73q-2 20 10.5 36.5t32.5 19.5t37 -9.5t19 -33.5q2 -12 10 -16t14 -5q11 -2 24.5 5.5t21.5 29.5q8 20 26.5 28.5t37.5 0.5q20 -8 28.5 -26t1.5 -38q-20 -53 -63 -79q-35 -21 -74 -21z" />
    <glyph glyph-name="abreve" unicode="&#x103;" horiz-adv-x="644" 
d="M605 69q-10 121 -17 262.5t-2 299.5q1 27 -18 46.5t-45 20.5q-25 1 -43.5 -15t-22.5 -40q-62 56 -144 56q-54 0 -105 -25.5t-90 -72.5q-39 -46 -62 -108q-12 -32 -18 -67t-8 -72q-2 -81 22.5 -150.5t74.5 -120.5q19 -20 40.5 -35.5t45.5 -26.5q25 -11 49.5 -16.5
t50.5 -5.5q41 0 84 16q20 9 38.5 21t34.5 29q3 3 4 5q1 -4 1 -11q2 -26 20.5 -43t44.5 -17h5q27 2 44.5 22.5t15.5 47.5zM378 157q-27 -28 -65 -28q-24 0 -48.5 11.5t-44.5 32.5q-31 32 -46.5 77.5t-13.5 99.5q1 51 15.5 91.5t36 69t48.5 43.5t53 15q27 0 48.5 -15.5t37 -45
t24.5 -70.5t9 -92q0 -65 -14 -113.5t-40 -75.5zM300 720q-10 0 -15 1q-44 5 -74.5 34t-36.5 73q-2 20 10.5 36.5t32.5 19.5t37 -9.5t19 -33.5q2 -12 10 -16t14 -5q11 -2 24.5 5.5t21.5 29.5q8 20 26.5 28.5t37.5 0.5q20 -8 28.5 -26t1.5 -38q-20 -53 -63 -79
q-35 -21 -74 -21z" />
    <glyph glyph-name="Ubreve" unicode="&#x16c;" horiz-adv-x="602" 
d="M297 -1h-3q-94 2 -157 72q-33 38 -55 98q-10 27 -17 58.5t-11 66.5q-17 139 7 337q3 26 24 43t48 14q26 -4 43 -25t14 -47q-11 -93 -13 -169.5t6 -136.5q8 -68 23 -103t29 -50q22 -27 61 -28q35 0 61 29q14 17 31.5 52.5t28.5 104.5q10 64 9.5 141.5t-11.5 170.5
q-3 26 13.5 47.5t43.5 24.5t48 -13.5t24 -43.5q12 -101 12 -188t-11 -159q-23 -149 -92 -224q-64 -72 -156 -72zM292 720q-10 0 -15 1q-44 5 -74.5 34t-36.5 73q-2 20 10.5 36.5t32.5 19.5t37 -9.5t19 -33.5q2 -12 10 -16t14 -5q11 -2 24.5 5.5t21.5 29.5q8 20 26.5 28.5
t37.5 0.5q20 -8 28.5 -26t1.5 -38q-20 -53 -63 -79q-35 -21 -74 -21z" />
    <glyph glyph-name="ubreve" unicode="&#x16d;" 
d="M455 701h1q26 -1 44 -18t20 -43l37 -559q2 -27 -16 -47t-45 -22t-47 16t-22 45l-6 89q-9 -22 -19 -41q-27 -53 -59 -82q-29 -26 -55.5 -32.5t-46.5 -5.5q-19 2 -44 11.5t-51 37.5q-30 33 -50 85q-32 79 -47 210q-7 53 -10 104t-4 90.5t-1 65v27.5q1 26 19.5 45t45.5 19
q1 0 1 -1q27 0 45.5 -19.5t18.5 -46.5v-23.5t1 -61.5t4 -86.5t9 -98.5q14 -115 39 -177q12 -29 21 -39.5t12 -11.5q1 1 10.5 9t23.5 34.5t31 75t35 130.5q11 49 18.5 96t12.5 83.5t7.5 59.5l2.5 23q2 25 20.5 42t43.5 17zM271 720q-10 0 -15 1q-44 5 -74.5 34t-36.5 73
q-2 20 10.5 36.5t32.5 19.5t37 -9.5t19 -33.5q2 -12 10 -16t14 -5q11 -2 24.5 5.5t21.5 29.5q8 20 26.5 28.5t37.5 0.5q20 -8 28.5 -26t1.5 -38q-20 -53 -63 -79q-35 -21 -74 -21z" />
    <glyph glyph-name="Ebreve" unicode="&#x114;" horiz-adv-x="604" 
d="M343 568q27 -1 51.5 -2.5t43.5 -3.5t30.5 -3.5l11.5 -1.5q27 -3 48.5 13.5t24.5 42.5q4 27 -12.5 48t-43.5 25q-2 0 -17.5 2t-41 4.5t-57.5 4.5t-66 2q-42 1 -76 -2t-60 -8q-20 -4 -35 -9.5t-28 -13.5q-20 -13 -33 -31t-16 -40q-3 -16 -5.5 -45.5t-5 -67t-4.5 -81
t-2 -86.5q-1 -50 1 -90t5 -72q3 -20 6 -36t7 -29q15 -45 45 -64q31 -20 105 -24q12 0 25 -0.5t27 -0.5q16 0 32.5 0.5t34.5 1.5q29 1 56 3l48 3.5l34 2.5t14 1q27 3 44 24t14 47q-3 27 -24 44t-47 14l-11.5 -1t-30.5 -2.5t-43 -3t-51 -2.5q-67 -3 -101.5 -1t-48.5 4
q-2 11 -5.5 38.5t-5.5 78.5q17 -1 34 -1h34q111 0 218 12q26 2 43 23t14 48t-24 44t-47 14q-66 -8 -134 -10t-137 0q2 55 5.5 102.5t6.5 75.5q12 4 46 8t104 1zM293 720q-10 0 -15 1q-44 5 -74.5 34t-36.5 73q-2 20 10.5 36.5t32.5 19.5t37 -9.5t19 -33.5q2 -12 10 -16
t14 -5q11 -2 24.5 5.5t21.5 29.5q8 20 26.5 28.5t37.5 0.5q20 -8 28.5 -26t1.5 -38q-20 -53 -63 -79q-35 -21 -74 -21z" />
    <glyph glyph-name="ebreve" unicode="&#x115;" horiz-adv-x="575" 
d="M303 -1q-48 0 -91 15q-90 32 -137 120q-51 92 -42 232q5 74 25.5 135.5t56.5 106.5q34 43 81 68q49 24 99 23q51 -2 96 -27q46 -28 77 -73q33 -46 50 -109t19 -138q0 -28 -21 -49q-22 -19 -50 -17q-54 5 -107.5 2.5t-110.5 -6.5q-20 -2 -41 -3l-42 -2q6 -48 24 -81
q22 -43 66 -59q46 -15 98 0q23 6 41 17.5t28 25.5q15 22 41.5 26.5t48.5 -11.5q22 -15 26.5 -41.5t-10.5 -48.5q-23 -32 -58.5 -55.5t-79.5 -37.5q-22 -6 -43.5 -9.5t-43.5 -3.5zM282 720q-10 0 -15 1q-44 5 -74.5 34t-36.5 73q-2 20 10.5 36.5t32.5 19.5t37 -9.5t19 -33.5
q2 -12 10 -16t14 -5q11 -2 24.5 5.5t21.5 29.5q8 20 26.5 28.5t37.5 0.5q20 -8 28.5 -26t1.5 -38q-20 -53 -63 -79q-35 -21 -74 -21zM290 569q-40 0 -73 -42q-14 -17 -27.5 -45.5t-21.5 -74.5l35 2t36 3q40 2 80 4.5t82 2.5q-6 39 -17 64.5t-22 41.5q-31 44 -71 44h-1z" />
    <glyph glyph-name="Gbreve" unicode="&#x11e;" horiz-adv-x="650" 
d="M630 290q-3 26 -24 43t-48 14q-47 -5 -81.5 -4.5t-69.5 2.5q-14 1 -28.5 1.5t-30.5 0.5h-1q-26 0 -45 -18.5t-20 -44.5q-1 -27 18 -46.5t46 -19.5q10 -1 20 -1t20 -1q-9 -27 -37 -52q-41 -36 -84 -36q-34 1 -56 34q-13 19 -24.5 60t-9.5 116q2 114 33 174q19 40 50 52
q15 5 30 4.5t28 -4t23.5 -8.5t16.5 -9q8 -18 24 -30t37 -12q26 0 45 19t19 46q0 12 -5.5 29t-23.5 35q-18 19 -43 32q-27 16 -58 24t-62 8q-23 1 -46 -4t-43 -14q-24 -11 -44.5 -27.5t-37.5 -38.5q-33 -43 -53 -113q-19 -71 -20 -161q-3 -160 55 -249q29 -44 70.5 -67.5
t91.5 -24.5h5q44 0 87.5 17.5t80.5 50.5q35 31 56.5 68.5t26.5 78.5q13 0 26.5 1t27.5 3q27 3 44 24t14 48zM271 720q-10 0 -15 1q-44 5 -74.5 34t-36.5 73q-2 20 10.5 36.5t32.5 19.5t37 -9.5t19 -33.5q2 -12 10 -16t14 -5q11 -2 24.5 5.5t21.5 29.5q8 20 26.5 28.5
t37.5 0.5q20 -8 28.5 -26t1.5 -38q-20 -53 -63 -79q-35 -21 -74 -21z" />
    <glyph glyph-name="gbreve" unicode="&#x11f;" horiz-adv-x="629" 
d="M583 532q-2 25 -2.5 48t-0.5 32q3 20 -4 38q-11 25 -35.5 35t-49.5 -1q-17 -7 -27.5 -21t-12.5 -32q0 -3 -0.5 -5.5t-0.5 -6.5v-3q-38 39 -83 60.5t-93 21.5q-50 0 -92.5 -22.5t-72.5 -66.5q-61 -85 -64 -237q-1 -86 20 -154q21 -67 63 -110q29 -29 68 -46q37 -14 77 -14
q49 0 96.5 21.5t85.5 61.5q2 0 2 2l-2 -51t-3 -48q-4 -46 -20.5 -75t-37.5 -45.5t-41.5 -23.5t-30.5 -9q-20 -4 -42.5 -2.5t-44.5 10.5t-42 26t-33 45q-11 25 -36.5 34t-49.5 -3q-25 -11 -33.5 -36.5t2.5 -50.5q43 -89 131 -130q28 -13 58 -19t61 -6q14 0 26.5 1t26.5 3
q46 8 85.5 30t71.5 55q69 75 78 185q5 64 6.5 133.5t1 137t-2.5 129t-3 109.5zM361 221q-20 -20 -43 -32t-45 -12q-30 0 -53 23t-34.5 66.5t-10.5 103.5q2 69 14 107.5t26 56.5q24 34 59 34q22 0 44.5 -12.5t42.5 -35.5q25 -28 38.5 -65.5t15.5 -81.5q2 -45 -12 -84t-42 -68
zM271 720q-10 0 -15 1q-44 5 -74.5 34t-36.5 73q-2 20 10.5 36.5t32.5 19.5t37 -9.5t19 -33.5q2 -12 10 -16t14 -5q11 -2 24.5 5.5t21.5 29.5q8 20 26.5 28.5t37.5 0.5q20 -8 28.5 -26t1.5 -38q-20 -53 -63 -79q-35 -21 -74 -21z" />
    <glyph glyph-name="Ibreve" unicode="&#x12c;" horiz-adv-x="577" 
d="M459 136h-2l-51.5 -2l-49.5 -2q-5 -1 -10 -1h-10q3 88 2.5 169t-2.5 160q0 24 -0.5 48t-0.5 49q32 1 66 3.5t70 8.5q27 4 42.5 26t11.5 48q-5 27 -26.5 43t-48.5 11q-69 -11 -131.5 -10.5t-122.5 3.5q-20 1 -38.5 1.5t-37.5 1.5q-27 0 -46.5 -18.5t-19.5 -45.5
q-1 -27 17.5 -46.5t45.5 -19.5q18 -1 36 -1.5t37 -1.5q4 0 7.5 -0.5t7.5 -0.5q0 -26 0.5 -51t0.5 -50q2 -83 2.5 -162.5t-2.5 -166.5l-39 4t-39 7q-26 5 -49 -9.5t-29 -40.5q-5 -26 9.5 -49t40.5 -28q38 -9 75.5 -12t74.5 -3q28 0 55.5 1t56.5 3q24 2 48 2.5t50 1.5
q26 0 45 19.5t18 46.5q0 26 -19 45t-45 19zM280 720q-10 0 -15 1q-44 5 -74.5 34t-36.5 73q-2 20 10.5 36.5t32.5 19.5t37 -9.5t19 -33.5q2 -12 10 -16t14 -5q11 -2 24.5 5.5t21.5 29.5q8 20 26.5 28.5t37.5 0.5q20 -8 28.5 -26t1.5 -38q-20 -53 -63 -79q-35 -21 -74 -21z
" />
    <glyph glyph-name="uni012D" unicode="&#x12d;" horiz-adv-x="314" 
d="M221 439q-5 26 -27 42t-48 12q-26 -5 -42 -27t-12 -48q8 -50 7 -103.5t-3 -103.5q-3 -44 -4 -84t4 -74q4 -24 22.5 -39.5t41.5 -15.5q7 0 10 1q27 4 43 25.5t12 48.5q-4 23 -3 58t3 73q3 55 4.5 115t-8.5 120zM148 520q-10 0 -15 1q-44 5 -74.5 34t-36.5 73
q-2 20 10.5 36.5t32.5 19.5t37 -9.5t19 -33.5q2 -12 10 -16t14 -5q11 -2 24.5 5.5t21.5 29.5q8 20 26.5 28.5t37.5 0.5q20 -8 28.5 -26t1.5 -38q-20 -53 -63 -79q-35 -21 -74 -21z" />
    <glyph glyph-name="Obreve" unicode="&#x14e;" horiz-adv-x="700" 
d="M362 0q-61 0 -115 22q-58 24 -102 67q-45 44 -73 107q-29 66 -32 142q-3 81 21 150q23 64 71 115q45 46 103 71.5t121 25.5q60 0 112.5 -22.5t93.5 -64.5q44 -46 68 -110.5t27 -142.5q2 -54 -6 -97.5t-21.5 -77t-30.5 -58.5t-33 -42q-40 -42 -92.5 -63.5t-111.5 -21.5z
M356 570q-36 0 -70 -15t-60 -42q-30 -31 -44 -74t-12 -95q2 -53 19.5 -93t44.5 -67t60.5 -40.5t67.5 -13.5q66 0 111 45q59 62 54 180q-2 59 -18 100t-40 66.5t-53.5 37t-59.5 11.5zM341 720q-10 0 -15 1q-44 5 -74.5 34t-36.5 73q-2 20 10.5 36.5t32.5 19.5t37 -9.5
t19 -33.5q2 -12 10 -16t14 -5q11 -2 24.5 5.5t21.5 29.5q8 20 26.5 28.5t37.5 0.5q20 -8 28.5 -26t1.5 -38q-20 -53 -63 -79q-35 -21 -74 -21z" />
    <glyph glyph-name="obreve" unicode="&#x14f;" horiz-adv-x="689" 
d="M362 -1q-61 0 -118 22q-29 12 -55 28.5t-49 38.5q-48 45 -77 107q-30 64 -33 142q-2 39 3.5 75.5t17.5 71.5q25 65 71 113q46 49 106.5 75t126.5 26q60 0 112.5 -22t93.5 -64q44 -47 67 -108q12 -32 19 -68.5t8 -77.5q2 -54 -5.5 -97.5t-21 -77.5t-30.5 -58.5t-33 -41.5
q-39 -41 -91 -62.5t-112 -21.5zM355 569q-38 0 -74.5 -16t-64.5 -45q-21 -23 -40 -62.5t-17 -102.5q3 -52 22 -92t47.5 -67.5t63.5 -41.5t70 -14q67 0 110 45q29 29 42.5 75t11.5 106q-2 59 -18 100t-40 66.5t-53.5 37t-59.5 11.5zM338 720q-10 0 -15 1q-44 5 -74.5 34
t-36.5 73q-2 20 10.5 36.5t32.5 19.5t37 -9.5t19 -33.5q2 -12 10 -16t14 -5q11 -2 24.5 5.5t21.5 29.5q8 20 26.5 28.5t37.5 0.5q20 -8 28.5 -26t1.5 -38q-20 -53 -63 -79q-35 -21 -74 -21z" />
    <glyph glyph-name="macron" unicode="&#xaf;" horiz-adv-x="457" 
d="M29 604q0 25 16.5 43.5t42.5 20.5l78 7.5t42 3t22.5 0t20.5 -1.5t36.5 -1.5t69.5 0.5q27 1 47 -18t22 -46t-16.5 -47t-44.5 -22q-52 -3 -77 -4t-37 -1h-18t-18 0.5t-37.5 1t-77.5 -0.5q-26 -1 -47 15.5t-24 42.5v7z" />
    <glyph glyph-name="Amacron" unicode="&#x100;" horiz-adv-x="650" 
d="M596 286q-11 106 -33 186q-31 108 -85 165q-59 61 -140 61q-20 0 -43 -5t-47.5 -18t-49.5 -36.5t-47 -60.5q-49 -79 -78 -216q-12 -55 -19 -107.5t-10 -94t-4 -68t-1 -28.5q-1 -26 18 -45.5t46 -20.5h1q26 0 45 19t20 45l0.5 13.5t1.5 36t3.5 53t7.5 65.5
q39 -2 78.5 -3.5t80.5 -1.5q32 0 64 1.5t65 3.5q2 -33 3 -62.5t1 -51t-0.5 -34.5l-0.5 -13q-1 -27 17 -46.5t45 -21.5h3q26 0 44.5 18t20.5 44q0 1 0.5 19.5t0.5 49t-2 70.5t-6 84zM137 804q0 25 16.5 43.5t42.5 20.5l78 7.5t42 3t22.5 0t20.5 -1.5t36.5 -1.5t69.5 0.5
q27 1 47 -18t22 -46t-16.5 -47t-44.5 -22q-52 -3 -77 -4t-37 -1h-18t-18 0.5t-37.5 1t-77.5 -0.5q-26 -1 -47 15.5t-24 42.5v7zM205 359q7 29 18.5 65t28 68t38 54t48.5 22q26 0 46 -21q48 -51 72 -188q-64 -5 -126 -4t-125 4z" />
    <glyph glyph-name="amacron" unicode="&#x101;" horiz-adv-x="644" 
d="M605 69q-10 121 -17 262.5t-2 299.5q1 27 -18 46.5t-45 20.5q-25 1 -43.5 -15t-22.5 -40q-62 56 -144 56q-54 0 -105 -25.5t-90 -72.5q-39 -46 -62 -108q-12 -32 -18 -67t-8 -72q-2 -81 22.5 -150.5t74.5 -120.5q19 -20 40.5 -35.5t45.5 -26.5q25 -11 49.5 -16.5
t50.5 -5.5q41 0 84 16q20 9 38.5 21t34.5 29q3 3 4 5q1 -4 1 -11q2 -26 20.5 -43t44.5 -17h5q27 2 44.5 22.5t15.5 47.5zM378 157q-27 -28 -65 -28q-24 0 -48.5 11.5t-44.5 32.5q-31 32 -46.5 77.5t-13.5 99.5q1 51 15.5 91.5t36 69t48.5 43.5t53 15q27 0 48.5 -15.5t37 -45
t24.5 -70.5t9 -92q0 -65 -14 -113.5t-40 -75.5zM112 804q0 25 16.5 43.5t42.5 20.5l78 7.5t42 3t22.5 0t20.5 -1.5t36.5 -1.5t69.5 0.5q27 1 47 -18t22 -46t-16.5 -47t-44.5 -22q-52 -3 -77 -4t-37 -1h-18t-18 0.5t-37.5 1t-77.5 -0.5q-26 -1 -47 15.5t-24 42.5v7z" />
    <glyph glyph-name="Emacron" unicode="&#x112;" horiz-adv-x="604" 
d="M343 568q27 -1 51.5 -2.5t43.5 -3.5t30.5 -3.5l11.5 -1.5q27 -3 48.5 13.5t24.5 42.5q4 27 -12.5 48t-43.5 25q-2 0 -17.5 2t-41 4.5t-57.5 4.5t-66 2q-42 1 -76 -2t-60 -8q-20 -4 -35 -9.5t-28 -13.5q-20 -13 -33 -31t-16 -40q-3 -16 -5.5 -45.5t-5 -67t-4.5 -81
t-2 -86.5q-1 -50 1 -90t5 -72q3 -20 6 -36t7 -29q15 -45 45 -64q31 -20 105 -24q12 0 25 -0.5t27 -0.5q16 0 32.5 0.5t34.5 1.5q29 1 56 3l48 3.5l34 2.5t14 1q27 3 44 24t14 47q-3 27 -24 44t-47 14l-11.5 -1t-30.5 -2.5t-43 -3t-51 -2.5q-67 -3 -101.5 -1t-48.5 4
q-2 11 -5.5 38.5t-5.5 78.5q17 -1 34 -1h34q111 0 218 12q26 2 43 23t14 48t-24 44t-47 14q-66 -8 -134 -10t-137 0q2 55 5.5 102.5t6.5 75.5q12 4 46 8t104 1zM102 804q0 25 16.5 43.5t42.5 20.5l78 7.5t42 3t22.5 0t20.5 -1.5t36.5 -1.5t69.5 0.5q27 1 47 -18t22 -46
t-16.5 -47t-44.5 -22q-52 -3 -77 -4t-37 -1h-18t-18 0.5t-37.5 1t-77.5 -0.5q-26 -1 -47 15.5t-24 42.5v7z" />
    <glyph glyph-name="emacron" unicode="&#x113;" horiz-adv-x="575" 
d="M303 -1q-48 0 -91 15q-90 32 -137 120q-51 92 -42 232q5 74 25.5 135.5t56.5 106.5q34 43 81 68q49 24 99 23q51 -2 96 -27q46 -28 77 -73q33 -46 50 -109t19 -138q0 -28 -21 -49q-22 -19 -50 -17q-54 5 -107.5 2.5t-110.5 -6.5q-20 -2 -41 -3l-42 -2q6 -48 24 -81
q22 -43 66 -59q46 -15 98 0q23 6 41 17.5t28 25.5q15 22 41.5 26.5t48.5 -11.5q22 -15 26.5 -41.5t-10.5 -48.5q-23 -32 -58.5 -55.5t-79.5 -37.5q-22 -6 -43.5 -9.5t-43.5 -3.5zM94 804q0 25 16.5 43.5t42.5 20.5l78 7.5t42 3t22.5 0t20.5 -1.5t36.5 -1.5t69.5 0.5
q27 1 47 -18t22 -46t-16.5 -47t-44.5 -22q-52 -3 -77 -4t-37 -1h-18t-18 0.5t-37.5 1t-77.5 -0.5q-26 -1 -47 15.5t-24 42.5v7zM290 569q-40 0 -73 -42q-14 -17 -27.5 -45.5t-21.5 -74.5l35 2t36 3q40 2 80 4.5t82 2.5q-6 39 -17 64.5t-22 41.5q-31 44 -71 44h-1z" />
    <glyph glyph-name="uni012A" unicode="&#x12a;" horiz-adv-x="577" 
d="M459 136h-2l-51.5 -2l-49.5 -2q-5 -1 -10 -1h-10q3 88 2.5 169t-2.5 160q0 24 -0.5 48t-0.5 49q32 1 66 3.5t70 8.5q27 4 42.5 26t11.5 48q-5 27 -26.5 43t-48.5 11q-69 -11 -131.5 -10.5t-122.5 3.5q-20 1 -38.5 1.5t-37.5 1.5q-27 0 -46.5 -18.5t-19.5 -45.5
q-1 -27 17.5 -46.5t45.5 -19.5q18 -1 36 -1.5t37 -1.5q4 0 7.5 -0.5t7.5 -0.5q0 -26 0.5 -51t0.5 -50q2 -83 2.5 -162.5t-2.5 -166.5l-39 4t-39 7q-26 5 -49 -9.5t-29 -40.5q-5 -26 9.5 -49t40.5 -28q38 -9 75.5 -12t74.5 -3q28 0 55.5 1t56.5 3q24 2 48 2.5t50 1.5
q26 0 45 19.5t18 46.5q0 26 -19 45t-45 19zM89 804q0 25 16.5 43.5t42.5 20.5l78 7.5t42 3t22.5 0t20.5 -1.5t36.5 -1.5t69.5 0.5q27 1 47 -18t22 -46t-16.5 -47t-44.5 -22q-52 -3 -77 -4t-37 -1h-18t-18 0.5t-37.5 1t-77.5 -0.5q-26 -1 -47 15.5t-24 42.5v7z" />
    <glyph glyph-name="imacron" unicode="&#x12b;" horiz-adv-x="432" 
d="M280 439q-5 26 -27 42t-48 12q-26 -5 -42 -27t-12 -48q8 -50 7 -103.5t-3 -103.5q-3 -44 -4 -84t4 -74q4 -24 22.5 -39.5t41.5 -15.5q7 0 10 1q27 4 43 25.5t12 48.5q-4 23 -3 58t3 73q3 55 4.5 115t-8.5 120zM16 604q0 25 16.5 43.5t42.5 20.5l78 7.5t42 3t22.5 0
t20.5 -1.5t36.5 -1.5t69.5 0.5q27 1 47 -18t22 -46t-16.5 -47t-44.5 -22q-52 -3 -77 -4t-37 -1h-18t-18 0.5t-37.5 1t-77.5 -0.5q-26 -1 -47 15.5t-24 42.5v7z" />
    <glyph glyph-name="Umacron" unicode="&#x16a;" horiz-adv-x="602" 
d="M297 -1h-3q-94 2 -157 72q-33 38 -55 98q-10 27 -17 58.5t-11 66.5q-17 139 7 337q3 26 24 43t48 14q26 -4 43 -25t14 -47q-11 -93 -13 -169.5t6 -136.5q8 -68 23 -103t29 -50q22 -27 61 -28q35 0 61 29q14 17 31.5 52.5t28.5 104.5q10 64 9.5 141.5t-11.5 170.5
q-3 26 13.5 47.5t43.5 24.5t48 -13.5t24 -43.5q12 -101 12 -188t-11 -159q-23 -149 -92 -224q-64 -72 -156 -72zM101 804q0 25 16.5 43.5t42.5 20.5l78 7.5t42 3t22.5 0t20.5 -1.5t36.5 -1.5t69.5 0.5q27 1 47 -18t22 -46t-16.5 -47t-44.5 -22q-52 -3 -77 -4t-37 -1h-18
t-18 0.5t-37.5 1t-77.5 -0.5q-26 -1 -47 15.5t-24 42.5v7z" />
    <glyph glyph-name="umacron" unicode="&#x16b;" 
d="M455 701h1q26 -1 44 -18t20 -43l37 -559q2 -27 -16 -47t-45 -22t-47 16t-22 45l-6 89q-9 -22 -19 -41q-27 -53 -59 -82q-29 -26 -55.5 -32.5t-46.5 -5.5q-19 2 -44 11.5t-51 37.5q-30 33 -50 85q-32 79 -47 210q-7 53 -10 104t-4 90.5t-1 65v27.5q1 26 19.5 45t45.5 19
q1 0 1 -1q27 0 45.5 -19.5t18.5 -46.5v-23.5t1 -61.5t4 -86.5t9 -98.5q14 -115 39 -177q12 -29 21 -39.5t12 -11.5q1 1 10.5 9t23.5 34.5t31 75t35 130.5q11 49 18.5 96t12.5 83.5t7.5 59.5l2.5 23q2 25 20.5 42t43.5 17zM78 804q0 25 16.5 43.5t42.5 20.5l78 7.5t42 3
t22.5 0t20.5 -1.5t36.5 -1.5t69.5 0.5q27 1 47 -18t22 -46t-16.5 -47t-44.5 -22q-52 -3 -77 -4t-37 -1h-18t-18 0.5t-37.5 1t-77.5 -0.5q-26 -1 -47 15.5t-24 42.5v7z" />
    <glyph glyph-name="Omacron" unicode="&#x14c;" horiz-adv-x="700" 
d="M362 0q-61 0 -115 22q-58 24 -102 67q-45 44 -73 107q-29 66 -32 142q-3 81 21 150q23 64 71 115q45 46 103 71.5t121 25.5q60 0 112.5 -22.5t93.5 -64.5q44 -46 68 -110.5t27 -142.5q2 -54 -6 -97.5t-21.5 -77t-30.5 -58.5t-33 -42q-40 -42 -92.5 -63.5t-111.5 -21.5z
M356 570q-36 0 -70 -15t-60 -42q-30 -31 -44 -74t-12 -95q2 -53 19.5 -93t44.5 -67t60.5 -40.5t67.5 -13.5q66 0 111 45q59 62 54 180q-2 59 -18 100t-40 66.5t-53.5 37t-59.5 11.5zM150 804q0 25 16.5 43.5t42.5 20.5l78 7.5t42 3t22.5 0t20.5 -1.5t36.5 -1.5t69.5 0.5
q27 1 47 -18t22 -46t-16.5 -47t-44.5 -22q-52 -3 -77 -4t-37 -1h-18t-18 0.5t-37.5 1t-77.5 -0.5q-26 -1 -47 15.5t-24 42.5v7z" />
    <glyph glyph-name="omacron" unicode="&#x14d;" horiz-adv-x="689" 
d="M362 -1q-61 0 -118 22q-29 12 -55 28.5t-49 38.5q-48 45 -77 107q-30 64 -33 142q-2 39 3.5 75.5t17.5 71.5q25 65 71 113q46 49 106.5 75t126.5 26q60 0 112.5 -22t93.5 -64q44 -47 67 -108q12 -32 19 -68.5t8 -77.5q2 -54 -5.5 -97.5t-21 -77.5t-30.5 -58.5t-33 -41.5
q-39 -41 -91 -62.5t-112 -21.5zM355 569q-38 0 -74.5 -16t-64.5 -45q-21 -23 -40 -62.5t-17 -102.5q3 -52 22 -92t47.5 -67.5t63.5 -41.5t70 -14q67 0 110 45q29 29 42.5 75t11.5 106q-2 59 -18 100t-40 66.5t-53.5 37t-59.5 11.5zM143 804q0 25 16.5 43.5t42.5 20.5l78 7.5
t42 3t22.5 0t20.5 -1.5t36.5 -1.5t69.5 0.5q27 1 47 -18t22 -46t-16.5 -47t-44.5 -22q-52 -3 -77 -4t-37 -1h-18t-18 0.5t-37.5 1t-77.5 -0.5q-26 -1 -47 15.5t-24 42.5v7z" />
    <glyph glyph-name="Hbar" unicode="&#x126;" horiz-adv-x="612" 
d="M496 693q27 -4 43.5 -25t12.5 -48q-2 -12 -3 -24t-3 -23q26 -20 28 -51q1 -20 -9 -37t-27 -25q-2 -69 0 -136t6 -136q2 -30 3 -61l2 -62q1 -27 -17.5 -46.5t-45.5 -20.5h-2q-26 0 -45 18.5t-20 44.5l-2 61t-3 60q-1 14 -1 28t-1 28q-44 -6 -88 -6h-7.5t-8.5 1
q-24 0 -49 2t-54 6q-1 -46 -3 -91t-5 -90q-2 -26 -20.5 -43.5t-44.5 -17.5h-4q-27 2 -45 22.5t-16 46.5q13 192 6 388q-15 7 -25 20.5t-12 30.5v7q0 37 32 55l-2 29.5l-2 29.5q-2 27 15.5 47t44.5 22t47.5 -15.5t22.5 -43.5q1 -13 1.5 -26t1.5 -26q33 2 60 2t52 -0.5
t50.5 -1.5t56.5 -1q2 14 3.5 26.5t3.5 26.5q4 26 25.5 42.5t47.5 12.5zM408 448q-30 -1 -54 -1t-47 0.5l-48 1t-56 0.5q1 -19 1 -38t1 -39q54 -8 103 -9.5t100 6.5q-1 39 0 79z" />
    <glyph glyph-name="hbar" unicode="&#x127;" horiz-adv-x="673" 
d="M585 1q-26 0 -44.5 17.5t-20.5 43.5l-1.5 19t-5 50t-9 71t-14.5 82q-21 96 -46 151q-15 33 -25 43t-12 11q-2 -1 -14 -11t-32 -45q-31 -55 -60 -152q-13 -42 -23 -82.5t-17 -72.5t-10.5 -51.5l-3.5 -19.5q-5 -25 -24 -40.5t-45 -13.5q-25 2 -42 20t-18 44l-9 494h-9
q-26 -1 -47 15.5t-24 42.5v7q0 25 16.5 43.5t42.5 20.5q5 0 9.5 0.5t9.5 1.5q1 25 19.5 42.5t44.5 18.5q25 1 43 -15.5t22 -40.5q2 0 4.5 0.5t5.5 0.5q27 1 47 -18t22 -46t-16.5 -47t-44.5 -22q-5 -1 -7.5 -0.5t-7.5 -0.5l2 -79l8 15.5t9 15.5q14 23 28.5 40.5t30.5 30.5
q28 22 52.5 28.5t41.5 5.5q51 -3 91 -40q29 -28 53 -74q35 -70 59 -183q10 -47 17 -91.5t11 -79.5t6 -57t2 -24q2 -26 -16 -46.5t-44 -22.5h-5z" />
    <glyph glyph-name="Tbar" unicode="&#x166;" horiz-adv-x="548" 
d="M524 644q4 -26 -13 -47.5t-43 -24.5q-38 -5 -73 -7t-70 -3q2 -34 3 -66l2 -64h26t36 1q27 1 47 -18t22 -46t-16.5 -47t-44.5 -22q-25 -2 -41 -2.5t-30 -1.5l-2 -81t-3 -82l-3 -69q-1 -26 -20 -44.5t-45 -18.5h-2q-27 2 -45.5 21.5t-17.5 46.5l3 69q2 40 3 79.5l2 78.5
h-64q-26 -1 -47 15.5t-24 42.5v7q0 25 16.5 43.5t42.5 20.5t44.5 4t32.5 3l-2 64.5t-3 65.5q-39 1 -75 3h-16.5t-16.5 1q-27 1 -45.5 20.5t-17.5 46.5q2 27 21.5 45.5t46.5 17.5q8 -1 16.5 -1t16.5 -1q81 -3 160.5 -3.5t166.5 10.5q26 3 47.5 -13.5t24.5 -43.5z" />
    <glyph glyph-name="tbar" unicode="&#x167;" horiz-adv-x="592" 
d="M513 303q27 -1 46 -20.5t18 -46.5q-1 -44 -15.5 -83.5t-40.5 -71.5q-51 -60 -125 -77q-24 -6 -48 -6q-38 0 -68 13q-62 24 -93 84q-12 22 -22 59h-39q-26 -1 -47 15.5t-24 42.5v7q0 25 16.5 43.5t42.5 20.5q18 1 33 3q-1 8 -1 16.5v16.5l-59 -2q0 -1 -2 -1
q-26 0 -45 18.5t-20 44.5q-1 27 17.5 46.5t44.5 20.5l65 3q2 58 6 104.5l6 69.5q0 3 0.5 6t0.5 5q0 22 13.5 39.5t35.5 22.5q15 4 30.5 0.5t27.5 -14.5q5 -5 14.5 -18t7.5 -36v-5q0 -2 -0.5 -5t-0.5 -7q-2 -20 -5.5 -62t-5.5 -95l113 4q27 2 46.5 -16.5t20.5 -45.5
q2 -27 -16.5 -46.5t-45.5 -20.5l-119 -5v-17.5t1 -16.5h16t22 1q27 1 47 -18t22 -46t-16.5 -47t-44.5 -22q-6 -1 -11.5 -1h-10.5q0 -2 1 -2q12 -23 31.5 -25.5t32.5 0.5q30 7 55 34t26 75q1 26 20 45t45 19h1zM162 617q0 1 -0.5 1t-0.5 1q2 -8 3.5 -12t-2.5 10zM160 627v-3
v3z" />
    <glyph glyph-name="quotedbl" unicode="&#x22;" horiz-adv-x="344" 
d="M120 394q-8 -6 -17 -10t-20 -2q-20 2 -33.5 17.5t-11.5 35.5q1 12 1 25v28v39.5t2 43.5q2 20 17.5 33.5t37.5 11.5q20 -2 33 -17.5t11 -36.5q-2 -19 -2 -37.5t1 -35.5v-32t-2 -31q-2 -18 -17 -32zM286 389q-8 -6 -17 -10t-20 -2q-20 2 -33.5 17.5t-11.5 35.5q1 12 1 25
v28v39.5t2 43.5q2 20 17.5 33.5t37.5 11.5q20 -2 33 -17.5t11 -36.5q-2 -19 -2 -37.5t1 -35.5v-32t-2 -31q-2 -18 -17 -32z" />
    <glyph glyph-name="quotesingle" unicode="'" horiz-adv-x="169" 
d="M116 394q-8 -6 -17 -10t-20 -2q-20 2 -33.5 17.5t-11.5 35.5q1 12 1 25v28v39.5t2 43.5q2 20 17.5 33.5t37.5 11.5q20 -2 33 -17.5t11 -36.5q-2 -19 -2 -37.5t1 -35.5v-32t-2 -31q-2 -18 -17 -32z" />
    <glyph glyph-name="ogonek" unicode="&#x2db;" horiz-adv-x="318" 
d="M161 -215q-8 0 -15 0.5t-14 1.5q-42 5 -62 21t-28 32q-4 7 -6.5 17.5t-2.5 23t4 27.5t14 33q23 42 75 89q16 14 36.5 12.5t34.5 -17.5q14 -15 12.5 -35.5t-16.5 -34.5q-29 -26 -41.5 -43t-16.5 -25q10 -2 33 -2t68 9q20 5 37 -6.5t22 -31.5t-6.5 -37t-31.5 -22
q-56 -12 -96 -12z" />
    <glyph glyph-name="Aogonek" unicode="&#x104;" horiz-adv-x="647" 
d="M579 286q4 -44 6 -84t2 -70.5t-0.5 -49t-0.5 -19.5q-2 -26 -20.5 -44t-44.5 -18h-3q-4 0 -7 0.5t-7 1.5q-26 -24 -37.5 -40t-15.5 -24q10 -2 33 -2t68 9q20 5 37 -6.5t22 -31.5t-6.5 -37t-31.5 -22q-56 -12 -96 -12q-8 0 -15 0.5t-14 1.5q-42 5 -62 21t-28 32
q-4 7 -6.5 17.5t-2.5 23t4 27.5t14 33q23 42 75 89q6 6 14 9q1 20 0.5 55.5t-3.5 83.5q-33 -2 -65 -3.5t-64 -1.5q-41 0 -80.5 1.5t-78.5 3.5q-5 -35 -7.5 -65.5t-3.5 -53t-1.5 -36l-0.5 -13.5q-1 -26 -20 -45t-45 -19h-1q-27 1 -46 20.5t-18 45.5q0 2 1 28.5t4 68t10 94
t19 107.5q29 137 78 216q22 37 47 60.5t49.5 36.5t47.5 18t43 5q81 0 140 -61q54 -57 85 -165q22 -80 33 -186zM188 359q63 -3 125 -4t126 4q-24 137 -72 188q-20 21 -46 21q-27 0 -48.5 -22t-38 -54t-28 -68t-18.5 -65z" />
    <glyph glyph-name="aogonek" unicode="&#x105;" horiz-adv-x="671" 
d="M598 69q2 -27 -15.5 -47.5t-44.5 -22.5h-5q-7 0 -17 2q-21 -20 -30.5 -33.5t-12.5 -21.5q10 -2 33 -2t68 9q20 5 37 -6.5t22 -31.5t-6.5 -37t-31.5 -22q-56 -12 -96 -12q-8 0 -15 0.5t-14 1.5q-42 5 -62 21t-28 32q-4 7 -6.5 17.5t-2.5 23t4 27.5t14 33q2 5 5.5 10
t6.5 10q-3 -2 -5.5 -3t-5.5 -2q-43 -16 -84 -16q-26 0 -50.5 5.5t-49.5 16.5q-24 11 -45.5 26.5t-40.5 35.5q-50 51 -74.5 120.5t-22.5 150.5q2 37 8 72t18 67q23 62 62 108q39 47 90 72.5t105 25.5q82 0 144 -56q4 24 22.5 40t43.5 15q26 -1 45 -20.5t18 -46.5
q-5 -158 2 -299.5t17 -262.5zM371 157q26 27 40 75.5t14 113.5q0 51 -9 92t-24.5 70.5t-37 45t-48.5 15.5q-26 0 -53 -15t-48.5 -43.5t-36 -69t-15.5 -91.5q-2 -54 13.5 -99.5t46.5 -77.5q20 -21 44.5 -32.5t48.5 -11.5q38 0 65 28z" />
    <glyph glyph-name="Eogonek" unicode="&#x118;" horiz-adv-x="604" 
d="M343 568q-70 3 -104 -1t-46 -8q-3 -28 -6.5 -75.5t-5.5 -102.5q69 -2 137 0t134 10q26 3 47 -14t24 -44t-14 -48t-43 -23q-107 -12 -218 -12h-34t-34 1q2 -51 5.5 -78.5t5.5 -38.5q14 -2 48.5 -4t101.5 1q27 1 51 2.5t43 3t30.5 2.5l11.5 1q26 3 47 -14t24 -44
q3 -26 -14 -47t-44 -24q-2 0 -36 -3t-81 -6q-2 -3 -4.5 -6t-5.5 -6q-29 -26 -41.5 -43t-16.5 -25q10 -2 33 -2t68 9q20 5 37 -6.5t22 -31.5t-6.5 -37t-31.5 -22q-56 -12 -96 -12q-8 0 -15 0.5t-14 1.5q-42 5 -62 21t-28 32q-4 7 -6.5 17.5t-2.5 23t4 27.5t14 33q6 12 15 24
h-17q-74 4 -105 24q-30 19 -45 64q-4 13 -7 29t-6 36q-3 32 -5 72t-1 90q0 43 2 86.5t4.5 81t5 67t5.5 45.5q3 22 16 40t33 31q13 8 28 13.5t35 9.5q26 5 60 8t76 2q34 0 66 -2t57.5 -4.5t41 -4.5t17.5 -2q27 -4 43.5 -25t12.5 -48q-3 -26 -24.5 -42.5t-48.5 -13.5
l-11.5 1.5t-30.5 3.5t-43.5 3.5t-51.5 2.5z" />
    <glyph glyph-name="eogonek" unicode="&#x119;" horiz-adv-x="575" 
d="M306 -178q-8 0 -15 0.5t-14 1.5q-42 5 -62 21t-28 32q-4 7 -6.5 17.5t-2.5 23t4 27.5t14 33t22 33l-6 3q-90 32 -137 120q-51 92 -42 232q5 74 25.5 135.5t56.5 106.5q34 43 81 68q49 24 99 23q51 -2 96 -27q46 -28 77 -73q33 -46 50 -109t19 -138q0 -28 -21 -49
q-22 -19 -50 -17q-54 5 -107.5 2.5t-110.5 -6.5q-20 -2 -41 -3l-42 -2q6 -48 24 -81q22 -43 66 -59q46 -15 98 0q23 6 41 17.5t28 25.5q15 22 41.5 26.5t48.5 -11.5q22 -15 26.5 -41.5t-10.5 -48.5q-23 -32 -58.5 -55.5t-79.5 -37.5q-11 -3 -21.5 -5.5t-21.5 -4.5
q-2 -2 -4.5 -5t-4.5 -5q-29 -26 -41.5 -43t-16.5 -25q10 -2 33 -2t68 9q20 5 37 -6.5t22 -31.5t-6.5 -37t-31.5 -22q-56 -12 -96 -12zM290 569q-40 0 -73 -42q-14 -17 -27.5 -45.5t-21.5 -74.5l35 2t36 3q40 2 80 4.5t82 2.5q-6 39 -17 64.5t-22 41.5q-31 44 -71 44h-1z" />
    <glyph glyph-name="Iogonek" unicode="&#x12e;" horiz-adv-x="577" 
d="M459 136q26 0 45 -19t19 -45q1 -27 -18 -46.5t-45 -19.5q-26 -1 -50 -1.5t-48 -2.5q-8 -1 -14.5 -1t-13.5 -1q-3 -1 -4 -4q-29 -26 -41.5 -43t-16.5 -25q10 -2 33 -2t68 9q20 5 37 -6.5t22 -31.5t-6.5 -37t-31.5 -22q-56 -12 -96 -12q-8 0 -15 0.5t-14 1.5q-42 5 -62 21
t-28 32q-4 7 -6.5 17.5t-2.5 23t4 27.5t14 33q4 8 10 17q-24 2 -48.5 5t-49.5 9q-26 5 -40.5 28t-9.5 49q6 26 29 40.5t49 9.5q20 -5 39 -7l39 -4q3 87 2.5 166.5t-2.5 162.5q0 25 -0.5 50t-0.5 51q-4 0 -7.5 0.5t-7.5 0.5q-19 1 -37 1.5t-36 1.5q-27 0 -45.5 19.5
t-17.5 46.5q0 27 19.5 45.5t46.5 18.5q19 -1 37.5 -1.5t38.5 -1.5q60 -3 122.5 -3.5t131.5 10.5q27 5 48.5 -11t26.5 -43q4 -26 -11.5 -48t-42.5 -26q-36 -6 -70 -8.5t-66 -3.5q0 -25 0.5 -49t0.5 -48q2 -79 2.5 -160t-2.5 -169h10t10 1l49.5 2l51.5 2h2v0z" />
    <glyph glyph-name="iogonek" unicode="&#x12f;" horiz-adv-x="326" 
d="M236 439q10 -60 8.5 -120t-4.5 -115q-2 -38 -3 -73t3 -58q3 -26 -11 -47t-39 -26q-27 -25 -38.5 -41t-15.5 -24q10 -2 33 -2t68 9q20 5 37 -6.5t22 -31.5t-6.5 -37t-31.5 -22q-56 -12 -96 -12q-8 0 -15 0.5t-14 1.5q-42 5 -62 21t-28 32q-4 7 -6.5 17.5t-2.5 23t4 27.5
t14 33q18 33 58 73q-4 32 -3 69.5t4 79.5q2 50 3 103.5t-7 103.5q-4 26 12 48t42 27q26 4 48 -12t27 -42zM252 669q21 -24 21 -52q0 -29 -21 -53q-13 -13 -29 -20q-23 -10 -53 -10q-14 0 -28 2.5t-25 7.5q-9 4 -16 9t-13 11q-21 22 -21 53q0 29 21 52q6 6 13 11t16 9
q11 5 25 7.5t28 2.5q30 0 53 -10q16 -8 29 -20z" />
    <glyph glyph-name="Uogonek" unicode="&#x172;" horiz-adv-x="602" 
d="M311 -167q-8 0 -15 0.5t-14 1.5q-42 5 -62 21t-28 32q-4 7 -6.5 17.5t-2.5 23t4 27.5t14 33q6 12 16 25q-46 18 -80 57q-33 38 -55 98q-10 27 -17 58.5t-11 66.5q-17 139 7 337q3 26 24 43t48 14q26 -4 43 -25t14 -47q-11 -93 -13 -169.5t6 -136.5q8 -68 23 -103t29 -50
q22 -27 61 -28q35 0 61 29q14 17 31.5 52.5t28.5 104.5q10 64 9.5 141.5t-11.5 170.5q-3 26 13.5 47.5t43.5 24.5t48 -13.5t24 -43.5q12 -101 12 -188t-11 -159q-23 -149 -92 -224q-47 -52 -109 -67l-1 -1q-29 -26 -41.5 -43t-16.5 -25q10 -2 33 -2t68 9q20 5 37 -6.5
t22 -31.5t-6.5 -37t-31.5 -22q-56 -12 -96 -12z" />
    <glyph glyph-name="uogonek" unicode="&#x173;" 
d="M469 -159q-8 0 -15 0.5t-14 1.5q-42 5 -62 21t-28 32q-4 7 -6.5 17.5t-2.5 23t4 27.5t14 33q21 37 67 82l-5 83q-9 -22 -19 -41q-27 -53 -59 -82q-29 -26 -55.5 -32.5t-46.5 -5.5q-19 2 -44 11.5t-51 37.5q-30 33 -50 85q-32 79 -47 210q-7 53 -10 104t-4 90.5t-1 65
v27.5q1 26 19.5 45t45.5 19q1 0 1 -1q27 0 45.5 -19.5t18.5 -46.5v-23.5t1 -61.5t4 -86.5t9 -98.5q14 -115 39 -177q12 -29 21 -39.5t12 -11.5q1 1 10.5 9t23.5 34.5t31 75t35 130.5q11 49 18.5 96t12.5 83.5t7.5 59.5l2.5 23q2 25 20.5 42t43.5 17h1q26 -1 44 -18t20 -43
l37 -559q2 -26 -14 -45.5t-41 -23.5l-1 -1q-29 -26 -41.5 -43t-16.5 -25q10 -2 33 -2t68 9q20 5 37 -6.5t22 -31.5t-6.5 -37t-31.5 -22q-56 -12 -96 -12z" />
    <glyph glyph-name="comma" unicode="," horiz-adv-x="212" 
d="M89 -187q-14 0 -26.5 8t-19.5 22q-8 19 -1 38t27 28q13 6 15.5 11.5t3.5 8.5q2 16 -10.5 37.5t-27.5 33.5q-17 13 -19.5 33t10.5 37t33.5 19.5t37.5 -10.5q16 -13 31 -31t25.5 -39.5t16 -45t2.5 -46.5q-4 -33 -24 -59t-54 -41q-8 -4 -20 -4z" />
    <glyph glyph-name="quotesinglbase" unicode="&#x201a;" horiz-adv-x="212" 
d="M89 -187q-14 0 -26.5 8t-19.5 22q-8 19 -1 38t27 28q13 6 15.5 11.5t3.5 8.5q2 16 -10.5 37.5t-27.5 33.5q-17 13 -19.5 33t10.5 37t33.5 19.5t37.5 -10.5q16 -13 31 -31t25.5 -39.5t16 -45t2.5 -46.5q-4 -33 -24 -59t-54 -41q-8 -4 -20 -4z" />
    <glyph glyph-name="quotedblbase" unicode="&#x201e;" horiz-adv-x="416" 
d="M95 -187q-14 0 -26.5 8t-19.5 22q-8 19 -1 38t27 28q13 6 15.5 11.5t3.5 8.5q2 16 -10.5 37.5t-27.5 33.5q-17 13 -19.5 33t10.5 37t33.5 19.5t37.5 -10.5q16 -13 31 -31t25.5 -39.5t16 -45t2.5 -46.5q-4 -33 -24 -59t-54 -41q-8 -4 -20 -4zM282 -187q-14 0 -26.5 8
t-19.5 22q-8 19 -1 38t27 28q13 6 15.5 11.5t3.5 8.5q2 16 -10.5 37.5t-27.5 33.5q-17 13 -19.5 33t10.5 37t33.5 19.5t37.5 -10.5q16 -13 31 -31t25.5 -39.5t16 -45t2.5 -46.5q-4 -33 -24 -59t-54 -41q-8 -4 -20 -4z" />
    <glyph glyph-name="quotedblright" unicode="&#x201d;" horiz-adv-x="416" 
d="M95 344q-14 0 -26.5 8t-19.5 22q-8 19 -1 38t27 28q13 6 15.5 11.5t3.5 8.5q2 16 -10.5 37.5t-27.5 33.5q-17 13 -19.5 33t10.5 37t33.5 19.5t37.5 -10.5q16 -13 31 -31t25.5 -39.5t16 -45t2.5 -46.5q-4 -33 -24 -59t-54 -41q-8 -4 -20 -4zM282 344q-14 0 -26.5 8
t-19.5 22q-8 19 -1 38t27 28q13 6 15.5 11.5t3.5 8.5q2 16 -10.5 37.5t-27.5 33.5q-17 13 -19.5 33t10.5 37t33.5 19.5t37.5 -10.5q16 -13 31 -31t25.5 -39.5t16 -45t2.5 -46.5q-4 -33 -24 -59t-54 -41q-8 -4 -20 -4z" />
    <glyph glyph-name="quotedblleft" unicode="&#x201c;" horiz-adv-x="417" 
d="M321 344q-12 0 -20 4q-34 15 -54 41t-24 59q-3 23 2.5 46.5t16 45t25.5 39.5t31 31q17 13 37.5 10.5t33.5 -19.5t10.5 -37t-19.5 -33q-15 -12 -27.5 -33.5t-10.5 -37.5q1 -3 3.5 -8.5t15.5 -11.5q20 -9 27 -28t-1 -38q-7 -14 -19.5 -22t-26.5 -8zM134 344q-12 0 -20 4
q-34 15 -54 41t-24 59q-3 23 2.5 46.5t16 45t25.5 39.5t31 31q17 13 37.5 10.5t33.5 -19.5t10.5 -37t-19.5 -33q-15 -12 -27.5 -33.5t-10.5 -37.5q1 -3 3.5 -8.5t15.5 -11.5q20 -9 27 -28t-1 -38q-7 -14 -19.5 -22t-26.5 -8z" />
    <glyph glyph-name="quoteright" unicode="&#x2019;" horiz-adv-x="212" 
d="M89 344q-14 0 -26.5 8t-19.5 22q-8 19 -1 38t27 28q13 6 15.5 11.5t3.5 8.5q2 16 -10.5 37.5t-27.5 33.5q-17 13 -19.5 33t10.5 37t33.5 19.5t37.5 -10.5q16 -13 31 -31t25.5 -39.5t16 -45t2.5 -46.5q-4 -33 -24 -59t-54 -41q-8 -4 -20 -4z" />
    <glyph glyph-name="quoteleft" unicode="&#x2018;" horiz-adv-x="212" 
d="M123 344q-12 0 -20 4q-34 15 -54 41t-24 59q-3 23 2.5 46.5t16 45t25.5 39.5t31 31q17 13 37.5 10.5t33.5 -19.5t10.5 -37t-19.5 -33q-15 -12 -27.5 -33.5t-10.5 -37.5q1 -3 3.5 -8.5t15.5 -11.5q20 -9 27 -28t-1 -38q-7 -14 -19.5 -22t-26.5 -8z" />
    <glyph glyph-name="tcaron" unicode="&#x165;" horiz-adv-x="797" 
d="M508 303q27 -1 46 -20.5t18 -46.5q-1 -44 -15.5 -83.5t-40.5 -71.5q-51 -60 -125 -77q-24 -6 -48 -6q-38 0 -68 13q-62 24 -93 84q-18 35 -28.5 90.5t-12.5 133.5l-59 -2q0 -1 -2 -1q-26 0 -45 18.5t-20 44.5q-1 27 17.5 46.5t44.5 20.5l65 3q2 58 6 104.5l6 69.5
q0 3 0.5 6t0.5 5q0 22 13.5 39.5t35.5 22.5q15 4 30.5 0.5t27.5 -14.5q5 -5 14.5 -18t7.5 -36v-5q0 -2 -0.5 -5t-0.5 -7q-2 -20 -5.5 -62t-5.5 -95l113 4q27 2 46.5 -16.5t20.5 -45.5q2 -27 -16.5 -46.5t-45.5 -20.5l-119 -5q1 -42 4.5 -71.5t7 -49.5t7.5 -31.5t7 -16.5
q12 -23 31.5 -25.5t32.5 0.5q30 7 55 34t26 75q1 26 20 45t45 19h1zM674 344q-14 0 -26.5 8t-19.5 22q-8 19 -1 38t27 28q13 6 15.5 11.5t3.5 8.5q2 16 -10.5 37.5t-27.5 33.5q-17 13 -19.5 33t10.5 37t33.5 19.5t37.5 -10.5q16 -13 31 -31t25.5 -39.5t16 -45t2.5 -46.5
q-4 -33 -24 -59t-54 -41q-8 -4 -20 -4zM157 617q0 1 -0.5 1t-0.5 1q2 -8 3.5 -12t-2.5 10zM155 627v-3v3z" />
    <glyph glyph-name="lcaron" unicode="&#x13e;" horiz-adv-x="421" 
d="M108 -1q-25 0 -43.5 16.5t-20.5 42.5q-9 87 -8.5 167t2.5 165q2 69 3.5 140.5t-3.5 149.5q-2 27 16 47t45 22t47 -16.5t22 -44.5q5 -82 3.5 -156t-3.5 -146q-2 -81 -2.5 -158t7.5 -158q2 -26 -15 -47t-43 -24h-7zM298 344q-14 0 -26.5 8t-19.5 22q-8 19 -1 38t27 28
q13 6 15.5 11.5t3.5 8.5q2 16 -10.5 37.5t-27.5 33.5q-17 13 -19.5 33t10.5 37t33.5 19.5t37.5 -10.5q16 -13 31 -31t25.5 -39.5t16 -45t2.5 -46.5q-4 -33 -24 -59t-54 -41q-8 -4 -20 -4z" />
    <glyph glyph-name="Lcaron" unicode="&#x13d;" horiz-adv-x="537" 
d="M287 -1q-40 0 -67 1.5t-44 3.5t-26.5 4t-13.5 3q-10 2 -23.5 10t-25.5 25q-11 15 -18 37q-5 16 -8.5 35.5t-5.5 44.5q-4 38 -4 88t2 112q1 52 4.5 101l6.5 87.5t5.5 63t2.5 26.5q2 26 23 43t48 15q27 -3 44 -24t14 -47q0 -1 -2 -20.5t-4.5 -52l-5.5 -75t-5 -87.5
q-2 -54 -3 -98t1 -79q2 -33 4 -53t4 -30q22 -3 55.5 -3.5t70.5 0t74 2t68 3.5q27 2 47 -16t22 -45t-16 -47t-44 -22q-1 0 -12 -0.5t-29 -1.5t-41 -2t-49 -1q-14 -1 -26 -1h-23zM292 544q-14 0 -26.5 8t-19.5 22q-8 19 -1 38t27 28q13 6 15.5 11.5t3.5 8.5q2 16 -10.5 37.5
t-27.5 33.5q-17 13 -19.5 33t10.5 37t33.5 19.5t37.5 -10.5q16 -13 31 -31t25.5 -39.5t16 -45t2.5 -46.5q-4 -33 -24 -59t-54 -41q-8 -4 -20 -4z" />
    <glyph glyph-name="dcaron" unicode="&#x10f;" horiz-adv-x="812" 
d="M562 71q2 -27 -15.5 -47.5t-44.5 -22.5h-5q-25 0 -43.5 17t-20.5 43q-1 5 -1.5 11t-0.5 11l-6 -6q-34 -34 -75.5 -52t-86.5 -18q-46 0 -87.5 18t-73.5 51q-42 44 -63 106q-11 32 -16 67.5t-4 74.5q5 140 73 225q34 40 78 63q47 22 94 22q49 0 95 -23q31 -16 53 -37
q1 30 1 58.5t1 55.5q1 26 20.5 45t45.5 18q27 -1 46 -20.5t18 -46.5q-2 -65 -1.5 -138.5t2.5 -152t6.5 -160t10.5 -162.5zM333 168q48 50 48 150q-1 59 -15 94t-29 53q-31 39 -73 39q-20 0 -38.5 -9.5t-32.5 -27.5q-14 -17 -28 -51.5t-16 -94.5q-2 -51 10 -90.5t36 -63.5
q30 -30 68 -30q39 0 70 31zM689 344q-14 0 -26.5 8t-19.5 22q-8 19 -1 38t27 28q13 6 15.5 11.5t3.5 8.5q2 16 -10.5 37.5t-27.5 33.5q-17 13 -19.5 33t10.5 37t33.5 19.5t37.5 -10.5q16 -13 31 -31t25.5 -39.5t16 -45t2.5 -46.5q-4 -33 -24 -59t-54 -41q-8 -4 -20 -4z" />
    <glyph glyph-name="gcommaaccent" unicode="&#x123;" horiz-adv-x="629" 
d="M583 532q1 -48 3 -109.5t2.5 -129t-1 -137t-6.5 -133.5q-9 -110 -78 -185q-32 -33 -71.5 -55t-85.5 -30q-14 -2 -26.5 -3t-26.5 -1q-31 0 -61 6t-58 19q-88 41 -131 130q-11 25 -2.5 50.5t33.5 36.5q24 12 49.5 3t36.5 -34q13 -28 33 -45t42 -26t44.5 -10.5t42.5 2.5
q10 2 30.5 9t41.5 23.5t37.5 45.5t20.5 75q2 23 3 48l2 51q0 -2 -2 -2q-38 -40 -85.5 -61.5t-96.5 -21.5q-40 0 -77 14q-39 17 -68 46q-42 43 -63 110q-21 68 -20 154q3 152 64 237q30 44 72.5 66.5t92.5 22.5q48 0 93 -21.5t83 -60.5v3q0 4 0.5 6.5t0.5 5.5q2 18 12.5 32
t27.5 21q25 11 49.5 1t35.5 -35q7 -18 4 -38q0 -9 0.5 -32t2.5 -48zM361 221q28 29 42 68t12 84q-2 44 -15.5 81.5t-38.5 65.5q-20 23 -42.5 35.5t-44.5 12.5q-35 0 -59 -34q-14 -18 -26 -56.5t-14 -107.5q-1 -60 10.5 -103.5t34.5 -66.5t53 -23q22 0 45 12t43 32zM302 718
q-12 0 -20 4q-34 15 -54 41t-24 59q-3 23 2.5 46.5t16 45t25.5 39.5t31 31q17 13 37.5 10.5t33.5 -19.5t10.5 -37t-19.5 -33q-15 -12 -27.5 -33.5t-10.5 -37.5q1 -3 3.5 -8.5t15.5 -11.5q20 -9 27 -28t-1 -38q-7 -14 -19.5 -22t-26.5 -8z" />
    <glyph glyph-name="Gcommaaccent" unicode="&#x122;" horiz-adv-x="650" 
d="M630 290q3 -27 -14 -48t-44 -24q-14 -2 -27.5 -3t-26.5 -1q-5 -41 -26.5 -78.5t-56.5 -68.5q-37 -33 -80.5 -50.5t-87.5 -17.5h-5q-50 1 -91.5 24.5t-70.5 67.5q-58 89 -55 249q1 90 20 161q20 70 53 113q17 22 37.5 38.5t44.5 27.5q20 9 43 14t46 4q31 0 62 -8t58 -24
q25 -13 43 -32q18 -18 23.5 -35t5.5 -29q0 -27 -19 -46t-45 -19q-21 0 -37 12t-24 30q-6 4 -16.5 9t-23.5 8.5t-28 4t-30 -4.5q-31 -12 -50 -52q-31 -60 -33 -174q-2 -75 9.5 -116t24.5 -60q22 -33 56 -34q43 0 84 36q28 25 37 52q-10 1 -20 1t-20 1q-27 0 -46 19.5
t-18 46.5q1 26 20 44.5t45 18.5h1q16 0 30.5 -0.5t28.5 -1.5q35 -2 69.5 -2.5t81.5 4.5q27 3 48 -14t24 -43zM265 -302q-14 0 -26.5 8t-19.5 22q-8 19 -1 38t27 28q13 6 15.5 11.5t3.5 8.5q2 16 -10.5 37.5t-27.5 33.5q-17 13 -19.5 33t10.5 37t33.5 19.5t37.5 -10.5
q16 -13 31 -31t25.5 -39.5t16 -45t2.5 -46.5q-4 -33 -24 -59t-54 -41q-8 -4 -20 -4z" />
    <glyph glyph-name="Kcommaaccent" unicode="&#x136;" horiz-adv-x="576" 
d="M505 120q21 -17 24.5 -43t-12.5 -48q-10 -12 -24 -18.5t-28 -6.5q-23 0 -40 13l-117.5 95.5l-115.5 101.5l-2 -77t-4 -76q-2 -26 -20.5 -43.5t-44.5 -17.5q-1 0 -2 0.5t-2 0.5q-27 2 -44.5 22t-15.5 47q8 120 5.5 246t-6.5 251l-3 66q-1 27 17.5 46.5t45.5 20.5
t46.5 -17.5t20.5 -44.5q1 -17 1.5 -33t0.5 -33l3 -87q53 39 103.5 82.5t100.5 97.5q19 20 45.5 21t46.5 -17q20 -19 21 -45.5t-18 -46.5q-63 -69 -126.5 -121.5t-129.5 -100.5q64 -61 133.5 -121t140.5 -114zM265 -302q-14 0 -26.5 8t-19.5 22q-8 19 -1 38t27 28
q13 6 15.5 11.5t3.5 8.5q2 16 -10.5 37.5t-27.5 33.5q-17 13 -19.5 33t10.5 37t33.5 19.5t37.5 -10.5q16 -13 31 -31t25.5 -39.5t16 -45t2.5 -46.5q-4 -33 -24 -59t-54 -41q-8 -4 -20 -4z" />
    <glyph glyph-name="kcommaaccent" unicode="&#x137;" horiz-adv-x="576" 
d="M532 128q23 -16 27.5 -42t-11.5 -49q-10 -14 -24 -20.5t-29 -6.5q-20 0 -38 12q-84 59 -152 116l-132 115q-2 -47 -2.5 -93.5t0.5 -93.5q0 -27 -18.5 -46.5t-45.5 -19.5h-1q-27 0 -46 18.5t-19 44.5q-2 62 -0.5 123.5t3.5 121.5q3 92 4 185t-7 186q-2 27 15 47.5t44 22.5
t47.5 -15t22.5 -44q6 -63 7.5 -124.5t0.5 -123.5l135 40.5t133 48.5q25 11 49.5 1t35.5 -35t0.5 -49.5t-35.5 -35.5q-56 -24 -111 -42l-109 -35l120 -103t136 -104zM265 -302q-14 0 -26.5 8t-19.5 22q-8 19 -1 38t27 28q13 6 15.5 11.5t3.5 8.5q2 16 -10.5 37.5t-27.5 33.5
q-17 13 -19.5 33t10.5 37t33.5 19.5t37.5 -10.5q16 -13 31 -31t25.5 -39.5t16 -45t2.5 -46.5q-4 -33 -24 -59t-54 -41q-8 -4 -20 -4z" />
    <glyph glyph-name="Lcommaaccent" unicode="&#x13b;" horiz-adv-x="537" 
d="M287 -1q-40 0 -67 1.5t-44 3.5t-26.5 4t-13.5 3q-10 2 -23.5 10t-25.5 25q-11 15 -18 37q-5 16 -8.5 35.5t-5.5 44.5q-4 38 -4 88t2 112q1 52 4.5 101l6.5 87.5t5.5 63t2.5 26.5q2 26 23 43t48 15q27 -3 44 -24t14 -47q0 -1 -2 -20.5t-4.5 -52l-5.5 -75t-5 -87.5
q-2 -54 -3 -98t1 -79q2 -33 4 -53t4 -30q22 -3 55.5 -3.5t70.5 0t74 2t68 3.5q27 2 47 -16t22 -45t-16 -47t-44 -22q-1 0 -12 -0.5t-29 -1.5t-41 -2t-49 -1q-14 -1 -26 -1h-23zM265 -302q-14 0 -26.5 8t-19.5 22q-8 19 -1 38t27 28q13 6 15.5 11.5t3.5 8.5q2 16 -10.5 37.5
t-27.5 33.5q-17 13 -19.5 33t10.5 37t33.5 19.5t37.5 -10.5q16 -13 31 -31t25.5 -39.5t16 -45t2.5 -46.5q-4 -33 -24 -59t-54 -41q-8 -4 -20 -4z" />
    <glyph glyph-name="lcommaaccent" unicode="&#x13c;" horiz-adv-x="209" 
d="M108 -1q-25 0 -43.5 16.5t-20.5 42.5q-9 87 -8.5 167t2.5 165q2 69 3.5 140.5t-3.5 149.5q-2 27 16 47t45 22t47 -16.5t22 -44.5q5 -82 3.5 -156t-3.5 -146q-2 -81 -2.5 -158t7.5 -158q2 -26 -15 -47t-43 -24h-7zM112 -302q-14 0 -26.5 8t-19.5 22q-8 19 -1 38t27 28
q13 6 15.5 11.5t3.5 8.5q2 16 -10.5 37.5t-27.5 33.5q-17 13 -19.5 33t10.5 37t33.5 19.5t37.5 -10.5q16 -13 31 -31t25.5 -39.5t16 -45t2.5 -46.5q-4 -33 -24 -59t-54 -41q-8 -4 -20 -4z" />
    <glyph glyph-name="Rcommaaccent" unicode="&#x156;" horiz-adv-x="579" 
d="M471 -2q-19 0 -35 10q-53 34 -90.5 61.5t-66 51t-50 44t-41.5 41.5q-2 -35 -2.5 -71.5t-2.5 -74.5q-1 -26 -20.5 -44.5t-46.5 -17.5t-45.5 21t-17.5 46q3 81 4.5 155t1.5 143t-1.5 134.5t-4.5 130.5q-1 27 17 46.5t44 21.5q81 5 150.5 -4.5t123.5 -33.5q55 -24 90 -60
q38 -41 44 -93q1 -14 -0.5 -33t-10.5 -41t-27.5 -45.5t-51.5 -46.5q-53 -37 -132 -61q16 -17 34.5 -34t42.5 -36.5t55.5 -41.5l73.5 -49q23 -14 28.5 -40t-9.5 -49q-9 -15 -23.5 -22.5t-30.5 -7.5zM186 567q3 -90 3 -183q69 14 108.5 30.5t59.5 30.5q17 12 27 24.5t9 21.5
t-14.5 22.5t-41.5 25.5q-62 26 -151 28zM291 -302q-14 0 -26.5 8t-19.5 22q-8 19 -1 38t27 28q13 6 15.5 11.5t3.5 8.5q2 16 -10.5 37.5t-27.5 33.5q-17 13 -19.5 33t10.5 37t33.5 19.5t37.5 -10.5q16 -13 31 -31t25.5 -39.5t16 -45t2.5 -46.5q-4 -33 -24 -59t-54 -41
q-8 -4 -20 -4z" />
    <glyph glyph-name="rcommaaccent" unicode="&#x157;" horiz-adv-x="597" 
d="M119 -3h-3q-27 2 -45 21t-17 46q2 125 -2.5 250.5t-10.5 250.5q-1 16 -1.5 32t-1.5 32q-2 27 16.5 46.5t45.5 21.5t46.5 -16.5t21.5 -45.5q1 -11 1 -23t1 -23q23 40 56 67q73 59 169 33q69 -20 121 -82q26 -30 41.5 -60.5t24.5 -53.5q9 -26 -2 -50t-36 -34q-26 -10 -50 1
t-34 37q-7 18 -17 36.5t-22.5 34.5t-28 28.5t-32.5 17.5q-21 5 -32.5 1.5t-19.5 -9.5q-24 -21 -45 -72q-20 -50 -34 -103.5t-23 -108.5t-14.5 -109t-8.5 -105q-2 -26 -20 -43.5t-44 -17.5zM121 -302q-14 0 -26.5 8t-19.5 22q-8 19 -1 38t27 28q13 6 15.5 11.5t3.5 8.5
q2 16 -10.5 37.5t-27.5 33.5q-17 13 -19.5 33t10.5 37t33.5 19.5t37.5 -10.5q16 -13 31 -31t25.5 -39.5t16 -45t2.5 -46.5q-4 -33 -24 -59t-54 -41q-8 -4 -20 -4z" />
    <glyph glyph-name="Tcommaaccent" unicode="&#x162;" horiz-adv-x="548" 
d="M524 644q4 -26 -13 -47.5t-43 -24.5q-38 -5 -73 -7t-70 -3q7 -114 5 -218.5t-6 -210.5l-3 -69q-1 -26 -20 -44.5t-45 -18.5h-2q-27 2 -45.5 21.5t-17.5 46.5l3 69q4 106 6 209.5t-5 214.5q-39 1 -75 3h-16.5t-16.5 1q-27 1 -45.5 20.5t-17.5 46.5q2 27 21.5 45.5
t46.5 17.5q8 -1 16.5 -1t16.5 -1q81 -3 160.5 -3.5t166.5 10.5q26 3 47.5 -13.5t24.5 -43.5zM267 -302q-14 0 -26.5 8t-19.5 22q-8 19 -1 38t27 28q13 6 15.5 11.5t3.5 8.5q2 16 -10.5 37.5t-27.5 33.5q-17 13 -19.5 33t10.5 37t33.5 19.5t37.5 -10.5q16 -13 31 -31
t25.5 -39.5t16 -45t2.5 -46.5q-4 -33 -24 -59t-54 -41q-8 -4 -20 -4z" />
    <glyph glyph-name="tcommaaccent" unicode="&#x163;" horiz-adv-x="585" 
d="M508 303q27 -1 46 -20.5t18 -46.5q-1 -44 -15.5 -83.5t-40.5 -71.5q-51 -60 -125 -77q-24 -6 -48 -6q-38 0 -68 13q-62 24 -93 84q-18 35 -28.5 90.5t-12.5 133.5l-59 -2q0 -1 -2 -1q-26 0 -45 18.5t-20 44.5q-1 27 17.5 46.5t44.5 20.5l65 3q2 58 6 104.5l6 69.5
q0 3 0.5 6t0.5 5q0 22 13.5 39.5t35.5 22.5q15 4 30.5 0.5t27.5 -14.5q5 -5 14.5 -18t7.5 -36v-5q0 -2 -0.5 -5t-0.5 -7q-2 -20 -5.5 -62t-5.5 -95l113 4q27 2 46.5 -16.5t20.5 -45.5q2 -27 -16.5 -46.5t-45.5 -20.5l-119 -5q1 -42 4.5 -71.5t7 -49.5t7.5 -31.5t7 -16.5
q12 -23 31.5 -25.5t32.5 0.5q30 7 55 34t26 75q1 26 20 45t45 19h1zM281 -302q-14 0 -26.5 8t-19.5 22q-8 19 -1 38t27 28q13 6 15.5 11.5t3.5 8.5q2 16 -10.5 37.5t-27.5 33.5q-17 13 -19.5 33t10.5 37t33.5 19.5t37.5 -10.5q16 -13 31 -31t25.5 -39.5t16 -45t2.5 -46.5
q-4 -33 -24 -59t-54 -41q-8 -4 -20 -4zM157 617q0 1 -0.5 1t-0.5 1q2 -8 3.5 -12t-2.5 10zM155 627v-3v3z" />
    <glyph glyph-name="Ncommaaccent" unicode="&#x145;" horiz-adv-x="571" 
d="M127 -2q-26 0 -44.5 17.5t-20.5 43.5q0 1 -1.5 25.5t-3 64.5t-3 90.5t-1.5 103.5q-1 63 0.5 113t4.5 87q5 50 13 77q6 21 15 36q14 22 31 28.5t28 7.5q18 1 32.5 -5t25.5 -15t18 -18.5t10 -14.5l18 -32t21 -42q19 -43 40 -96l42 -107l18 -45.5l17 -43.5q1 24 1 53.5
t1 64.5q0 46 -1 89t-1.5 76.5t-1.5 53.5t-1 21q-1 26 17.5 46t45.5 21t46.5 -17.5t20.5 -45.5l1 -23t1.5 -60.5t1 -85t0.5 -98.5q0 -120 -6 -195q-5 -64 -14.5 -97t-28.5 -50q-25 -22 -58 -19q-27 3 -43.5 20.5t-27.5 34.5q-15 24 -34 68q-17 38 -36 85.5l-39 99.5l-24 62
l-24 60q-1 -52 0 -130l2 -90t2.5 -76t3 -53.5l1.5 -20.5q2 -27 -16.5 -47t-45.5 -22h-3zM285 -302q-14 0 -26.5 8t-19.5 22q-8 19 -1 38t27 28q13 6 15.5 11.5t3.5 8.5q2 16 -10.5 37.5t-27.5 33.5q-17 13 -19.5 33t10.5 37t33.5 19.5t37.5 -10.5q16 -13 31 -31t25.5 -39.5
t16 -45t2.5 -46.5q-4 -33 -24 -59t-54 -41q-8 -4 -20 -4z" />
    <glyph glyph-name="ncommaaccent" unicode="&#x146;" 
d="M138 0h-1q-26 1 -44 18t-20 43l-37 559q-2 27 16 47t45 22t47 -16t22 -45l6 -89q9 22 19 41q27 53 59 82q29 26 55.5 32.5t46.5 5.5q19 -2 44 -11.5t51 -37.5q30 -33 50 -85q32 -79 47 -210q7 -53 10 -104t4 -90.5t1 -65v-27.5q-1 -26 -19.5 -45t-45.5 -19q-1 0 -1 1
q-27 0 -45.5 19.5t-18.5 46.5v23.5t-1 61.5t-4 86.5t-9 98.5q-14 115 -39 177q-12 29 -21 39.5t-12 11.5q-2 -1 -11 -9t-23 -34.5t-31 -75t-35 -130.5q-11 -49 -18.5 -96t-12.5 -84t-7.5 -59.5l-2.5 -22.5q-2 -25 -20.5 -42t-43.5 -17zM326 -302q-14 0 -26.5 8t-19.5 22
q-8 19 -1 38t27 28q13 6 15.5 11.5t3.5 8.5q2 16 -10.5 37.5t-27.5 33.5q-17 13 -19.5 33t10.5 37t33.5 19.5t37.5 -10.5q16 -13 31 -31t25.5 -39.5t16 -45t2.5 -46.5q-4 -33 -24 -59t-54 -41q-8 -4 -20 -4z" />
    <glyph glyph-name="napostrophe" unicode="&#x149;" horiz-adv-x="777" 
d="M317 0h-1q-26 1 -44 18t-20 43l-37 559q-2 27 16 47t45 22t47 -16t22 -45l6 -89q9 22 19 41q27 53 59 82q29 26 55.5 32.5t46.5 5.5q19 -2 44 -11.5t51 -37.5q30 -33 50 -85q32 -79 47 -210q7 -53 10 -104t4 -90.5t1 -65v-27.5q-1 -26 -19.5 -45t-45.5 -19q-1 0 -1 1
q-27 0 -45.5 19.5t-18.5 46.5v23.5t-1 61.5t-4 86.5t-9 98.5q-14 115 -39 177q-12 29 -21 39.5t-12 11.5q-2 -1 -11 -9t-23 -34.5t-31 -75t-35 -130.5q-11 -49 -18.5 -96t-12.5 -84t-7.5 -59.5l-2.5 -22.5q-2 -25 -20.5 -42t-43.5 -17zM86 419q-14 0 -26.5 8t-19.5 22
q-8 19 -1 38t27 28q13 6 15.5 11.5t3.5 8.5q2 16 -10.5 37.5t-27.5 33.5q-17 13 -19.5 33t10.5 37t33.5 19.5t37.5 -10.5q16 -13 31 -31t25.5 -39.5t16 -45t2.5 -46.5q-4 -33 -24 -59t-54 -41q-8 -4 -20 -4z" />
    <glyph glyph-name="tilde" unicode="&#x2dc;" horiz-adv-x="326" 
d="M67 525q-7 0 -17 4q-15 8 -20.5 23.5t1.5 30.5q14 29 33.5 54t48.5 28q14 1 25 -3t20 -10.5t16 -15t12 -15.5q2 -2 3.5 -5t3.5 -5q5 5 11 15.5t15 28.5q8 14 23.5 19.5t30.5 -1.5q14 -8 20 -23.5t-2 -30.5q-17 -33 -38.5 -61.5t-53.5 -31.5q-14 -2 -25.5 2.5t-21 11.5
t-16.5 15.5t-13 16.5q-1 2 -2 2.5t-2 2.5q-6 -9 -16 -29q-12 -23 -36 -23z" />
    <glyph glyph-name="Itilde" unicode="&#x128;" horiz-adv-x="577" 
d="M459 136h-2l-51.5 -2l-49.5 -2q-5 -1 -10 -1h-10q3 88 2.5 169t-2.5 160q0 24 -0.5 48t-0.5 49q32 1 66 3.5t70 8.5q27 4 42.5 26t11.5 48q-5 27 -26.5 43t-48.5 11q-69 -11 -131.5 -10.5t-122.5 3.5q-20 1 -38.5 1.5t-37.5 1.5q-27 0 -46.5 -18.5t-19.5 -45.5
q-1 -27 17.5 -46.5t45.5 -19.5q18 -1 36 -1.5t37 -1.5q4 0 7.5 -0.5t7.5 -0.5q0 -26 0.5 -51t0.5 -50q2 -83 2.5 -162.5t-2.5 -166.5l-39 4t-39 7q-26 5 -49 -9.5t-29 -40.5q-5 -26 9.5 -49t40.5 -28q38 -9 75.5 -12t74.5 -3q28 0 55.5 1t56.5 3q24 2 48 2.5t50 1.5
q26 0 45 19.5t18 46.5q0 26 -19 45t-45 19zM194 725q-7 0 -17 4q-15 8 -20.5 23.5t1.5 30.5q14 29 33.5 54t48.5 28q14 1 25 -3t20 -10.5t16 -15t12 -15.5q2 -2 3.5 -5t3.5 -5q5 5 11 15.5t15 28.5q8 14 23.5 19.5t30.5 -1.5q14 -8 20 -23.5t-2 -30.5q-17 -33 -38.5 -61.5
t-53.5 -31.5q-14 -2 -25.5 2.5t-21 11.5t-16.5 15.5t-13 16.5q-1 2 -2 2.5t-2 2.5q-6 -9 -16 -29q-12 -23 -36 -23z" />
    <glyph glyph-name="itilde" unicode="&#x129;" horiz-adv-x="314" 
d="M219 439q-5 26 -27 42t-48 12q-26 -5 -42 -27t-12 -48q8 -50 7 -103.5t-3 -103.5q-3 -44 -4 -84t4 -74q4 -24 22.5 -39.5t41.5 -15.5q7 0 10 1q27 4 43 25.5t12 48.5q-4 23 -3 58t3 73q3 55 4.5 115t-8.5 120zM60 525q-7 0 -17 4q-15 8 -20.5 23.5t1.5 30.5
q14 29 33.5 54t48.5 28q14 1 25 -3t20 -10.5t16 -15t12 -15.5q2 -2 3.5 -5t3.5 -5q5 5 11 15.5t15 28.5q8 14 23.5 19.5t30.5 -1.5q14 -8 20 -23.5t-2 -30.5q-17 -33 -38.5 -61.5t-53.5 -31.5q-14 -2 -25.5 2.5t-21 11.5t-16.5 15.5t-13 16.5q-1 2 -2 2.5t-2 2.5
q-6 -9 -16 -29q-12 -23 -36 -23z" />
    <glyph glyph-name="Utilde" unicode="&#x168;" horiz-adv-x="602" 
d="M297 -1h-3q-94 2 -157 72q-33 38 -55 98q-10 27 -17 58.5t-11 66.5q-17 139 7 337q3 26 24 43t48 14q26 -4 43 -25t14 -47q-11 -93 -13 -169.5t6 -136.5q8 -68 23 -103t29 -50q22 -27 61 -28q35 0 61 29q14 17 31.5 52.5t28.5 104.5q10 64 9.5 141.5t-11.5 170.5
q-3 26 13.5 47.5t43.5 24.5t48 -13.5t24 -43.5q12 -101 12 -188t-11 -159q-23 -149 -92 -224q-64 -72 -156 -72zM206 725q-7 0 -17 4q-15 8 -20.5 23.5t1.5 30.5q14 29 33.5 54t48.5 28q14 1 25 -3t20 -10.5t16 -15t12 -15.5q2 -2 3.5 -5t3.5 -5q5 5 11 15.5t15 28.5
q8 14 23.5 19.5t30.5 -1.5q14 -8 20 -23.5t-2 -30.5q-17 -33 -38.5 -61.5t-53.5 -31.5q-14 -2 -25.5 2.5t-21 11.5t-16.5 15.5t-13 16.5q-1 2 -2 2.5t-2 2.5q-6 -9 -16 -29q-12 -23 -36 -23z" />
    <glyph glyph-name="utilde" unicode="&#x169;" 
d="M455 701h1q26 -1 44 -18t20 -43l37 -559q2 -27 -16 -47t-45 -22t-47 16t-22 45l-6 89q-9 -22 -19 -41q-27 -53 -59 -82q-29 -26 -55.5 -32.5t-46.5 -5.5q-19 2 -44 11.5t-51 37.5q-30 33 -50 85q-32 79 -47 210q-7 53 -10 104t-4 90.5t-1 65v27.5q1 26 19.5 45t45.5 19
q1 0 1 -1q27 0 45.5 -19.5t18.5 -46.5v-23.5t1 -61.5t4 -86.5t9 -98.5q14 -115 39 -177q12 -29 21 -39.5t12 -11.5q1 1 10.5 9t23.5 34.5t31 75t35 130.5q11 49 18.5 96t12.5 83.5t7.5 59.5l2.5 23q2 25 20.5 42t43.5 17zM179 725q-7 0 -17 4q-15 8 -20.5 23.5t1.5 30.5
q14 29 33.5 54t48.5 28q14 1 25 -3t20 -10.5t16 -15t12 -15.5q2 -2 3.5 -5t3.5 -5q5 5 11 15.5t15 28.5q8 14 23.5 19.5t30.5 -1.5q14 -8 20 -23.5t-2 -30.5q-17 -33 -38.5 -61.5t-53.5 -31.5q-14 -2 -25.5 2.5t-21 11.5t-16.5 15.5t-13 16.5q-1 2 -2 2.5t-2 2.5
q-6 -9 -16 -29q-12 -23 -36 -23z" />
    <glyph glyph-name="Atilde" unicode="&#xc3;" horiz-adv-x="650" 
d="M596 286q-11 106 -33 186q-31 108 -85 165q-59 61 -140 61q-20 0 -43 -5t-47.5 -18t-49.5 -36.5t-47 -60.5q-49 -79 -78 -216q-12 -55 -19 -107.5t-10 -94t-4 -68t-1 -28.5q-1 -26 18 -45.5t46 -20.5h1q26 0 45 19t20 45l0.5 13.5t1.5 36t3.5 53t7.5 65.5
q39 -2 78.5 -3.5t80.5 -1.5q32 0 64 1.5t65 3.5q2 -33 3 -62.5t1 -51t-0.5 -34.5l-0.5 -13q-1 -27 17 -46.5t45 -21.5h3q26 0 44.5 18t20.5 44q0 1 0.5 19.5t0.5 49t-2 70.5t-6 84zM205 359q7 29 18.5 65t28 68t38 54t48.5 22q26 0 46 -21q48 -51 72 -188q-64 -5 -126 -4
t-125 4zM230 725q-7 0 -17 4q-15 8 -20.5 23.5t1.5 30.5q14 29 33.5 54t48.5 28q14 1 25 -3t20 -10.5t16 -15t12 -15.5q2 -2 3.5 -5t3.5 -5q5 5 11 15.5t15 28.5q8 14 23.5 19.5t30.5 -1.5q14 -8 20 -23.5t-2 -30.5q-17 -33 -38.5 -61.5t-53.5 -31.5q-14 -2 -25.5 2.5
t-21 11.5t-16.5 15.5t-13 16.5q-1 2 -2 2.5t-2 2.5q-6 -9 -16 -29q-12 -23 -36 -23z" />
    <glyph glyph-name="atilde" unicode="&#xe3;" horiz-adv-x="644" 
d="M605 69q-10 121 -17 262.5t-2 299.5q1 27 -18 46.5t-45 20.5q-25 1 -43.5 -15t-22.5 -40q-62 56 -144 56q-54 0 -105 -25.5t-90 -72.5q-39 -46 -62 -108q-12 -32 -18 -67t-8 -72q-2 -81 22.5 -150.5t74.5 -120.5q19 -20 40.5 -35.5t45.5 -26.5q25 -11 49.5 -16.5
t50.5 -5.5q41 0 84 16q20 9 38.5 21t34.5 29q3 3 4 5q1 -4 1 -11q2 -26 20.5 -43t44.5 -17h5q27 2 44.5 22.5t15.5 47.5zM378 157q-27 -28 -65 -28q-24 0 -48.5 11.5t-44.5 32.5q-31 32 -46.5 77.5t-13.5 99.5q1 51 15.5 91.5t36 69t48.5 43.5t53 15q27 0 48.5 -15.5t37 -45
t24.5 -70.5t9 -92q0 -65 -14 -113.5t-40 -75.5zM219 725q-7 0 -17 4q-15 8 -20.5 23.5t1.5 30.5q14 29 33.5 54t48.5 28q14 1 25 -3t20 -10.5t16 -15t12 -15.5q2 -2 3.5 -5t3.5 -5q5 5 11 15.5t15 28.5q8 14 23.5 19.5t30.5 -1.5q14 -8 20 -23.5t-2 -30.5
q-17 -33 -38.5 -61.5t-53.5 -31.5q-14 -2 -25.5 2.5t-21 11.5t-16.5 15.5t-13 16.5q-1 2 -2 2.5t-2 2.5q-6 -9 -16 -29q-12 -23 -36 -23z" />
    <glyph glyph-name="Otilde" unicode="&#xd5;" horiz-adv-x="700" 
d="M362 0q-61 0 -115 22q-58 24 -102 67q-45 44 -73 107q-29 66 -32 142q-3 81 21 150q23 64 71 115q45 46 103 71.5t121 25.5q60 0 112.5 -22.5t93.5 -64.5q44 -46 68 -110.5t27 -142.5q2 -54 -6 -97.5t-21.5 -77t-30.5 -58.5t-33 -42q-40 -42 -92.5 -63.5t-111.5 -21.5z
M356 570q-36 0 -70 -15t-60 -42q-30 -31 -44 -74t-12 -95q2 -53 19.5 -93t44.5 -67t60.5 -40.5t67.5 -13.5q66 0 111 45q59 62 54 180q-2 59 -18 100t-40 66.5t-53.5 37t-59.5 11.5zM255 725q-7 0 -17 4q-15 8 -20.5 23.5t1.5 30.5q14 29 33.5 54t48.5 28q14 1 25 -3
t20 -10.5t16 -15t12 -15.5q2 -2 3.5 -5t3.5 -5q5 5 11 15.5t15 28.5q8 14 23.5 19.5t30.5 -1.5q14 -8 20 -23.5t-2 -30.5q-17 -33 -38.5 -61.5t-53.5 -31.5q-14 -2 -25.5 2.5t-21 11.5t-16.5 15.5t-13 16.5q-1 2 -2 2.5t-2 2.5q-6 -9 -16 -29q-12 -23 -36 -23z" />
    <glyph glyph-name="otilde" unicode="&#xf5;" horiz-adv-x="689" 
d="M362 -1q-61 0 -118 22q-29 12 -55 28.5t-49 38.5q-48 45 -77 107q-30 64 -33 142q-2 39 3.5 75.5t17.5 71.5q25 65 71 113q46 49 106.5 75t126.5 26q60 0 112.5 -22t93.5 -64q44 -47 67 -108q12 -32 19 -68.5t8 -77.5q2 -54 -5.5 -97.5t-21 -77.5t-30.5 -58.5t-33 -41.5
q-39 -41 -91 -62.5t-112 -21.5zM355 569q-38 0 -74.5 -16t-64.5 -45q-21 -23 -40 -62.5t-17 -102.5q3 -52 22 -92t47.5 -67.5t63.5 -41.5t70 -14q67 0 110 45q29 29 42.5 75t11.5 106q-2 59 -18 100t-40 66.5t-53.5 37t-59.5 11.5zM267 725q-7 0 -17 4q-15 8 -20.5 23.5
t1.5 30.5q14 29 33.5 54t48.5 28q14 1 25 -3t20 -10.5t16 -15t12 -15.5q2 -2 3.5 -5t3.5 -5q5 5 11 15.5t15 28.5q8 14 23.5 19.5t30.5 -1.5q14 -8 20 -23.5t-2 -30.5q-17 -33 -38.5 -61.5t-53.5 -31.5q-14 -2 -25.5 2.5t-21 11.5t-16.5 15.5t-13 16.5q-1 2 -2 2.5t-2 2.5
q-6 -9 -16 -29q-12 -23 -36 -23z" />
    </font>
</defs>
</svg>
